<svg width="431" height="260" viewBox="0 0 431 260" fill="none" xmlns="http://www.w3.org/2000/svg">
<path d="M86.8536 22.6464C86.6583 22.4512 86.3417 22.4512 86.1464 22.6464L82.9645 25.8284C82.7692 26.0237 82.7692 26.3403 82.9645 26.5355C83.1597 26.7308 83.4763 26.7308 83.6716 26.5355L86.5 23.7071L89.3284 26.5355C89.5237 26.7308 89.8403 26.7308 90.0355 26.5355C90.2308 26.3403 90.2308 26.0237 90.0355 25.8284L86.8536 22.6464ZM86.5 35H87V23H86.5H86V35H86.5Z" fill="#00C0FF"/>
<path d="M218.354 121.854C218.549 121.658 218.549 121.342 218.354 121.146L215.172 117.964C214.976 117.769 214.66 117.769 214.464 117.964C214.269 118.16 214.269 118.476 214.464 118.672L217.293 121.5L214.464 124.328C214.269 124.524 214.269 124.84 214.464 125.036C214.66 125.231 214.976 125.231 215.172 125.036L218.354 121.854ZM202 121.5V122H218V121.5V121H202V121.5Z" fill="#00C0FF"/>
<path d="M266.854 108.646C266.658 108.451 266.342 108.451 266.146 108.646L262.964 111.828C262.769 112.024 262.769 112.34 262.964 112.536C263.16 112.731 263.476 112.731 263.672 112.536L266.5 109.707L269.328 112.536C269.524 112.731 269.84 112.731 270.036 112.536C270.231 112.34 270.231 112.024 270.036 111.828L266.854 108.646ZM266.5 125H267V109H266.5H266V125H266.5Z" fill="#B200FF"/>
<path d="M398.354 197.854C398.549 197.658 398.549 197.342 398.354 197.146L395.172 193.964C394.976 193.769 394.66 193.769 394.464 193.964C394.269 194.16 394.269 194.476 394.464 194.672L397.293 197.5L394.464 200.328C394.269 200.524 394.269 200.84 394.464 201.036C394.66 201.231 394.976 201.231 395.172 201.036L398.354 197.854ZM382 197.5V198H398V197.5V197H382V197.5Z" fill="#B200FF"/>
<rect x="86.5" y="32.5" width="118" height="89" rx="1.5" stroke="black"/>
<rect x="266.5" y="122.5" width="121" height="75" rx="1.5" stroke="black"/>
<path d="M86 16.5L205 16.5" stroke="#FF9924"/>
<line x1="86.5" y1="13" x2="86.5" y2="20" stroke="#FF9924"/>
<line x1="204.5" y1="13" x2="204.5" y2="20" stroke="#FF9924"/>
<path d="M52 32L52 122" stroke="#FF9924"/>
<line x1="56" y1="32.5" x2="48" y2="32.5" stroke="#FF9924"/>
<line x1="56" y1="121.5" x2="48" y2="121.5" stroke="#FF9924"/>
<path d="M404 122L404 198" stroke="#FF9924"/>
<line x1="408" y1="122.5" x2="400" y2="122.5" stroke="#FF9924"/>
<line x1="408" y1="197.5" x2="400" y2="197.5" stroke="#FF9924"/>
<path d="M388 216L266 216" stroke="#FF9924"/>
<line x1="387.5" y1="220" x2="387.5" y2="212" stroke="#FF9924"/>
<line x1="266.5" y1="220" x2="266.5" y2="212" stroke="#FF9924"/>
<line x1="3.5" y1="256" x2="3.5" y2="175" stroke="white"/>
<path d="M4.35355 174.646C4.15829 174.451 3.84171 174.451 3.64644 174.646L0.464463 177.828C0.269201 178.024 0.269201 178.34 0.464463 178.536C0.659725 178.731 0.976307 178.731 1.17157 178.536L4 175.707L6.82842 178.536C7.02369 178.731 7.34027 178.731 7.53553 178.536C7.73079 178.34 7.73079 178.024 7.53553 177.828L4.35355 174.646ZM4 256L4.5 256L4.5 175L4 175L3.5 175L3.5 256L4 256Z" fill="#FF9924"/>
<path d="M87.3536 256.354C87.5488 256.158 87.5488 255.842 87.3536 255.646L84.1716 252.464C83.9763 252.269 83.6597 252.269 83.4645 252.464C83.2692 252.66 83.2692 252.976 83.4645 253.172L86.2929 256L83.4645 258.828C83.2692 259.024 83.2692 259.34 83.4645 259.536C83.6597 259.731 83.9763 259.731 84.1716 259.536L87.3536 256.354ZM4 256V256.5H87V256V255.5H4V256Z" fill="#FF9924"/>
<circle cx="146" cy="77" r="2" fill="#FF9924"/>
<circle cx="327" cy="160" r="2" fill="#FF9924"/>
<path d="M136.255 9.484C136.101 9.484 135.954 9.451 135.815 9.385C135.676 9.319 135.551 9.19067 135.441 9C135.331 8.81667 135.243 8.54533 135.177 8.186C135.111 7.81933 135.078 7.33533 135.078 6.734C135.078 6.16933 135.107 5.63033 135.166 5.117C135.225 4.59633 135.309 4.13433 135.419 3.731C135.529 3.32033 135.661 2.99767 135.815 2.763C135.969 2.521 136.141 2.4 136.332 2.4C136.501 2.4 136.64 2.48067 136.75 2.642C136.86 2.80333 136.915 3.03433 136.915 3.335C136.915 3.56967 136.886 3.87767 136.827 4.259C136.776 4.64033 136.713 5.051 136.64 5.491C136.567 5.92367 136.501 6.34533 136.442 6.756C136.391 7.15933 136.365 7.504 136.365 7.79C136.365 7.84133 136.372 7.89267 136.387 7.944C136.402 7.988 136.424 8.01 136.453 8.01C136.497 8.01 136.57 7.90367 136.673 7.691C136.776 7.47833 136.9 7.19967 137.047 6.855C137.201 6.503 137.366 6.12167 137.542 5.711C137.725 5.30033 137.916 4.897 138.114 4.501C138.319 4.09767 138.525 3.73833 138.73 3.423C138.906 3.15167 139.115 2.94267 139.357 2.796C139.599 2.64933 139.823 2.576 140.028 2.576C140.211 2.576 140.391 2.62367 140.567 2.719C140.75 2.81433 140.901 2.95733 141.018 3.148C141.135 3.33867 141.194 3.577 141.194 3.863C141.194 3.973 141.179 4.15633 141.15 4.413C141.128 4.66233 141.099 4.94833 141.062 5.271C141.025 5.58633 140.989 5.90533 140.952 6.228C140.915 6.54333 140.882 6.82567 140.853 7.075C140.831 7.32433 140.82 7.50033 140.82 7.603C140.82 7.61767 140.82 7.636 140.82 7.658C140.82 7.73867 140.824 7.81933 140.831 7.9C140.838 7.97333 140.86 8.01 140.897 8.01C140.978 8.01 141.08 7.91833 141.205 7.735C141.337 7.54433 141.484 7.29133 141.645 6.976C141.814 6.66067 141.99 6.30867 142.173 5.92C142.356 5.53133 142.543 5.13167 142.734 4.721C142.932 4.303 143.126 3.907 143.317 3.533C143.464 3.21767 143.588 3.01967 143.691 2.939C143.794 2.851 143.893 2.807 143.988 2.807C144.12 2.807 144.259 2.873 144.406 3.005C144.553 3.137 144.626 3.34233 144.626 3.621C144.626 3.71633 144.622 3.81167 144.615 3.907C144.608 4.00233 144.582 4.10133 144.538 4.204C144.245 4.94467 143.94 5.63033 143.625 6.261C143.317 6.88433 143.009 7.427 142.701 7.889C142.393 8.351 142.096 8.71033 141.81 8.967C141.524 9.22367 141.256 9.352 141.007 9.352C140.494 9.352 140.098 9.21633 139.819 8.945C139.548 8.66633 139.412 8.29233 139.412 7.823C139.412 7.647 139.423 7.42333 139.445 7.152C139.467 6.87333 139.493 6.57267 139.522 6.25C139.559 5.92 139.595 5.59367 139.632 5.271C139.669 4.94833 139.705 4.65133 139.742 4.38C139.757 4.27733 139.738 4.21133 139.687 4.182C139.643 4.15267 139.603 4.18567 139.566 4.281C139.471 4.53033 139.368 4.80167 139.258 5.095C139.148 5.38833 139.045 5.645 138.95 5.865C138.796 6.23167 138.616 6.624 138.411 7.042C138.213 7.46 137.997 7.856 137.762 8.23C137.527 8.59667 137.282 8.89733 137.025 9.132C136.768 9.36667 136.512 9.484 136.255 9.484ZM143.502 10.21C143.143 10.21 142.893 10.1403 142.754 10.001C142.607 9.869 142.534 9.71867 142.534 9.55C142.534 9.44733 142.578 9.34467 142.666 9.242C142.754 9.14667 142.923 9.055 143.172 8.967C143.414 8.879 143.762 8.80567 144.217 8.747C144.679 8.681 145.277 8.62967 146.01 8.593C146.751 8.55633 147.656 8.538 148.727 8.538C149.196 8.538 149.508 8.60033 149.662 8.725C149.823 8.84967 149.904 8.99633 149.904 9.165C149.904 9.24567 149.864 9.33367 149.783 9.429C149.71 9.52433 149.556 9.616 149.321 9.704C149.086 9.79933 148.734 9.88367 148.265 9.957C147.803 10.0377 147.183 10.1 146.406 10.144C145.636 10.188 144.668 10.21 143.502 10.21ZM153.087 9.847C152.962 9.847 152.849 9.82867 152.746 9.792C152.651 9.76267 152.57 9.70033 152.504 9.605C152.203 9.65633 151.906 9.69667 151.613 9.726C151.32 9.75533 151.045 9.77 150.788 9.77C150.568 9.77 150.396 9.715 150.271 9.605C150.146 9.50233 150.084 9.35567 150.084 9.165C150.084 9.055 150.146 8.93033 150.271 8.791C150.396 8.65167 150.627 8.51967 150.964 8.395C151.301 8.263 151.793 8.16033 152.438 8.087C152.489 7.74233 152.566 7.33533 152.669 6.866C152.772 6.38933 152.896 5.88333 153.043 5.348C153.19 4.80533 153.362 4.27 153.56 3.742C153.289 4.028 153.003 4.27 152.702 4.468C152.409 4.666 152.126 4.81633 151.855 4.919C151.591 5.02167 151.364 5.073 151.173 5.073C151.019 5.073 150.891 5.04733 150.788 4.996C150.693 4.94467 150.645 4.84933 150.645 4.71C150.645 4.534 150.729 4.37267 150.898 4.226C151.067 4.072 151.25 3.92167 151.448 3.775C151.749 3.54767 152.071 3.27633 152.416 2.961C152.768 2.64567 153.094 2.30833 153.395 1.949C153.703 1.58967 153.941 1.23767 154.11 0.892999C154.191 0.739 154.279 0.618 154.374 0.53C154.469 0.434666 154.623 0.386999 154.836 0.386999C155.049 0.386999 155.203 0.482333 155.298 0.673C155.393 0.856333 155.441 1.07633 155.441 1.333C155.441 1.43567 155.412 1.64833 155.353 1.971C155.294 2.28633 155.214 2.675 155.111 3.137C155.008 3.59167 154.895 4.094 154.77 4.644C154.645 5.18667 154.517 5.744 154.385 6.316C154.253 6.888 154.128 7.44167 154.011 7.977C154.253 7.96967 154.502 7.966 154.759 7.966C155.067 7.966 155.335 7.99167 155.562 8.043C155.789 8.09433 155.903 8.20433 155.903 8.373C155.903 8.549 155.826 8.681 155.672 8.769C155.525 8.84967 155.346 8.923 155.133 8.989C154.935 9.04767 154.711 9.11 154.462 9.176C154.213 9.24933 153.949 9.31533 153.67 9.374C153.597 9.54267 153.509 9.66367 153.406 9.737C153.303 9.81033 153.197 9.847 153.087 9.847Z" fill="#FF9924"/>
<path d="M317.255 231.484C317.101 231.484 316.954 231.451 316.815 231.385C316.676 231.319 316.551 231.191 316.441 231C316.331 230.817 316.243 230.545 316.177 230.186C316.111 229.819 316.078 229.335 316.078 228.734C316.078 228.169 316.107 227.63 316.166 227.117C316.225 226.596 316.309 226.134 316.419 225.731C316.529 225.32 316.661 224.998 316.815 224.763C316.969 224.521 317.141 224.4 317.332 224.4C317.501 224.4 317.64 224.481 317.75 224.642C317.86 224.803 317.915 225.034 317.915 225.335C317.915 225.57 317.886 225.878 317.827 226.259C317.776 226.64 317.713 227.051 317.64 227.491C317.567 227.924 317.501 228.345 317.442 228.756C317.391 229.159 317.365 229.504 317.365 229.79C317.365 229.841 317.372 229.893 317.387 229.944C317.402 229.988 317.424 230.01 317.453 230.01C317.497 230.01 317.57 229.904 317.673 229.691C317.776 229.478 317.9 229.2 318.047 228.855C318.201 228.503 318.366 228.122 318.542 227.711C318.725 227.3 318.916 226.897 319.114 226.501C319.319 226.098 319.525 225.738 319.73 225.423C319.906 225.152 320.115 224.943 320.357 224.796C320.599 224.649 320.823 224.576 321.028 224.576C321.211 224.576 321.391 224.624 321.567 224.719C321.75 224.814 321.901 224.957 322.018 225.148C322.135 225.339 322.194 225.577 322.194 225.863C322.194 225.973 322.179 226.156 322.15 226.413C322.128 226.662 322.099 226.948 322.062 227.271C322.025 227.586 321.989 227.905 321.952 228.228C321.915 228.543 321.882 228.826 321.853 229.075C321.831 229.324 321.82 229.5 321.82 229.603C321.82 229.618 321.82 229.636 321.82 229.658C321.82 229.739 321.824 229.819 321.831 229.9C321.838 229.973 321.86 230.01 321.897 230.01C321.978 230.01 322.08 229.918 322.205 229.735C322.337 229.544 322.484 229.291 322.645 228.976C322.814 228.661 322.99 228.309 323.173 227.92C323.356 227.531 323.543 227.132 323.734 226.721C323.932 226.303 324.126 225.907 324.317 225.533C324.464 225.218 324.588 225.02 324.691 224.939C324.794 224.851 324.893 224.807 324.988 224.807C325.12 224.807 325.259 224.873 325.406 225.005C325.553 225.137 325.626 225.342 325.626 225.621C325.626 225.716 325.622 225.812 325.615 225.907C325.608 226.002 325.582 226.101 325.538 226.204C325.245 226.945 324.94 227.63 324.625 228.261C324.317 228.884 324.009 229.427 323.701 229.889C323.393 230.351 323.096 230.71 322.81 230.967C322.524 231.224 322.256 231.352 322.007 231.352C321.494 231.352 321.098 231.216 320.819 230.945C320.548 230.666 320.412 230.292 320.412 229.823C320.412 229.647 320.423 229.423 320.445 229.152C320.467 228.873 320.493 228.573 320.522 228.25C320.559 227.92 320.595 227.594 320.632 227.271C320.669 226.948 320.705 226.651 320.742 226.38C320.757 226.277 320.738 226.211 320.687 226.182C320.643 226.153 320.603 226.186 320.566 226.281C320.471 226.53 320.368 226.802 320.258 227.095C320.148 227.388 320.045 227.645 319.95 227.865C319.796 228.232 319.616 228.624 319.411 229.042C319.213 229.46 318.997 229.856 318.762 230.23C318.527 230.597 318.282 230.897 318.025 231.132C317.768 231.367 317.512 231.484 317.255 231.484ZM324.502 232.21C324.143 232.21 323.893 232.14 323.754 232.001C323.607 231.869 323.534 231.719 323.534 231.55C323.534 231.447 323.578 231.345 323.666 231.242C323.754 231.147 323.923 231.055 324.172 230.967C324.414 230.879 324.762 230.806 325.217 230.747C325.679 230.681 326.277 230.63 327.01 230.593C327.751 230.556 328.656 230.538 329.727 230.538C330.196 230.538 330.508 230.6 330.662 230.725C330.823 230.85 330.904 230.996 330.904 231.165C330.904 231.246 330.864 231.334 330.783 231.429C330.71 231.524 330.556 231.616 330.321 231.704C330.086 231.799 329.734 231.884 329.265 231.957C328.803 232.038 328.183 232.1 327.406 232.144C326.636 232.188 325.668 232.21 324.502 232.21ZM332.162 231.473C331.795 231.473 331.535 231.385 331.381 231.209C331.234 231.04 331.161 230.864 331.161 230.681C331.161 230.52 331.198 230.369 331.271 230.23C331.352 230.083 331.491 229.966 331.689 229.878C331.887 229.79 332.169 229.753 332.536 229.768C332.903 229.577 333.273 229.343 333.647 229.064C334.028 228.785 334.391 228.477 334.736 228.14C335.088 227.803 335.4 227.458 335.671 227.106C335.95 226.747 336.166 226.395 336.32 226.05C336.481 225.698 336.562 225.368 336.562 225.06C336.562 224.73 336.459 224.481 336.254 224.312C336.056 224.143 335.777 224.059 335.418 224.059C335.11 224.059 334.828 224.096 334.571 224.169C334.314 224.235 334.087 224.316 333.889 224.411C333.691 224.506 333.522 224.591 333.383 224.664C333.251 224.73 333.145 224.763 333.064 224.763C332.925 224.763 332.8 224.704 332.69 224.587C332.58 224.462 332.547 224.301 332.591 224.103C332.62 223.971 332.708 223.813 332.855 223.63C333.002 223.447 333.203 223.263 333.46 223.08C333.717 222.897 334.021 222.746 334.373 222.629C334.732 222.504 335.136 222.442 335.583 222.442C336.302 222.442 336.885 222.662 337.332 223.102C337.787 223.542 338.014 224.213 338.014 225.115C338.014 225.709 337.856 226.292 337.541 226.864C337.233 227.436 336.822 227.979 336.309 228.492C335.796 229.005 335.235 229.475 334.626 229.9C335.176 229.878 335.605 229.845 335.913 229.801C336.221 229.75 336.467 229.706 336.65 229.669C336.841 229.632 337.024 229.614 337.2 229.614C337.449 229.614 337.644 229.665 337.783 229.768C337.922 229.871 337.992 230.017 337.992 230.208C337.992 230.347 337.955 230.483 337.882 230.615C337.816 230.747 337.684 230.868 337.486 230.978C337.288 231.081 337.002 231.161 336.628 231.22C336.254 231.286 335.763 231.319 335.154 231.319C334.795 231.319 334.424 231.315 334.043 231.308C333.669 231.301 333.306 231.29 332.954 231.275C332.749 231.348 332.587 231.4 332.47 231.429C332.36 231.458 332.257 231.473 332.162 231.473Z" fill="#FF9924"/>
<path d="M137.98 65.78C137.804 65.78 137.676 65.7213 137.595 65.604C137.514 65.4793 137.481 65.3253 137.496 65.142C137.503 65.0393 137.584 64.8927 137.738 64.702C137.892 64.504 138.094 64.273 138.343 64.009C138.592 63.7377 138.867 63.448 139.168 63.14C139.476 62.8247 139.791 62.5057 140.114 62.183C139.711 61.589 139.406 61.1123 139.201 60.753C139.003 60.3937 138.897 60.1113 138.882 59.906C138.867 59.6787 138.904 59.4953 138.992 59.356C139.087 59.2167 139.238 59.147 139.443 59.147C139.56 59.147 139.681 59.202 139.806 59.312C139.938 59.422 140.103 59.6237 140.301 59.917C140.506 60.2103 140.778 60.6247 141.115 61.16C141.621 60.654 142.035 60.2433 142.358 59.928C142.688 59.6053 142.952 59.356 143.15 59.18C143.355 59.004 143.513 58.883 143.623 58.817C143.74 58.751 143.839 58.718 143.92 58.718C144.096 58.718 144.221 58.7803 144.294 58.905C144.375 59.0223 144.408 59.1763 144.393 59.367C144.378 59.521 144.287 59.708 144.118 59.928C143.957 60.1407 143.748 60.3753 143.491 60.632C143.234 60.8813 142.956 61.1417 142.655 61.413C142.362 61.677 142.076 61.9373 141.797 62.194C142.252 62.8393 142.677 63.404 143.073 63.888C143.476 64.3647 143.803 64.7607 144.052 65.076C144.301 65.384 144.43 65.6113 144.437 65.758C144.452 65.912 144.411 66.033 144.316 66.121C144.228 66.209 144.1 66.253 143.931 66.253C143.836 66.253 143.718 66.22 143.579 66.154C143.44 66.088 143.253 65.9523 143.018 65.747C142.791 65.5417 142.497 65.2337 142.138 64.823C141.786 64.405 141.346 63.844 140.818 63.14C140.517 63.448 140.217 63.756 139.916 64.064C139.623 64.372 139.344 64.658 139.08 64.922C138.823 65.1787 138.596 65.3877 138.398 65.549C138.207 65.703 138.068 65.78 137.98 65.78ZM144.686 67.21C144.326 67.21 144.077 67.1403 143.938 67.001C143.791 66.869 143.718 66.7187 143.718 66.55C143.718 66.4473 143.762 66.3447 143.85 66.242C143.938 66.1467 144.106 66.055 144.356 65.967C144.598 65.879 144.946 65.8057 145.401 65.747C145.863 65.681 146.46 65.6297 147.194 65.593C147.934 65.5563 148.84 65.538 149.911 65.538C150.38 65.538 150.692 65.6003 150.846 65.725C151.007 65.8497 151.088 65.9963 151.088 66.165C151.088 66.2457 151.047 66.3337 150.967 66.429C150.893 66.5243 150.739 66.616 150.505 66.704C150.27 66.7993 149.918 66.8837 149.449 66.957C148.987 67.0377 148.367 67.1 147.59 67.144C146.82 67.188 145.852 67.21 144.686 67.21ZM154.27 66.847C154.146 66.847 154.032 66.8287 153.929 66.792C153.834 66.7627 153.753 66.7003 153.687 66.605C153.387 66.6563 153.09 66.6967 152.796 66.726C152.503 66.7553 152.228 66.77 151.971 66.77C151.751 66.77 151.579 66.715 151.454 66.605C151.33 66.5023 151.267 66.3557 151.267 66.165C151.267 66.055 151.33 65.9303 151.454 65.791C151.579 65.6517 151.81 65.5197 152.147 65.395C152.485 65.263 152.976 65.1603 153.621 65.087C153.673 64.7423 153.75 64.3353 153.852 63.866C153.955 63.3893 154.08 62.8833 154.226 62.348C154.373 61.8053 154.545 61.27 154.743 60.742C154.472 61.028 154.186 61.27 153.885 61.468C153.592 61.666 153.31 61.8163 153.038 61.919C152.774 62.0217 152.547 62.073 152.356 62.073C152.202 62.073 152.074 62.0473 151.971 61.996C151.876 61.9447 151.828 61.8493 151.828 61.71C151.828 61.534 151.913 61.3727 152.081 61.226C152.25 61.072 152.433 60.9217 152.631 60.775C152.932 60.5477 153.255 60.2763 153.599 59.961C153.951 59.6457 154.278 59.3083 154.578 58.949C154.886 58.5897 155.125 58.2377 155.293 57.893C155.374 57.739 155.462 57.618 155.557 57.53C155.653 57.4347 155.807 57.387 156.019 57.387C156.232 57.387 156.386 57.4823 156.481 57.673C156.577 57.8563 156.624 58.0763 156.624 58.333C156.624 58.4357 156.595 58.6483 156.536 58.971C156.478 59.2863 156.397 59.675 156.294 60.137C156.192 60.5917 156.078 61.094 155.953 61.644C155.829 62.1867 155.7 62.744 155.568 63.316C155.436 63.888 155.312 64.4417 155.194 64.977C155.436 64.9697 155.686 64.966 155.942 64.966C156.25 64.966 156.518 64.9917 156.745 65.043C156.973 65.0943 157.086 65.2043 157.086 65.373C157.086 65.549 157.009 65.681 156.855 65.769C156.709 65.8497 156.529 65.923 156.316 65.989C156.118 66.0477 155.895 66.11 155.645 66.176C155.396 66.2493 155.132 66.3153 154.853 66.374C154.78 66.5427 154.692 66.6637 154.589 66.737C154.487 66.8103 154.38 66.847 154.27 66.847Z" fill="#FF9924"/>
<path d="M158.596 81.025C158.185 81.025 157.811 80.9993 157.474 80.948C157.137 80.904 156.807 80.8307 156.484 80.728C156.161 80.6253 155.813 80.4897 155.439 80.321C155.285 80.2477 155.157 80.1707 155.054 80.09C154.951 80.0093 154.9 79.8883 154.9 79.727C154.9 79.4923 154.973 79.3127 155.12 79.188C155.259 79.0707 155.454 79.012 155.703 79.012C155.835 79.012 156.004 79.056 156.209 79.144C156.414 79.2393 156.649 79.3457 156.913 79.463C157.184 79.5877 157.485 79.694 157.815 79.782C158.145 79.8773 158.501 79.925 158.882 79.925C159.271 79.925 159.634 79.7637 159.971 79.441C160.308 79.1183 160.58 78.6637 160.785 78.077C160.998 77.4977 161.104 76.812 161.104 76.02C161.104 75.8367 161.1 75.6387 161.093 75.426C161.086 75.206 161.078 74.975 161.071 74.733C160.807 75.2317 160.521 75.6973 160.213 76.13C159.905 76.5627 159.586 76.9147 159.256 77.186C158.933 77.45 158.607 77.582 158.277 77.582C157.874 77.582 157.58 77.4867 157.397 77.296C157.221 77.098 157.133 76.7863 157.133 76.361C157.133 76.0017 157.159 75.6093 157.21 75.184C157.269 74.7513 157.346 74.315 157.441 73.875C157.536 73.435 157.646 73.017 157.771 72.621C157.903 72.2177 158.042 71.8693 158.189 71.576C158.299 71.3633 158.468 71.257 158.695 71.257C158.842 71.257 158.988 71.3267 159.135 71.466C159.289 71.6053 159.366 71.7923 159.366 72.027C159.366 72.159 159.333 72.3497 159.267 72.599C159.201 72.8483 159.12 73.1307 159.025 73.446C158.937 73.754 158.845 74.0803 158.75 74.425C158.655 74.7623 158.574 75.096 158.508 75.426C158.442 75.7487 158.409 76.042 158.409 76.306C158.409 76.3353 158.431 76.35 158.475 76.35C158.563 76.35 158.68 76.2767 158.827 76.13C158.981 75.976 159.15 75.778 159.333 75.536C159.524 75.2867 159.714 75.0153 159.905 74.722C160.103 74.4213 160.294 74.1243 160.477 73.831C160.66 73.5377 160.825 73.27 160.972 73.028C160.95 72.9107 160.935 72.808 160.928 72.72C160.928 72.6247 160.928 72.544 160.928 72.478C160.928 72.1773 160.979 71.928 161.082 71.73C161.192 71.532 161.405 71.433 161.72 71.433C161.925 71.433 162.083 71.51 162.193 71.664C162.303 71.8107 162.358 72.0197 162.358 72.291C162.358 72.4083 162.34 72.544 162.303 72.698C162.266 72.8447 162.193 73.0793 162.083 73.402L162.204 73.061C162.27 73.721 162.325 74.3077 162.369 74.821C162.42 75.3343 162.446 75.844 162.446 76.35C162.446 77.3033 162.285 78.1283 161.962 78.825C161.647 79.529 161.199 80.0717 160.62 80.453C160.048 80.8343 159.373 81.025 158.596 81.025ZM163.203 79.21C162.844 79.21 162.595 79.1403 162.455 79.001C162.309 78.869 162.235 78.7187 162.235 78.55C162.235 78.4473 162.279 78.3447 162.367 78.242C162.455 78.1467 162.624 78.055 162.873 77.967C163.115 77.879 163.464 77.8057 163.918 77.747C164.38 77.681 164.978 77.6297 165.711 77.593C166.452 77.5563 167.358 77.538 168.428 77.538C168.898 77.538 169.209 77.6003 169.363 77.725C169.525 77.8497 169.605 77.9963 169.605 78.165C169.605 78.2457 169.565 78.3337 169.484 78.429C169.411 78.5243 169.257 78.616 169.022 78.704C168.788 78.7993 168.436 78.8837 167.966 78.957C167.504 79.0377 166.885 79.1 166.107 79.144C165.337 79.188 164.369 79.21 163.203 79.21ZM172.788 78.847C172.663 78.847 172.55 78.8287 172.447 78.792C172.352 78.7627 172.271 78.7003 172.205 78.605C171.904 78.6563 171.607 78.6967 171.314 78.726C171.021 78.7553 170.746 78.77 170.489 78.77C170.269 78.77 170.097 78.715 169.972 78.605C169.847 78.5023 169.785 78.3557 169.785 78.165C169.785 78.055 169.847 77.9303 169.972 77.791C170.097 77.6517 170.328 77.5197 170.665 77.395C171.002 77.263 171.494 77.1603 172.139 77.087C172.19 76.7423 172.267 76.3353 172.37 75.866C172.473 75.3893 172.597 74.8833 172.744 74.348C172.891 73.8053 173.063 73.27 173.261 72.742C172.99 73.028 172.704 73.27 172.403 73.468C172.11 73.666 171.827 73.8163 171.556 73.919C171.292 74.0217 171.065 74.073 170.874 74.073C170.72 74.073 170.592 74.0473 170.489 73.996C170.394 73.9447 170.346 73.8493 170.346 73.71C170.346 73.534 170.43 73.3727 170.599 73.226C170.768 73.072 170.951 72.9217 171.149 72.775C171.45 72.5477 171.772 72.2763 172.117 71.961C172.469 71.6457 172.795 71.3083 173.096 70.949C173.404 70.5897 173.642 70.2377 173.811 69.893C173.892 69.739 173.98 69.618 174.075 69.53C174.17 69.4347 174.324 69.387 174.537 69.387C174.75 69.387 174.904 69.4823 174.999 69.673C175.094 69.8563 175.142 70.0763 175.142 70.333C175.142 70.4357 175.113 70.6483 175.054 70.971C174.995 71.2863 174.915 71.675 174.812 72.137C174.709 72.5917 174.596 73.094 174.471 73.644C174.346 74.1867 174.218 74.744 174.086 75.316C173.954 75.888 173.829 76.4417 173.712 76.977C173.954 76.9697 174.203 76.966 174.46 76.966C174.768 76.966 175.036 76.9917 175.263 77.043C175.49 77.0943 175.604 77.2043 175.604 77.373C175.604 77.549 175.527 77.681 175.373 77.769C175.226 77.8497 175.047 77.923 174.834 77.989C174.636 78.0477 174.412 78.11 174.163 78.176C173.914 78.2493 173.65 78.3153 173.371 78.374C173.298 78.5427 173.21 78.6637 173.107 78.737C173.004 78.8103 172.898 78.847 172.788 78.847Z" fill="#FF9924"/>
<path d="M319.98 148.78C319.804 148.78 319.676 148.721 319.595 148.604C319.514 148.479 319.481 148.325 319.496 148.142C319.503 148.039 319.584 147.893 319.738 147.702C319.892 147.504 320.094 147.273 320.343 147.009C320.592 146.738 320.867 146.448 321.168 146.14C321.476 145.825 321.791 145.506 322.114 145.183C321.711 144.589 321.406 144.112 321.201 143.753C321.003 143.394 320.897 143.111 320.882 142.906C320.867 142.679 320.904 142.495 320.992 142.356C321.087 142.217 321.238 142.147 321.443 142.147C321.56 142.147 321.681 142.202 321.806 142.312C321.938 142.422 322.103 142.624 322.301 142.917C322.506 143.21 322.778 143.625 323.115 144.16C323.621 143.654 324.035 143.243 324.358 142.928C324.688 142.605 324.952 142.356 325.15 142.18C325.355 142.004 325.513 141.883 325.623 141.817C325.74 141.751 325.839 141.718 325.92 141.718C326.096 141.718 326.221 141.78 326.294 141.905C326.375 142.022 326.408 142.176 326.393 142.367C326.378 142.521 326.287 142.708 326.118 142.928C325.957 143.141 325.748 143.375 325.491 143.632C325.234 143.881 324.956 144.142 324.655 144.413C324.362 144.677 324.076 144.937 323.797 145.194C324.252 145.839 324.677 146.404 325.073 146.888C325.476 147.365 325.803 147.761 326.052 148.076C326.301 148.384 326.43 148.611 326.437 148.758C326.452 148.912 326.411 149.033 326.316 149.121C326.228 149.209 326.1 149.253 325.931 149.253C325.836 149.253 325.718 149.22 325.579 149.154C325.44 149.088 325.253 148.952 325.018 148.747C324.791 148.542 324.497 148.234 324.138 147.823C323.786 147.405 323.346 146.844 322.818 146.14C322.517 146.448 322.217 146.756 321.916 147.064C321.623 147.372 321.344 147.658 321.08 147.922C320.823 148.179 320.596 148.388 320.398 148.549C320.207 148.703 320.068 148.78 319.98 148.78ZM326.686 150.21C326.326 150.21 326.077 150.14 325.938 150.001C325.791 149.869 325.718 149.719 325.718 149.55C325.718 149.447 325.762 149.345 325.85 149.242C325.938 149.147 326.106 149.055 326.356 148.967C326.598 148.879 326.946 148.806 327.401 148.747C327.863 148.681 328.46 148.63 329.194 148.593C329.934 148.556 330.84 148.538 331.911 148.538C332.38 148.538 332.692 148.6 332.846 148.725C333.007 148.85 333.088 148.996 333.088 149.165C333.088 149.246 333.047 149.334 332.967 149.429C332.893 149.524 332.739 149.616 332.505 149.704C332.27 149.799 331.918 149.884 331.449 149.957C330.987 150.038 330.367 150.1 329.59 150.144C328.82 150.188 327.852 150.21 326.686 150.21ZM334.345 149.473C333.979 149.473 333.718 149.385 333.564 149.209C333.418 149.04 333.344 148.864 333.344 148.681C333.344 148.52 333.381 148.369 333.454 148.23C333.535 148.083 333.674 147.966 333.872 147.878C334.07 147.79 334.353 147.753 334.719 147.768C335.086 147.577 335.456 147.343 335.83 147.064C336.212 146.785 336.575 146.477 336.919 146.14C337.271 145.803 337.583 145.458 337.854 145.106C338.133 144.747 338.349 144.395 338.503 144.05C338.665 143.698 338.745 143.368 338.745 143.06C338.745 142.73 338.643 142.481 338.437 142.312C338.239 142.143 337.961 142.059 337.601 142.059C337.293 142.059 337.011 142.096 336.754 142.169C336.498 142.235 336.27 142.316 336.072 142.411C335.874 142.506 335.706 142.591 335.566 142.664C335.434 142.73 335.328 142.763 335.247 142.763C335.108 142.763 334.983 142.704 334.873 142.587C334.763 142.462 334.73 142.301 334.774 142.103C334.804 141.971 334.892 141.813 335.038 141.63C335.185 141.447 335.387 141.263 335.643 141.08C335.9 140.897 336.204 140.746 336.556 140.629C336.916 140.504 337.319 140.442 337.766 140.442C338.485 140.442 339.068 140.662 339.515 141.102C339.97 141.542 340.197 142.213 340.197 143.115C340.197 143.709 340.04 144.292 339.724 144.864C339.416 145.436 339.006 145.979 338.492 146.492C337.979 147.005 337.418 147.475 336.809 147.9C337.359 147.878 337.788 147.845 338.096 147.801C338.404 147.75 338.65 147.706 338.833 147.669C339.024 147.632 339.207 147.614 339.383 147.614C339.633 147.614 339.827 147.665 339.966 147.768C340.106 147.871 340.175 148.017 340.175 148.208C340.175 148.347 340.139 148.483 340.065 148.615C339.999 148.747 339.867 148.868 339.669 148.978C339.471 149.081 339.185 149.161 338.811 149.22C338.437 149.286 337.946 149.319 337.337 149.319C336.978 149.319 336.608 149.315 336.226 149.308C335.852 149.301 335.489 149.29 335.137 149.275C334.932 149.348 334.771 149.4 334.653 149.429C334.543 149.458 334.441 149.473 334.345 149.473Z" fill="#FF9924"/>
<path d="M238.145 132.561C237.83 132.561 237.606 132.517 237.474 132.429C237.349 132.341 237.287 132.213 237.287 132.044C237.287 131.897 237.338 131.773 237.441 131.67C237.544 131.56 237.771 131.45 238.123 131.34C238.534 131.215 238.922 131.072 239.289 130.911C239.663 130.742 239.967 130.559 240.202 130.361C240.444 130.163 240.565 129.954 240.565 129.734C240.565 129.587 240.514 129.481 240.411 129.415C240.316 129.349 240.202 129.316 240.07 129.316C239.96 129.316 239.799 129.334 239.586 129.371C239.381 129.4 239.153 129.441 238.904 129.492C238.655 129.536 238.413 129.576 238.178 129.613C237.951 129.642 237.756 129.657 237.595 129.657C237.214 129.657 236.931 129.573 236.748 129.404C236.565 129.228 236.473 129.004 236.473 128.733C236.473 128.586 236.55 128.385 236.704 128.128C236.858 127.871 237.063 127.589 237.32 127.281C237.577 126.973 237.863 126.665 238.178 126.357C238.493 126.049 238.812 125.767 239.135 125.51C239.465 125.246 239.777 125.037 240.07 124.883C240.363 124.722 240.613 124.641 240.818 124.641C241.053 124.641 241.24 124.714 241.379 124.861C241.526 125.008 241.599 125.206 241.599 125.455C241.599 125.572 241.588 125.701 241.566 125.84C241.544 125.972 241.489 126.093 241.401 126.203C241.313 126.306 241.177 126.379 240.994 126.423C240.811 126.467 240.561 126.46 240.246 126.401C239.997 126.584 239.736 126.786 239.465 127.006C239.201 127.219 238.952 127.442 238.717 127.677C238.482 127.904 238.288 128.128 238.134 128.348C238.405 128.26 238.713 128.19 239.058 128.139C239.403 128.08 239.751 128.051 240.103 128.051C240.528 128.051 240.873 128.128 241.137 128.282C241.408 128.429 241.606 128.627 241.731 128.876C241.863 129.125 241.929 129.4 241.929 129.701C241.929 130.038 241.819 130.376 241.599 130.713C241.379 131.05 241.086 131.358 240.719 131.637C240.352 131.916 239.945 132.139 239.498 132.308C239.051 132.477 238.6 132.561 238.145 132.561ZM243.811 132.858C243.474 132.858 243.232 132.763 243.085 132.572C242.938 132.381 242.865 132.103 242.865 131.736C242.865 131.399 242.927 130.959 243.052 130.416C243.184 129.866 243.356 129.254 243.569 128.579C243.789 127.897 244.035 127.197 244.306 126.478C244.577 125.752 244.86 125.041 245.153 124.344C245.446 123.64 245.732 122.995 246.011 122.408C246.143 122.151 246.282 121.975 246.429 121.88C246.576 121.785 246.737 121.737 246.913 121.737C247.082 121.737 247.225 121.785 247.342 121.88C247.459 121.968 247.518 122.111 247.518 122.309C247.518 122.353 247.459 122.522 247.342 122.815C247.225 123.101 247.071 123.475 246.88 123.937C246.689 124.392 246.48 124.905 246.253 125.477C246.026 126.042 245.798 126.632 245.571 127.248C245.344 127.857 245.138 128.458 244.955 129.052C244.772 129.646 244.625 130.196 244.515 130.702C244.772 130.357 245.047 129.976 245.34 129.558C245.641 129.133 245.945 128.711 246.253 128.293C246.568 127.868 246.876 127.479 247.177 127.127C247.485 126.775 247.771 126.493 248.035 126.28C248.299 126.067 248.53 125.961 248.728 125.961C249.095 125.961 249.388 126.064 249.608 126.269C249.835 126.467 249.949 126.812 249.949 127.303C249.949 127.53 249.905 127.805 249.817 128.128C249.729 128.443 249.623 128.777 249.498 129.129C249.381 129.474 249.278 129.807 249.19 130.13C249.102 130.453 249.058 130.735 249.058 130.977C249.058 131.109 249.12 131.175 249.245 131.175C249.604 131.175 249.967 131.098 250.334 130.944C250.708 130.79 251.064 130.599 251.401 130.372C251.746 130.137 252.057 129.906 252.336 129.679C252.622 129.444 252.853 129.25 253.029 129.096C253.154 128.979 253.267 128.902 253.37 128.865C253.473 128.821 253.568 128.799 253.656 128.799C253.957 128.799 254.107 128.949 254.107 129.25C254.107 129.309 254.096 129.382 254.074 129.47C254.052 129.551 253.982 129.653 253.865 129.778C253.748 129.903 253.572 130.079 253.337 130.306C253.102 130.533 252.827 130.775 252.512 131.032C252.204 131.289 251.867 131.534 251.5 131.769C251.141 131.996 250.77 132.183 250.389 132.33C250.008 132.477 249.637 132.55 249.278 132.55C248.735 132.55 248.317 132.396 248.024 132.088C247.731 131.787 247.584 131.377 247.584 130.856C247.584 130.497 247.657 130.046 247.804 129.503C247.951 128.953 248.116 128.392 248.299 127.82C248.042 128.069 247.775 128.366 247.496 128.711C247.217 129.048 246.935 129.408 246.649 129.789C246.363 130.163 246.081 130.533 245.802 130.9C245.531 131.259 245.27 131.589 245.021 131.89C244.772 132.183 244.544 132.418 244.339 132.594C244.134 132.77 243.958 132.858 243.811 132.858ZM251.571 133.21C251.212 133.21 250.963 133.14 250.823 133.001C250.677 132.869 250.603 132.719 250.603 132.55C250.603 132.447 250.647 132.345 250.735 132.242C250.823 132.147 250.992 132.055 251.241 131.967C251.483 131.879 251.832 131.806 252.286 131.747C252.748 131.681 253.346 131.63 254.079 131.593C254.82 131.556 255.726 131.538 256.796 131.538C257.266 131.538 257.577 131.6 257.731 131.725C257.893 131.85 257.973 131.996 257.973 132.165C257.973 132.246 257.933 132.334 257.852 132.429C257.779 132.524 257.625 132.616 257.39 132.704C257.156 132.799 256.804 132.884 256.334 132.957C255.872 133.038 255.253 133.1 254.475 133.144C253.705 133.188 252.737 133.21 251.571 133.21ZM259.231 132.473C258.865 132.473 258.604 132.385 258.45 132.209C258.304 132.04 258.23 131.864 258.23 131.681C258.23 131.52 258.267 131.369 258.34 131.23C258.421 131.083 258.56 130.966 258.758 130.878C258.956 130.79 259.239 130.753 259.605 130.768C259.972 130.577 260.342 130.343 260.716 130.064C261.098 129.785 261.461 129.477 261.805 129.14C262.157 128.803 262.469 128.458 262.74 128.106C263.019 127.747 263.235 127.395 263.389 127.05C263.551 126.698 263.631 126.368 263.631 126.06C263.631 125.73 263.529 125.481 263.323 125.312C263.125 125.143 262.847 125.059 262.487 125.059C262.179 125.059 261.897 125.096 261.64 125.169C261.384 125.235 261.156 125.316 260.958 125.411C260.76 125.506 260.592 125.591 260.452 125.664C260.32 125.73 260.214 125.763 260.133 125.763C259.994 125.763 259.869 125.704 259.759 125.587C259.649 125.462 259.616 125.301 259.66 125.103C259.69 124.971 259.778 124.813 259.924 124.63C260.071 124.447 260.273 124.263 260.529 124.08C260.786 123.897 261.09 123.746 261.442 123.629C261.802 123.504 262.205 123.442 262.652 123.442C263.371 123.442 263.954 123.662 264.401 124.102C264.856 124.542 265.083 125.213 265.083 126.115C265.083 126.709 264.926 127.292 264.61 127.864C264.302 128.436 263.892 128.979 263.378 129.492C262.865 130.005 262.304 130.475 261.695 130.9C262.245 130.878 262.674 130.845 262.982 130.801C263.29 130.75 263.536 130.706 263.719 130.669C263.91 130.632 264.093 130.614 264.269 130.614C264.519 130.614 264.713 130.665 264.852 130.768C264.992 130.871 265.061 131.017 265.061 131.208C265.061 131.347 265.025 131.483 264.951 131.615C264.885 131.747 264.753 131.868 264.555 131.978C264.357 132.081 264.071 132.161 263.697 132.22C263.323 132.286 262.832 132.319 262.223 132.319C261.864 132.319 261.494 132.315 261.112 132.308C260.738 132.301 260.375 132.29 260.023 132.275C259.818 132.348 259.657 132.4 259.539 132.429C259.429 132.458 259.327 132.473 259.231 132.473Z" fill="#B200FF"/>
<path d="M58.145 43.561C57.8297 43.561 57.606 43.517 57.474 43.429C57.3493 43.341 57.287 43.2127 57.287 43.044C57.287 42.8973 57.3383 42.7727 57.441 42.67C57.5437 42.56 57.771 42.45 58.123 42.34C58.5337 42.2153 58.9223 42.0723 59.289 41.911C59.663 41.7423 59.9673 41.559 60.202 41.361C60.444 41.163 60.565 40.954 60.565 40.734C60.565 40.5873 60.5137 40.481 60.411 40.415C60.3157 40.349 60.202 40.316 60.07 40.316C59.96 40.316 59.7987 40.3343 59.586 40.371C59.3807 40.4003 59.1533 40.4407 58.904 40.492C58.6547 40.536 58.4127 40.5763 58.178 40.613C57.9507 40.6423 57.7563 40.657 57.595 40.657C57.2137 40.657 56.9313 40.5727 56.748 40.404C56.5647 40.228 56.473 40.0043 56.473 39.733C56.473 39.5863 56.55 39.3847 56.704 39.128C56.858 38.8713 57.0633 38.589 57.32 38.281C57.5767 37.973 57.8627 37.665 58.178 37.357C58.4933 37.049 58.8123 36.7667 59.135 36.51C59.465 36.246 59.7767 36.037 60.07 35.883C60.3633 35.7217 60.6127 35.641 60.818 35.641C61.0527 35.641 61.2397 35.7143 61.379 35.861C61.5257 36.0077 61.599 36.2057 61.599 36.455C61.599 36.5723 61.588 36.7007 61.566 36.84C61.544 36.972 61.489 37.093 61.401 37.203C61.313 37.3057 61.1773 37.379 60.994 37.423C60.8107 37.467 60.5613 37.4597 60.246 37.401C59.9967 37.5843 59.7363 37.786 59.465 38.006C59.201 38.2187 58.9517 38.4423 58.717 38.677C58.4823 38.9043 58.288 39.128 58.134 39.348C58.4053 39.26 58.7133 39.1903 59.058 39.139C59.4027 39.0803 59.751 39.051 60.103 39.051C60.5283 39.051 60.873 39.128 61.137 39.282C61.4083 39.4287 61.6063 39.6267 61.731 39.876C61.863 40.1253 61.929 40.4003 61.929 40.701C61.929 41.0383 61.819 41.3757 61.599 41.713C61.379 42.0503 61.0857 42.3583 60.719 42.637C60.3523 42.9157 59.9453 43.1393 59.498 43.308C59.0507 43.4767 58.5997 43.561 58.145 43.561ZM63.8109 43.858C63.4735 43.858 63.2315 43.7627 63.0849 43.572C62.9382 43.3813 62.8649 43.1027 62.8649 42.736C62.8649 42.3987 62.9272 41.9587 63.0519 41.416C63.1839 40.866 63.3562 40.2537 63.5689 39.579C63.7889 38.897 64.0345 38.1967 64.3059 37.478C64.5772 36.752 64.8595 36.0407 65.1529 35.344C65.4462 34.64 65.7322 33.9947 66.0109 33.408C66.1429 33.1513 66.2822 32.9753 66.4289 32.88C66.5755 32.7847 66.7369 32.737 66.9129 32.737C67.0815 32.737 67.2245 32.7847 67.3419 32.88C67.4592 32.968 67.5179 33.111 67.5179 33.309C67.5179 33.353 67.4592 33.5217 67.3419 33.815C67.2245 34.101 67.0705 34.475 66.8799 34.937C66.6892 35.3917 66.4802 35.905 66.2529 36.477C66.0255 37.0417 65.7982 37.632 65.5709 38.248C65.3435 38.8567 65.1382 39.458 64.9549 40.052C64.7715 40.646 64.6249 41.196 64.5149 41.702C64.7715 41.3573 65.0465 40.976 65.3399 40.558C65.6405 40.1327 65.9449 39.711 66.2529 39.293C66.5682 38.8677 66.8762 38.479 67.1769 38.127C67.4849 37.775 67.7709 37.4927 68.0349 37.28C68.2989 37.0673 68.5299 36.961 68.7279 36.961C69.0945 36.961 69.3879 37.0637 69.6079 37.269C69.8352 37.467 69.9489 37.8117 69.9489 38.303C69.9489 38.5303 69.9049 38.8053 69.8169 39.128C69.7289 39.4433 69.6225 39.777 69.4979 40.129C69.3805 40.4737 69.2779 40.8073 69.1899 41.13C69.1019 41.4527 69.0579 41.735 69.0579 41.977C69.0579 42.109 69.1202 42.175 69.2449 42.175C69.6042 42.175 69.9672 42.098 70.3339 41.944C70.7079 41.79 71.0635 41.5993 71.4009 41.372C71.7455 41.1373 72.0572 40.9063 72.3359 40.679C72.6219 40.4443 72.8529 40.25 73.0289 40.096C73.1535 39.9787 73.2672 39.9017 73.3699 39.865C73.4725 39.821 73.5679 39.799 73.6559 39.799C73.9565 39.799 74.1069 39.9493 74.1069 40.25C74.1069 40.3087 74.0959 40.382 74.0739 40.47C74.0519 40.5507 73.9822 40.6533 73.8649 40.778C73.7475 40.9027 73.5715 41.0787 73.3369 41.306C73.1022 41.5333 72.8272 41.7753 72.5119 42.032C72.2039 42.2887 71.8665 42.5343 71.4999 42.769C71.1405 42.9963 70.7702 43.1833 70.3889 43.33C70.0075 43.4767 69.6372 43.55 69.2779 43.55C68.7352 43.55 68.3172 43.396 68.0239 43.088C67.7305 42.7873 67.5839 42.3767 67.5839 41.856C67.5839 41.4967 67.6572 41.0457 67.8039 40.503C67.9505 39.953 68.1155 39.392 68.2989 38.82C68.0422 39.0693 67.7745 39.3663 67.4959 39.711C67.2172 40.0483 66.9349 40.4077 66.6489 40.789C66.3629 41.163 66.0805 41.5333 65.8019 41.9C65.5305 42.2593 65.2702 42.5893 65.0209 42.89C64.7715 43.1833 64.5442 43.418 64.3389 43.594C64.1335 43.77 63.9575 43.858 63.8109 43.858ZM71.5714 44.21C71.212 44.21 70.9627 44.1403 70.8234 44.001C70.6767 43.869 70.6034 43.7187 70.6034 43.55C70.6034 43.4473 70.6474 43.3447 70.7354 43.242C70.8234 43.1467 70.992 43.055 71.2414 42.967C71.4834 42.879 71.8317 42.8057 72.2864 42.747C72.7484 42.681 73.346 42.6297 74.0794 42.593C74.82 42.5563 75.7257 42.538 76.7964 42.538C77.2657 42.538 77.5774 42.6003 77.7314 42.725C77.8927 42.8497 77.9734 42.9963 77.9734 43.165C77.9734 43.2457 77.933 43.3337 77.8524 43.429C77.779 43.5243 77.625 43.616 77.3904 43.704C77.1557 43.7993 76.8037 43.8837 76.3344 43.957C75.8724 44.0377 75.2527 44.1 74.4754 44.144C73.7054 44.188 72.7374 44.21 71.5714 44.21ZM81.1562 43.847C81.0316 43.847 80.9179 43.8287 80.8152 43.792C80.7199 43.7627 80.6392 43.7003 80.5732 43.605C80.2726 43.6563 79.9756 43.6967 79.6822 43.726C79.3889 43.7553 79.1139 43.77 78.8572 43.77C78.6372 43.77 78.4649 43.715 78.3402 43.605C78.2156 43.5023 78.1532 43.3557 78.1532 43.165C78.1532 43.055 78.2156 42.9303 78.3402 42.791C78.4649 42.6517 78.6959 42.5197 79.0332 42.395C79.3706 42.263 79.8619 42.1603 80.5072 42.087C80.5586 41.7423 80.6356 41.3353 80.7382 40.866C80.8409 40.3893 80.9656 39.8833 81.1122 39.348C81.2589 38.8053 81.4312 38.27 81.6292 37.742C81.3579 38.028 81.0719 38.27 80.7712 38.468C80.4779 38.666 80.1956 38.8163 79.9242 38.919C79.6602 39.0217 79.4329 39.073 79.2422 39.073C79.0882 39.073 78.9599 39.0473 78.8572 38.996C78.7619 38.9447 78.7142 38.8493 78.7142 38.71C78.7142 38.534 78.7986 38.3727 78.9672 38.226C79.1359 38.072 79.3192 37.9217 79.5172 37.775C79.8179 37.5477 80.1406 37.2763 80.4852 36.961C80.8372 36.6457 81.1636 36.3083 81.4642 35.949C81.7722 35.5897 82.0106 35.2377 82.1792 34.893C82.2599 34.739 82.3479 34.618 82.4432 34.53C82.5386 34.4347 82.6926 34.387 82.9052 34.387C83.1179 34.387 83.2719 34.4823 83.3672 34.673C83.4626 34.8563 83.5102 35.0763 83.5102 35.333C83.5102 35.4357 83.4809 35.6483 83.4222 35.971C83.3636 36.2863 83.2829 36.675 83.1802 37.137C83.0776 37.5917 82.9639 38.094 82.8392 38.644C82.7146 39.1867 82.5862 39.744 82.4542 40.316C82.3222 40.888 82.1976 41.4417 82.0802 41.977C82.3222 41.9697 82.5716 41.966 82.8282 41.966C83.1362 41.966 83.4039 41.9917 83.6312 42.043C83.8586 42.0943 83.9722 42.2043 83.9722 42.373C83.9722 42.549 83.8952 42.681 83.7412 42.769C83.5946 42.8497 83.4149 42.923 83.2022 42.989C83.0042 43.0477 82.7806 43.11 82.5312 43.176C82.2819 43.2493 82.0179 43.3153 81.7392 43.374C81.6659 43.5427 81.5779 43.6637 81.4752 43.737C81.3726 43.8103 81.2662 43.847 81.1562 43.847Z" fill="#00C0FF"/>
<path d="M182.145 133.561C181.83 133.561 181.606 133.517 181.474 133.429C181.349 133.341 181.287 133.213 181.287 133.044C181.287 132.897 181.338 132.773 181.441 132.67C181.544 132.56 181.771 132.45 182.123 132.34C182.534 132.215 182.922 132.072 183.289 131.911C183.663 131.742 183.967 131.559 184.202 131.361C184.444 131.163 184.565 130.954 184.565 130.734C184.565 130.587 184.514 130.481 184.411 130.415C184.316 130.349 184.202 130.316 184.07 130.316C183.96 130.316 183.799 130.334 183.586 130.371C183.381 130.4 183.153 130.441 182.904 130.492C182.655 130.536 182.413 130.576 182.178 130.613C181.951 130.642 181.756 130.657 181.595 130.657C181.214 130.657 180.931 130.573 180.748 130.404C180.565 130.228 180.473 130.004 180.473 129.733C180.473 129.586 180.55 129.385 180.704 129.128C180.858 128.871 181.063 128.589 181.32 128.281C181.577 127.973 181.863 127.665 182.178 127.357C182.493 127.049 182.812 126.767 183.135 126.51C183.465 126.246 183.777 126.037 184.07 125.883C184.363 125.722 184.613 125.641 184.818 125.641C185.053 125.641 185.24 125.714 185.379 125.861C185.526 126.008 185.599 126.206 185.599 126.455C185.599 126.572 185.588 126.701 185.566 126.84C185.544 126.972 185.489 127.093 185.401 127.203C185.313 127.306 185.177 127.379 184.994 127.423C184.811 127.467 184.561 127.46 184.246 127.401C183.997 127.584 183.736 127.786 183.465 128.006C183.201 128.219 182.952 128.442 182.717 128.677C182.482 128.904 182.288 129.128 182.134 129.348C182.405 129.26 182.713 129.19 183.058 129.139C183.403 129.08 183.751 129.051 184.103 129.051C184.528 129.051 184.873 129.128 185.137 129.282C185.408 129.429 185.606 129.627 185.731 129.876C185.863 130.125 185.929 130.4 185.929 130.701C185.929 131.038 185.819 131.376 185.599 131.713C185.379 132.05 185.086 132.358 184.719 132.637C184.352 132.916 183.945 133.139 183.498 133.308C183.051 133.477 182.6 133.561 182.145 133.561ZM188.582 133.484C188.428 133.484 188.281 133.451 188.142 133.385C188.003 133.319 187.878 133.191 187.768 133C187.658 132.817 187.57 132.545 187.504 132.186C187.438 131.819 187.405 131.335 187.405 130.734C187.405 130.169 187.434 129.63 187.493 129.117C187.552 128.596 187.636 128.134 187.746 127.731C187.856 127.32 187.988 126.998 188.142 126.763C188.296 126.521 188.468 126.4 188.659 126.4C188.828 126.4 188.967 126.481 189.077 126.642C189.187 126.803 189.242 127.034 189.242 127.335C189.242 127.57 189.213 127.878 189.154 128.259C189.103 128.64 189.04 129.051 188.967 129.491C188.894 129.924 188.828 130.345 188.769 130.756C188.718 131.159 188.692 131.504 188.692 131.79C188.692 131.841 188.699 131.893 188.714 131.944C188.729 131.988 188.751 132.01 188.78 132.01C188.824 132.01 188.897 131.904 189 131.691C189.103 131.478 189.227 131.2 189.374 130.855C189.528 130.503 189.693 130.122 189.869 129.711C190.052 129.3 190.243 128.897 190.441 128.501C190.646 128.098 190.852 127.738 191.057 127.423C191.233 127.152 191.442 126.943 191.684 126.796C191.926 126.649 192.15 126.576 192.355 126.576C192.538 126.576 192.718 126.624 192.894 126.719C193.077 126.814 193.228 126.957 193.345 127.148C193.462 127.339 193.521 127.577 193.521 127.863C193.521 127.973 193.506 128.156 193.477 128.413C193.455 128.662 193.426 128.948 193.389 129.271C193.352 129.586 193.316 129.905 193.279 130.228C193.242 130.543 193.209 130.826 193.18 131.075C193.158 131.324 193.147 131.5 193.147 131.603C193.147 131.618 193.147 131.636 193.147 131.658C193.147 131.739 193.151 131.819 193.158 131.9C193.165 131.973 193.187 132.01 193.224 132.01C193.305 132.01 193.407 131.918 193.532 131.735C193.664 131.544 193.811 131.291 193.972 130.976C194.141 130.661 194.317 130.309 194.5 129.92C194.683 129.531 194.87 129.132 195.061 128.721C195.259 128.303 195.453 127.907 195.644 127.533C195.791 127.218 195.915 127.02 196.018 126.939C196.121 126.851 196.22 126.807 196.315 126.807C196.447 126.807 196.586 126.873 196.733 127.005C196.88 127.137 196.953 127.342 196.953 127.621C196.953 127.716 196.949 127.812 196.942 127.907C196.935 128.002 196.909 128.101 196.865 128.204C196.572 128.945 196.267 129.63 195.952 130.261C195.644 130.884 195.336 131.427 195.028 131.889C194.72 132.351 194.423 132.71 194.137 132.967C193.851 133.224 193.583 133.352 193.334 133.352C192.821 133.352 192.425 133.216 192.146 132.945C191.875 132.666 191.739 132.292 191.739 131.823C191.739 131.647 191.75 131.423 191.772 131.152C191.794 130.873 191.82 130.573 191.849 130.25C191.886 129.92 191.922 129.594 191.959 129.271C191.996 128.948 192.032 128.651 192.069 128.38C192.084 128.277 192.065 128.211 192.014 128.182C191.97 128.153 191.93 128.186 191.893 128.281C191.798 128.53 191.695 128.802 191.585 129.095C191.475 129.388 191.372 129.645 191.277 129.865C191.123 130.232 190.943 130.624 190.738 131.042C190.54 131.46 190.324 131.856 190.089 132.23C189.854 132.597 189.609 132.897 189.352 133.132C189.095 133.367 188.839 133.484 188.582 133.484ZM195.829 134.21C195.47 134.21 195.221 134.14 195.081 134.001C194.935 133.869 194.861 133.719 194.861 133.55C194.861 133.447 194.905 133.345 194.993 133.242C195.081 133.147 195.25 133.055 195.499 132.967C195.741 132.879 196.09 132.806 196.544 132.747C197.006 132.681 197.604 132.63 198.337 132.593C199.078 132.556 199.984 132.538 201.054 132.538C201.524 132.538 201.835 132.6 201.989 132.725C202.151 132.85 202.231 132.996 202.231 133.165C202.231 133.246 202.191 133.334 202.11 133.429C202.037 133.524 201.883 133.616 201.648 133.704C201.414 133.799 201.062 133.884 200.592 133.957C200.13 134.038 199.511 134.1 198.733 134.144C197.963 134.188 196.995 134.21 195.829 134.21ZM205.414 133.847C205.289 133.847 205.176 133.829 205.073 133.792C204.978 133.763 204.897 133.7 204.831 133.605C204.53 133.656 204.233 133.697 203.94 133.726C203.647 133.755 203.372 133.77 203.115 133.77C202.895 133.77 202.723 133.715 202.598 133.605C202.473 133.502 202.411 133.356 202.411 133.165C202.411 133.055 202.473 132.93 202.598 132.791C202.723 132.652 202.954 132.52 203.291 132.395C203.628 132.263 204.12 132.16 204.765 132.087C204.816 131.742 204.893 131.335 204.996 130.866C205.099 130.389 205.223 129.883 205.37 129.348C205.517 128.805 205.689 128.27 205.887 127.742C205.616 128.028 205.33 128.27 205.029 128.468C204.736 128.666 204.453 128.816 204.182 128.919C203.918 129.022 203.691 129.073 203.5 129.073C203.346 129.073 203.218 129.047 203.115 128.996C203.02 128.945 202.972 128.849 202.972 128.71C202.972 128.534 203.056 128.373 203.225 128.226C203.394 128.072 203.577 127.922 203.775 127.775C204.076 127.548 204.398 127.276 204.743 126.961C205.095 126.646 205.421 126.308 205.722 125.949C206.03 125.59 206.268 125.238 206.437 124.893C206.518 124.739 206.606 124.618 206.701 124.53C206.796 124.435 206.95 124.387 207.163 124.387C207.376 124.387 207.53 124.482 207.625 124.673C207.72 124.856 207.768 125.076 207.768 125.333C207.768 125.436 207.739 125.648 207.68 125.971C207.621 126.286 207.541 126.675 207.438 127.137C207.335 127.592 207.222 128.094 207.097 128.644C206.972 129.187 206.844 129.744 206.712 130.316C206.58 130.888 206.455 131.442 206.338 131.977C206.58 131.97 206.829 131.966 207.086 131.966C207.394 131.966 207.662 131.992 207.889 132.043C208.116 132.094 208.23 132.204 208.23 132.373C208.23 132.549 208.153 132.681 207.999 132.769C207.852 132.85 207.673 132.923 207.46 132.989C207.262 133.048 207.038 133.11 206.789 133.176C206.54 133.249 206.276 133.315 205.997 133.374C205.924 133.543 205.836 133.664 205.733 133.737C205.63 133.81 205.524 133.847 205.414 133.847Z" fill="#00C0FF"/>
<path d="M89.751 133.187C89.267 133.187 88.816 133.066 88.398 132.824C87.98 132.575 87.6427 132.208 87.386 131.724C87.1293 131.24 87.001 130.639 87.001 129.92C87.001 129.436 87.0853 128.974 87.254 128.534C87.4227 128.087 87.6133 127.691 87.826 127.346C87.7893 127.251 87.771 127.141 87.771 127.016C87.771 126.73 87.8517 126.448 88.013 126.169C88.1817 125.883 88.4017 125.623 88.673 125.388C88.9517 125.153 89.2633 124.966 89.608 124.827C89.9527 124.688 90.3047 124.618 90.664 124.618C91.2213 124.618 91.7127 124.757 92.138 125.036C92.5633 125.315 92.897 125.703 93.139 126.202C93.381 126.693 93.502 127.262 93.502 127.907C93.502 128.684 93.3993 129.396 93.194 130.041C92.996 130.686 92.721 131.244 92.369 131.713C92.0243 132.182 91.6247 132.545 91.17 132.802C90.7227 133.059 90.2497 133.187 89.751 133.187ZM89.817 126.345C89.8317 126.389 89.839 126.44 89.839 126.499C89.839 126.609 89.817 126.701 89.773 126.774C89.729 126.847 89.6703 126.928 89.597 127.016C89.5017 127.126 89.3917 127.295 89.267 127.522C89.1497 127.742 89.036 127.999 88.926 128.292C88.816 128.585 88.7243 128.89 88.651 129.205C88.585 129.513 88.552 129.806 88.552 130.085C88.552 130.576 88.6437 130.961 88.827 131.24C89.0103 131.519 89.2817 131.658 89.641 131.658C89.9417 131.658 90.2313 131.559 90.51 131.361C90.796 131.163 91.049 130.895 91.269 130.558C91.489 130.213 91.6613 129.821 91.786 129.381C91.918 128.941 91.984 128.475 91.984 127.984C91.984 127.632 91.9363 127.313 91.841 127.027C91.7457 126.741 91.61 126.514 91.434 126.345C91.258 126.176 91.049 126.092 90.807 126.092C90.609 126.092 90.4257 126.118 90.257 126.169C90.0957 126.213 89.949 126.272 89.817 126.345ZM94.263 136.685C93.603 136.861 93.273 136.747 93.273 136.344C93.273 136.131 93.3976 135.955 93.647 135.816C94.0136 135.589 94.3106 135.255 94.538 134.815C94.758 134.375 94.9303 133.876 95.055 133.319C95.187 132.762 95.2896 132.197 95.363 131.625C95.3996 131.39 95.4693 131.236 95.572 131.163C95.6746 131.082 95.7846 131.042 95.902 131.042C96.1293 131.042 96.342 131.134 96.54 131.317C96.738 131.493 96.837 131.786 96.837 132.197C96.837 132.754 96.7526 133.286 96.584 133.792C96.4226 134.298 96.21 134.753 95.946 135.156C95.6893 135.567 95.4106 135.904 95.11 136.168C94.8093 136.432 94.527 136.604 94.263 136.685ZM101.857 133.187C101.373 133.187 100.922 133.066 100.504 132.824C100.086 132.575 99.7491 132.208 99.4924 131.724C99.2358 131.24 99.1074 130.639 99.1074 129.92C99.1074 129.436 99.1918 128.974 99.3604 128.534C99.5291 128.087 99.7198 127.691 99.9324 127.346C99.8958 127.251 99.8774 127.141 99.8774 127.016C99.8774 126.73 99.9581 126.448 100.119 126.169C100.288 125.883 100.508 125.623 100.779 125.388C101.058 125.153 101.37 124.966 101.714 124.827C102.059 124.688 102.411 124.618 102.77 124.618C103.328 124.618 103.819 124.757 104.244 125.036C104.67 125.315 105.003 125.703 105.245 126.202C105.487 126.693 105.608 127.262 105.608 127.907C105.608 128.684 105.506 129.396 105.3 130.041C105.102 130.686 104.827 131.244 104.475 131.713C104.131 132.182 103.731 132.545 103.276 132.802C102.829 133.059 102.356 133.187 101.857 133.187ZM101.923 126.345C101.938 126.389 101.945 126.44 101.945 126.499C101.945 126.609 101.923 126.701 101.879 126.774C101.835 126.847 101.777 126.928 101.703 127.016C101.608 127.126 101.498 127.295 101.373 127.522C101.256 127.742 101.142 127.999 101.032 128.292C100.922 128.585 100.831 128.89 100.757 129.205C100.691 129.513 100.658 129.806 100.658 130.085C100.658 130.576 100.75 130.961 100.933 131.24C101.117 131.519 101.388 131.658 101.747 131.658C102.048 131.658 102.338 131.559 102.616 131.361C102.902 131.163 103.155 130.895 103.375 130.558C103.595 130.213 103.768 129.821 103.892 129.381C104.024 128.941 104.09 128.475 104.09 127.984C104.09 127.632 104.043 127.313 103.947 127.027C103.852 126.741 103.716 126.514 103.54 126.345C103.364 126.176 103.155 126.092 102.913 126.092C102.715 126.092 102.532 126.118 102.363 126.169C102.202 126.213 102.055 126.272 101.923 126.345Z" fill="#00C0FF"/>
<path d="M269.751 208.187C269.267 208.187 268.816 208.066 268.398 207.824C267.98 207.575 267.643 207.208 267.386 206.724C267.129 206.24 267.001 205.639 267.001 204.92C267.001 204.436 267.085 203.974 267.254 203.534C267.423 203.087 267.613 202.691 267.826 202.346C267.789 202.251 267.771 202.141 267.771 202.016C267.771 201.73 267.852 201.448 268.013 201.169C268.182 200.883 268.402 200.623 268.673 200.388C268.952 200.153 269.263 199.966 269.608 199.827C269.953 199.688 270.305 199.618 270.664 199.618C271.221 199.618 271.713 199.757 272.138 200.036C272.563 200.315 272.897 200.703 273.139 201.202C273.381 201.693 273.502 202.262 273.502 202.907C273.502 203.684 273.399 204.396 273.194 205.041C272.996 205.686 272.721 206.244 272.369 206.713C272.024 207.182 271.625 207.545 271.17 207.802C270.723 208.059 270.25 208.187 269.751 208.187ZM269.817 201.345C269.832 201.389 269.839 201.44 269.839 201.499C269.839 201.609 269.817 201.701 269.773 201.774C269.729 201.847 269.67 201.928 269.597 202.016C269.502 202.126 269.392 202.295 269.267 202.522C269.15 202.742 269.036 202.999 268.926 203.292C268.816 203.585 268.724 203.89 268.651 204.205C268.585 204.513 268.552 204.806 268.552 205.085C268.552 205.576 268.644 205.961 268.827 206.24C269.01 206.519 269.282 206.658 269.641 206.658C269.942 206.658 270.231 206.559 270.51 206.361C270.796 206.163 271.049 205.895 271.269 205.558C271.489 205.213 271.661 204.821 271.786 204.381C271.918 203.941 271.984 203.475 271.984 202.984C271.984 202.632 271.936 202.313 271.841 202.027C271.746 201.741 271.61 201.514 271.434 201.345C271.258 201.176 271.049 201.092 270.807 201.092C270.609 201.092 270.426 201.118 270.257 201.169C270.096 201.213 269.949 201.272 269.817 201.345ZM274.263 211.685C273.603 211.861 273.273 211.747 273.273 211.344C273.273 211.131 273.398 210.955 273.647 210.816C274.014 210.589 274.311 210.255 274.538 209.815C274.758 209.375 274.93 208.876 275.055 208.319C275.187 207.762 275.29 207.197 275.363 206.625C275.4 206.39 275.469 206.236 275.572 206.163C275.675 206.082 275.785 206.042 275.902 206.042C276.129 206.042 276.342 206.134 276.54 206.317C276.738 206.493 276.837 206.786 276.837 207.197C276.837 207.754 276.753 208.286 276.584 208.792C276.423 209.298 276.21 209.753 275.946 210.156C275.689 210.567 275.411 210.904 275.11 211.168C274.809 211.432 274.527 211.604 274.263 211.685ZM281.857 208.187C281.373 208.187 280.922 208.066 280.504 207.824C280.086 207.575 279.749 207.208 279.492 206.724C279.236 206.24 279.107 205.639 279.107 204.92C279.107 204.436 279.192 203.974 279.36 203.534C279.529 203.087 279.72 202.691 279.932 202.346C279.896 202.251 279.877 202.141 279.877 202.016C279.877 201.73 279.958 201.448 280.119 201.169C280.288 200.883 280.508 200.623 280.779 200.388C281.058 200.153 281.37 199.966 281.714 199.827C282.059 199.688 282.411 199.618 282.77 199.618C283.328 199.618 283.819 199.757 284.244 200.036C284.67 200.315 285.003 200.703 285.245 201.202C285.487 201.693 285.608 202.262 285.608 202.907C285.608 203.684 285.506 204.396 285.3 205.041C285.102 205.686 284.827 206.244 284.475 206.713C284.131 207.182 283.731 207.545 283.276 207.802C282.829 208.059 282.356 208.187 281.857 208.187ZM281.923 201.345C281.938 201.389 281.945 201.44 281.945 201.499C281.945 201.609 281.923 201.701 281.879 201.774C281.835 201.847 281.777 201.928 281.703 202.016C281.608 202.126 281.498 202.295 281.373 202.522C281.256 202.742 281.142 202.999 281.032 203.292C280.922 203.585 280.831 203.89 280.757 204.205C280.691 204.513 280.658 204.806 280.658 205.085C280.658 205.576 280.75 205.961 280.933 206.24C281.117 206.519 281.388 206.658 281.747 206.658C282.048 206.658 282.338 206.559 282.616 206.361C282.902 206.163 283.155 205.895 283.375 205.558C283.595 205.213 283.768 204.821 283.892 204.381C284.024 203.941 284.09 203.475 284.09 202.984C284.09 202.632 284.043 202.313 283.947 202.027C283.852 201.741 283.716 201.514 283.54 201.345C283.364 201.176 283.155 201.092 282.913 201.092C282.715 201.092 282.532 201.118 282.363 201.169C282.202 201.213 282.055 201.272 281.923 201.345Z" fill="#B200FF"/>
<path d="M361.145 208.561C360.83 208.561 360.606 208.517 360.474 208.429C360.349 208.341 360.287 208.213 360.287 208.044C360.287 207.897 360.338 207.773 360.441 207.67C360.544 207.56 360.771 207.45 361.123 207.34C361.534 207.215 361.922 207.072 362.289 206.911C362.663 206.742 362.967 206.559 363.202 206.361C363.444 206.163 363.565 205.954 363.565 205.734C363.565 205.587 363.514 205.481 363.411 205.415C363.316 205.349 363.202 205.316 363.07 205.316C362.96 205.316 362.799 205.334 362.586 205.371C362.381 205.4 362.153 205.441 361.904 205.492C361.655 205.536 361.413 205.576 361.178 205.613C360.951 205.642 360.756 205.657 360.595 205.657C360.214 205.657 359.931 205.573 359.748 205.404C359.565 205.228 359.473 205.004 359.473 204.733C359.473 204.586 359.55 204.385 359.704 204.128C359.858 203.871 360.063 203.589 360.32 203.281C360.577 202.973 360.863 202.665 361.178 202.357C361.493 202.049 361.812 201.767 362.135 201.51C362.465 201.246 362.777 201.037 363.07 200.883C363.363 200.722 363.613 200.641 363.818 200.641C364.053 200.641 364.24 200.714 364.379 200.861C364.526 201.008 364.599 201.206 364.599 201.455C364.599 201.572 364.588 201.701 364.566 201.84C364.544 201.972 364.489 202.093 364.401 202.203C364.313 202.306 364.177 202.379 363.994 202.423C363.811 202.467 363.561 202.46 363.246 202.401C362.997 202.584 362.736 202.786 362.465 203.006C362.201 203.219 361.952 203.442 361.717 203.677C361.482 203.904 361.288 204.128 361.134 204.348C361.405 204.26 361.713 204.19 362.058 204.139C362.403 204.08 362.751 204.051 363.103 204.051C363.528 204.051 363.873 204.128 364.137 204.282C364.408 204.429 364.606 204.627 364.731 204.876C364.863 205.125 364.929 205.4 364.929 205.701C364.929 206.038 364.819 206.376 364.599 206.713C364.379 207.05 364.086 207.358 363.719 207.637C363.352 207.916 362.945 208.139 362.498 208.308C362.051 208.477 361.6 208.561 361.145 208.561ZM367.582 208.484C367.428 208.484 367.281 208.451 367.142 208.385C367.003 208.319 366.878 208.191 366.768 208C366.658 207.817 366.57 207.545 366.504 207.186C366.438 206.819 366.405 206.335 366.405 205.734C366.405 205.169 366.434 204.63 366.493 204.117C366.552 203.596 366.636 203.134 366.746 202.731C366.856 202.32 366.988 201.998 367.142 201.763C367.296 201.521 367.468 201.4 367.659 201.4C367.828 201.4 367.967 201.481 368.077 201.642C368.187 201.803 368.242 202.034 368.242 202.335C368.242 202.57 368.213 202.878 368.154 203.259C368.103 203.64 368.04 204.051 367.967 204.491C367.894 204.924 367.828 205.345 367.769 205.756C367.718 206.159 367.692 206.504 367.692 206.79C367.692 206.841 367.699 206.893 367.714 206.944C367.729 206.988 367.751 207.01 367.78 207.01C367.824 207.01 367.897 206.904 368 206.691C368.103 206.478 368.227 206.2 368.374 205.855C368.528 205.503 368.693 205.122 368.869 204.711C369.052 204.3 369.243 203.897 369.441 203.501C369.646 203.098 369.852 202.738 370.057 202.423C370.233 202.152 370.442 201.943 370.684 201.796C370.926 201.649 371.15 201.576 371.355 201.576C371.538 201.576 371.718 201.624 371.894 201.719C372.077 201.814 372.228 201.957 372.345 202.148C372.462 202.339 372.521 202.577 372.521 202.863C372.521 202.973 372.506 203.156 372.477 203.413C372.455 203.662 372.426 203.948 372.389 204.271C372.352 204.586 372.316 204.905 372.279 205.228C372.242 205.543 372.209 205.826 372.18 206.075C372.158 206.324 372.147 206.5 372.147 206.603C372.147 206.618 372.147 206.636 372.147 206.658C372.147 206.739 372.151 206.819 372.158 206.9C372.165 206.973 372.187 207.01 372.224 207.01C372.305 207.01 372.407 206.918 372.532 206.735C372.664 206.544 372.811 206.291 372.972 205.976C373.141 205.661 373.317 205.309 373.5 204.92C373.683 204.531 373.87 204.132 374.061 203.721C374.259 203.303 374.453 202.907 374.644 202.533C374.791 202.218 374.915 202.02 375.018 201.939C375.121 201.851 375.22 201.807 375.315 201.807C375.447 201.807 375.586 201.873 375.733 202.005C375.88 202.137 375.953 202.342 375.953 202.621C375.953 202.716 375.949 202.812 375.942 202.907C375.935 203.002 375.909 203.101 375.865 203.204C375.572 203.945 375.267 204.63 374.952 205.261C374.644 205.884 374.336 206.427 374.028 206.889C373.72 207.351 373.423 207.71 373.137 207.967C372.851 208.224 372.583 208.352 372.334 208.352C371.821 208.352 371.425 208.216 371.146 207.945C370.875 207.666 370.739 207.292 370.739 206.823C370.739 206.647 370.75 206.423 370.772 206.152C370.794 205.873 370.82 205.573 370.849 205.25C370.886 204.92 370.922 204.594 370.959 204.271C370.996 203.948 371.032 203.651 371.069 203.38C371.084 203.277 371.065 203.211 371.014 203.182C370.97 203.153 370.93 203.186 370.893 203.281C370.798 203.53 370.695 203.802 370.585 204.095C370.475 204.388 370.372 204.645 370.277 204.865C370.123 205.232 369.943 205.624 369.738 206.042C369.54 206.46 369.324 206.856 369.089 207.23C368.854 207.597 368.609 207.897 368.352 208.132C368.095 208.367 367.839 208.484 367.582 208.484ZM374.829 209.21C374.47 209.21 374.221 209.14 374.081 209.001C373.935 208.869 373.861 208.719 373.861 208.55C373.861 208.447 373.905 208.345 373.993 208.242C374.081 208.147 374.25 208.055 374.499 207.967C374.741 207.879 375.09 207.806 375.544 207.747C376.006 207.681 376.604 207.63 377.337 207.593C378.078 207.556 378.984 207.538 380.054 207.538C380.524 207.538 380.835 207.6 380.989 207.725C381.151 207.85 381.231 207.996 381.231 208.165C381.231 208.246 381.191 208.334 381.11 208.429C381.037 208.524 380.883 208.616 380.648 208.704C380.414 208.799 380.062 208.884 379.592 208.957C379.13 209.038 378.511 209.1 377.733 209.144C376.963 209.188 375.995 209.21 374.829 209.21ZM382.489 208.473C382.122 208.473 381.862 208.385 381.708 208.209C381.561 208.04 381.488 207.864 381.488 207.681C381.488 207.52 381.525 207.369 381.598 207.23C381.679 207.083 381.818 206.966 382.016 206.878C382.214 206.79 382.496 206.753 382.863 206.768C383.23 206.577 383.6 206.343 383.974 206.064C384.355 205.785 384.718 205.477 385.063 205.14C385.415 204.803 385.727 204.458 385.998 204.106C386.277 203.747 386.493 203.395 386.647 203.05C386.808 202.698 386.889 202.368 386.889 202.06C386.889 201.73 386.786 201.481 386.581 201.312C386.383 201.143 386.104 201.059 385.745 201.059C385.437 201.059 385.155 201.096 384.898 201.169C384.641 201.235 384.414 201.316 384.216 201.411C384.018 201.506 383.849 201.591 383.71 201.664C383.578 201.73 383.472 201.763 383.391 201.763C383.252 201.763 383.127 201.704 383.017 201.587C382.907 201.462 382.874 201.301 382.918 201.103C382.947 200.971 383.035 200.813 383.182 200.63C383.329 200.447 383.53 200.263 383.787 200.08C384.044 199.897 384.348 199.746 384.7 199.629C385.059 199.504 385.463 199.442 385.91 199.442C386.629 199.442 387.212 199.662 387.659 200.102C388.114 200.542 388.341 201.213 388.341 202.115C388.341 202.709 388.183 203.292 387.868 203.864C387.56 204.436 387.149 204.979 386.636 205.492C386.123 206.005 385.562 206.475 384.953 206.9C385.503 206.878 385.932 206.845 386.24 206.801C386.548 206.75 386.794 206.706 386.977 206.669C387.168 206.632 387.351 206.614 387.527 206.614C387.776 206.614 387.971 206.665 388.11 206.768C388.249 206.871 388.319 207.017 388.319 207.208C388.319 207.347 388.282 207.483 388.209 207.615C388.143 207.747 388.011 207.868 387.813 207.978C387.615 208.081 387.329 208.161 386.955 208.22C386.581 208.286 386.09 208.319 385.481 208.319C385.122 208.319 384.751 208.315 384.37 208.308C383.996 208.301 383.633 208.29 383.281 208.275C383.076 208.348 382.914 208.4 382.797 208.429C382.687 208.458 382.584 208.473 382.489 208.473Z" fill="#B200FF"/>
<path d="M340.596 164.025C340.185 164.025 339.811 163.999 339.474 163.948C339.137 163.904 338.807 163.831 338.484 163.728C338.161 163.625 337.813 163.49 337.439 163.321C337.285 163.248 337.157 163.171 337.054 163.09C336.951 163.009 336.9 162.888 336.9 162.727C336.9 162.492 336.973 162.313 337.12 162.188C337.259 162.071 337.454 162.012 337.703 162.012C337.835 162.012 338.004 162.056 338.209 162.144C338.414 162.239 338.649 162.346 338.913 162.463C339.184 162.588 339.485 162.694 339.815 162.782C340.145 162.877 340.501 162.925 340.882 162.925C341.271 162.925 341.634 162.764 341.971 162.441C342.308 162.118 342.58 161.664 342.785 161.077C342.998 160.498 343.104 159.812 343.104 159.02C343.104 158.837 343.1 158.639 343.093 158.426C343.086 158.206 343.078 157.975 343.071 157.733C342.807 158.232 342.521 158.697 342.213 159.13C341.905 159.563 341.586 159.915 341.256 160.186C340.933 160.45 340.607 160.582 340.277 160.582C339.874 160.582 339.58 160.487 339.397 160.296C339.221 160.098 339.133 159.786 339.133 159.361C339.133 159.002 339.159 158.609 339.21 158.184C339.269 157.751 339.346 157.315 339.441 156.875C339.536 156.435 339.646 156.017 339.771 155.621C339.903 155.218 340.042 154.869 340.189 154.576C340.299 154.363 340.468 154.257 340.695 154.257C340.842 154.257 340.988 154.327 341.135 154.466C341.289 154.605 341.366 154.792 341.366 155.027C341.366 155.159 341.333 155.35 341.267 155.599C341.201 155.848 341.12 156.131 341.025 156.446C340.937 156.754 340.845 157.08 340.75 157.425C340.655 157.762 340.574 158.096 340.508 158.426C340.442 158.749 340.409 159.042 340.409 159.306C340.409 159.335 340.431 159.35 340.475 159.35C340.563 159.35 340.68 159.277 340.827 159.13C340.981 158.976 341.15 158.778 341.333 158.536C341.524 158.287 341.714 158.015 341.905 157.722C342.103 157.421 342.294 157.124 342.477 156.831C342.66 156.538 342.825 156.27 342.972 156.028C342.95 155.911 342.935 155.808 342.928 155.72C342.928 155.625 342.928 155.544 342.928 155.478C342.928 155.177 342.979 154.928 343.082 154.73C343.192 154.532 343.405 154.433 343.72 154.433C343.925 154.433 344.083 154.51 344.193 154.664C344.303 154.811 344.358 155.02 344.358 155.291C344.358 155.408 344.34 155.544 344.303 155.698C344.266 155.845 344.193 156.079 344.083 156.402L344.204 156.061C344.27 156.721 344.325 157.308 344.369 157.821C344.42 158.334 344.446 158.844 344.446 159.35C344.446 160.303 344.285 161.128 343.962 161.825C343.647 162.529 343.199 163.072 342.62 163.453C342.048 163.834 341.373 164.025 340.596 164.025ZM345.203 162.21C344.844 162.21 344.595 162.14 344.455 162.001C344.309 161.869 344.235 161.719 344.235 161.55C344.235 161.447 344.279 161.345 344.367 161.242C344.455 161.147 344.624 161.055 344.873 160.967C345.115 160.879 345.464 160.806 345.918 160.747C346.38 160.681 346.978 160.63 347.711 160.593C348.452 160.556 349.358 160.538 350.428 160.538C350.898 160.538 351.209 160.6 351.363 160.725C351.525 160.85 351.605 160.996 351.605 161.165C351.605 161.246 351.565 161.334 351.484 161.429C351.411 161.524 351.257 161.616 351.022 161.704C350.788 161.799 350.436 161.884 349.966 161.957C349.504 162.038 348.885 162.1 348.107 162.144C347.337 162.188 346.369 162.21 345.203 162.21ZM352.863 161.473C352.496 161.473 352.236 161.385 352.082 161.209C351.935 161.04 351.862 160.864 351.862 160.681C351.862 160.52 351.899 160.369 351.972 160.23C352.053 160.083 352.192 159.966 352.39 159.878C352.588 159.79 352.87 159.753 353.237 159.768C353.604 159.577 353.974 159.343 354.348 159.064C354.729 158.785 355.092 158.477 355.437 158.14C355.789 157.803 356.101 157.458 356.372 157.106C356.651 156.747 356.867 156.395 357.021 156.05C357.182 155.698 357.263 155.368 357.263 155.06C357.263 154.73 357.16 154.481 356.955 154.312C356.757 154.143 356.478 154.059 356.119 154.059C355.811 154.059 355.529 154.096 355.272 154.169C355.015 154.235 354.788 154.316 354.59 154.411C354.392 154.506 354.223 154.591 354.084 154.664C353.952 154.73 353.846 154.763 353.765 154.763C353.626 154.763 353.501 154.704 353.391 154.587C353.281 154.462 353.248 154.301 353.292 154.103C353.321 153.971 353.409 153.813 353.556 153.63C353.703 153.447 353.904 153.263 354.161 153.08C354.418 152.897 354.722 152.746 355.074 152.629C355.433 152.504 355.837 152.442 356.284 152.442C357.003 152.442 357.586 152.662 358.033 153.102C358.488 153.542 358.715 154.213 358.715 155.115C358.715 155.709 358.557 156.292 358.242 156.864C357.934 157.436 357.523 157.979 357.01 158.492C356.497 159.005 355.936 159.475 355.327 159.9C355.877 159.878 356.306 159.845 356.614 159.801C356.922 159.75 357.168 159.706 357.351 159.669C357.542 159.632 357.725 159.614 357.901 159.614C358.15 159.614 358.345 159.665 358.484 159.768C358.623 159.871 358.693 160.017 358.693 160.208C358.693 160.347 358.656 160.483 358.583 160.615C358.517 160.747 358.385 160.868 358.187 160.978C357.989 161.081 357.703 161.161 357.329 161.22C356.955 161.286 356.464 161.319 355.855 161.319C355.496 161.319 355.125 161.315 354.744 161.308C354.37 161.301 354.007 161.29 353.655 161.275C353.45 161.348 353.288 161.4 353.171 161.429C353.061 161.458 352.958 161.473 352.863 161.473Z" fill="#FF9924"/>
<path d="M26.43 78.858C26.0927 78.858 25.8507 78.7627 25.704 78.572C25.5573 78.3813 25.484 78.1027 25.484 77.736C25.484 77.3987 25.5463 76.9587 25.671 76.416C25.803 75.866 25.9753 75.2537 26.188 74.579C26.408 73.897 26.6537 73.1967 26.925 72.478C27.1963 71.752 27.4787 71.0407 27.772 70.344C28.0653 69.64 28.3513 68.9947 28.63 68.408C28.762 68.1513 28.9013 67.9753 29.048 67.88C29.1947 67.7847 29.356 67.737 29.532 67.737C29.7007 67.737 29.8437 67.7847 29.961 67.88C30.0783 67.968 30.137 68.111 30.137 68.309C30.137 68.353 30.0783 68.5217 29.961 68.815C29.8437 69.101 29.6897 69.475 29.499 69.937C29.3083 70.3917 29.0993 70.905 28.872 71.477C28.6447 72.0417 28.4173 72.632 28.19 73.248C27.9627 73.8567 27.7573 74.458 27.574 75.052C27.3907 75.646 27.244 76.196 27.134 76.702C27.3907 76.3573 27.6657 75.976 27.959 75.558C28.2597 75.1327 28.564 74.711 28.872 74.293C29.1873 73.8677 29.4953 73.479 29.796 73.127C30.104 72.775 30.39 72.4927 30.654 72.28C30.918 72.0673 31.149 71.961 31.347 71.961C31.7137 71.961 32.007 72.0637 32.227 72.269C32.4543 72.467 32.568 72.8117 32.568 73.303C32.568 73.5303 32.524 73.8053 32.436 74.128C32.348 74.4433 32.2417 74.777 32.117 75.129C31.9997 75.4737 31.897 75.8073 31.809 76.13C31.721 76.4527 31.677 76.735 31.677 76.977C31.677 77.109 31.7393 77.175 31.864 77.175C32.2233 77.175 32.5863 77.098 32.953 76.944C33.327 76.79 33.6827 76.5993 34.02 76.372C34.3647 76.1373 34.6763 75.9063 34.955 75.679C35.241 75.4443 35.472 75.25 35.648 75.096C35.7727 74.9787 35.8863 74.9017 35.989 74.865C36.0917 74.821 36.187 74.799 36.275 74.799C36.5757 74.799 36.726 74.9493 36.726 75.25C36.726 75.3087 36.715 75.382 36.693 75.47C36.671 75.5507 36.6013 75.6533 36.484 75.778C36.3667 75.9027 36.1907 76.0787 35.956 76.306C35.7213 76.5333 35.4463 76.7753 35.131 77.032C34.823 77.2887 34.4857 77.5343 34.119 77.769C33.7597 77.9963 33.3893 78.1833 33.008 78.33C32.6267 78.4767 32.2563 78.55 31.897 78.55C31.3543 78.55 30.9363 78.396 30.643 78.088C30.3497 77.7873 30.203 77.3767 30.203 76.856C30.203 76.4967 30.2763 76.0457 30.423 75.503C30.5697 74.953 30.7347 74.392 30.918 73.82C30.6613 74.0693 30.3937 74.3663 30.115 74.711C29.8363 75.0483 29.554 75.4077 29.268 75.789C28.982 76.163 28.6997 76.5333 28.421 76.9C28.1497 77.2593 27.8893 77.5893 27.64 77.89C27.3907 78.1833 27.1633 78.418 26.958 78.594C26.7527 78.77 26.5767 78.858 26.43 78.858ZM34.1905 79.21C33.8312 79.21 33.5818 79.1403 33.4425 79.001C33.2958 78.869 33.2225 78.7187 33.2225 78.55C33.2225 78.4473 33.2665 78.3447 33.3545 78.242C33.4425 78.1467 33.6112 78.055 33.8605 77.967C34.1025 77.879 34.4508 77.8057 34.9055 77.747C35.3675 77.681 35.9652 77.6297 36.6985 77.593C37.4392 77.5563 38.3448 77.538 39.4155 77.538C39.8848 77.538 40.1965 77.6003 40.3505 77.725C40.5118 77.8497 40.5925 77.9963 40.5925 78.165C40.5925 78.2457 40.5522 78.3337 40.4715 78.429C40.3982 78.5243 40.2442 78.616 40.0095 78.704C39.7748 78.7993 39.4228 78.8837 38.9535 78.957C38.4915 79.0377 37.8718 79.1 37.0945 79.144C36.3245 79.188 35.3565 79.21 34.1905 79.21ZM43.7754 78.847C43.6507 78.847 43.537 78.8287 43.4344 78.792C43.339 78.7627 43.2584 78.7003 43.1924 78.605C42.8917 78.6563 42.5947 78.6967 42.3014 78.726C42.008 78.7553 41.733 78.77 41.4764 78.77C41.2564 78.77 41.084 78.715 40.9594 78.605C40.8347 78.5023 40.7724 78.3557 40.7724 78.165C40.7724 78.055 40.8347 77.9303 40.9594 77.791C41.084 77.6517 41.315 77.5197 41.6524 77.395C41.9897 77.263 42.481 77.1603 43.1264 77.087C43.1777 76.7423 43.2547 76.3353 43.3574 75.866C43.46 75.3893 43.5847 74.8833 43.7314 74.348C43.878 73.8053 44.0504 73.27 44.2484 72.742C43.977 73.028 43.691 73.27 43.3904 73.468C43.097 73.666 42.8147 73.8163 42.5434 73.919C42.2794 74.0217 42.052 74.073 41.8614 74.073C41.7074 74.073 41.579 74.0473 41.4764 73.996C41.381 73.9447 41.3334 73.8493 41.3334 73.71C41.3334 73.534 41.4177 73.3727 41.5864 73.226C41.755 73.072 41.9384 72.9217 42.1364 72.775C42.437 72.5477 42.7597 72.2763 43.1044 71.961C43.4564 71.6457 43.7827 71.3083 44.0834 70.949C44.3914 70.5897 44.6297 70.2377 44.7984 69.893C44.879 69.739 44.967 69.618 45.0624 69.53C45.1577 69.4347 45.3117 69.387 45.5244 69.387C45.737 69.387 45.891 69.4823 45.9864 69.673C46.0817 69.8563 46.1294 70.0763 46.1294 70.333C46.1294 70.4357 46.1 70.6483 46.0414 70.971C45.9827 71.2863 45.902 71.675 45.7994 72.137C45.6967 72.5917 45.583 73.094 45.4584 73.644C45.3337 74.1867 45.2054 74.744 45.0734 75.316C44.9414 75.888 44.8167 76.4417 44.6994 76.977C44.9414 76.9697 45.1907 76.966 45.4474 76.966C45.7554 76.966 46.023 76.9917 46.2504 77.043C46.4777 77.0943 46.5914 77.2043 46.5914 77.373C46.5914 77.549 46.5144 77.681 46.3604 77.769C46.2137 77.8497 46.034 77.923 45.8214 77.989C45.6234 78.0477 45.3997 78.11 45.1504 78.176C44.901 78.2493 44.637 78.3153 44.3584 78.374C44.285 78.5427 44.197 78.6637 44.0944 78.737C43.9917 78.8103 43.8854 78.847 43.7754 78.847Z" fill="#FF9924"/>
<path d="M409.43 161.858C409.093 161.858 408.851 161.763 408.704 161.572C408.557 161.381 408.484 161.103 408.484 160.736C408.484 160.399 408.546 159.959 408.671 159.416C408.803 158.866 408.975 158.254 409.188 157.579C409.408 156.897 409.654 156.197 409.925 155.478C410.196 154.752 410.479 154.041 410.772 153.344C411.065 152.64 411.351 151.995 411.63 151.408C411.762 151.151 411.901 150.975 412.048 150.88C412.195 150.785 412.356 150.737 412.532 150.737C412.701 150.737 412.844 150.785 412.961 150.88C413.078 150.968 413.137 151.111 413.137 151.309C413.137 151.353 413.078 151.522 412.961 151.815C412.844 152.101 412.69 152.475 412.499 152.937C412.308 153.392 412.099 153.905 411.872 154.477C411.645 155.042 411.417 155.632 411.19 156.248C410.963 156.857 410.757 157.458 410.574 158.052C410.391 158.646 410.244 159.196 410.134 159.702C410.391 159.357 410.666 158.976 410.959 158.558C411.26 158.133 411.564 157.711 411.872 157.293C412.187 156.868 412.495 156.479 412.796 156.127C413.104 155.775 413.39 155.493 413.654 155.28C413.918 155.067 414.149 154.961 414.347 154.961C414.714 154.961 415.007 155.064 415.227 155.269C415.454 155.467 415.568 155.812 415.568 156.303C415.568 156.53 415.524 156.805 415.436 157.128C415.348 157.443 415.242 157.777 415.117 158.129C415 158.474 414.897 158.807 414.809 159.13C414.721 159.453 414.677 159.735 414.677 159.977C414.677 160.109 414.739 160.175 414.864 160.175C415.223 160.175 415.586 160.098 415.953 159.944C416.327 159.79 416.683 159.599 417.02 159.372C417.365 159.137 417.676 158.906 417.955 158.679C418.241 158.444 418.472 158.25 418.648 158.096C418.773 157.979 418.886 157.902 418.989 157.865C419.092 157.821 419.187 157.799 419.275 157.799C419.576 157.799 419.726 157.949 419.726 158.25C419.726 158.309 419.715 158.382 419.693 158.47C419.671 158.551 419.601 158.653 419.484 158.778C419.367 158.903 419.191 159.079 418.956 159.306C418.721 159.533 418.446 159.775 418.131 160.032C417.823 160.289 417.486 160.534 417.119 160.769C416.76 160.996 416.389 161.183 416.008 161.33C415.627 161.477 415.256 161.55 414.897 161.55C414.354 161.55 413.936 161.396 413.643 161.088C413.35 160.787 413.203 160.377 413.203 159.856C413.203 159.497 413.276 159.046 413.423 158.503C413.57 157.953 413.735 157.392 413.918 156.82C413.661 157.069 413.394 157.366 413.115 157.711C412.836 158.048 412.554 158.408 412.268 158.789C411.982 159.163 411.7 159.533 411.421 159.9C411.15 160.259 410.889 160.589 410.64 160.89C410.391 161.183 410.163 161.418 409.958 161.594C409.753 161.77 409.577 161.858 409.43 161.858ZM417.191 162.21C416.831 162.21 416.582 162.14 416.442 162.001C416.296 161.869 416.222 161.719 416.222 161.55C416.222 161.447 416.266 161.345 416.354 161.242C416.442 161.147 416.611 161.055 416.86 160.967C417.103 160.879 417.451 160.806 417.906 160.747C418.368 160.681 418.965 160.63 419.699 160.593C420.439 160.556 421.345 160.538 422.416 160.538C422.885 160.538 423.197 160.6 423.351 160.725C423.512 160.85 423.593 160.996 423.593 161.165C423.593 161.246 423.552 161.334 423.472 161.429C423.398 161.524 423.244 161.616 423.01 161.704C422.775 161.799 422.423 161.884 421.954 161.957C421.492 162.038 420.872 162.1 420.095 162.144C419.325 162.188 418.357 162.21 417.191 162.21ZM424.85 161.473C424.484 161.473 424.223 161.385 424.069 161.209C423.923 161.04 423.849 160.864 423.849 160.681C423.849 160.52 423.886 160.369 423.959 160.23C424.04 160.083 424.179 159.966 424.377 159.878C424.575 159.79 424.858 159.753 425.224 159.768C425.591 159.577 425.961 159.343 426.335 159.064C426.717 158.785 427.08 158.477 427.424 158.14C427.776 157.803 428.088 157.458 428.359 157.106C428.638 156.747 428.854 156.395 429.008 156.05C429.17 155.698 429.25 155.368 429.25 155.06C429.25 154.73 429.148 154.481 428.942 154.312C428.744 154.143 428.466 154.059 428.106 154.059C427.798 154.059 427.516 154.096 427.259 154.169C427.003 154.235 426.775 154.316 426.577 154.411C426.379 154.506 426.211 154.591 426.071 154.664C425.939 154.73 425.833 154.763 425.752 154.763C425.613 154.763 425.488 154.704 425.378 154.587C425.268 154.462 425.235 154.301 425.279 154.103C425.309 153.971 425.397 153.813 425.543 153.63C425.69 153.447 425.892 153.263 426.148 153.08C426.405 152.897 426.709 152.746 427.061 152.629C427.421 152.504 427.824 152.442 428.271 152.442C428.99 152.442 429.573 152.662 430.02 153.102C430.475 153.542 430.702 154.213 430.702 155.115C430.702 155.709 430.545 156.292 430.229 156.864C429.921 157.436 429.511 157.979 428.997 158.492C428.484 159.005 427.923 159.475 427.314 159.9C427.864 159.878 428.293 159.845 428.601 159.801C428.909 159.75 429.155 159.706 429.338 159.669C429.529 159.632 429.712 159.614 429.888 159.614C430.138 159.614 430.332 159.665 430.471 159.768C430.611 159.871 430.68 160.017 430.68 160.208C430.68 160.347 430.644 160.483 430.57 160.615C430.504 160.747 430.372 160.868 430.174 160.978C429.976 161.081 429.69 161.161 429.316 161.22C428.942 161.286 428.451 161.319 427.842 161.319C427.483 161.319 427.113 161.315 426.731 161.308C426.357 161.301 425.994 161.29 425.642 161.275C425.437 161.348 425.276 161.4 425.158 161.429C425.048 161.458 424.946 161.473 424.85 161.473Z" fill="#FF9924"/>
</svg>
