<?xml version="1.0" encoding="UTF-8" standalone="no"?>
<!DOCTYPE svg PUBLIC "-//W3C//DTD SVG 1.1//EN"
 "http://www.w3.org/Graphics/SVG/1.1/DTD/svg11.dtd">
<!-- Generated by graphviz version 2.42.4 (0)
 -->
<!-- Pages: 1 -->
<svg width="704pt" height="476pt"
 viewBox="0.00 0.00 704.00 476.00" xmlns="http://www.w3.org/2000/svg" xmlns:xlink="http://www.w3.org/1999/xlink">
<g id="graph0" class="graph" transform="scale(1 1) rotate(0) translate(4 472)">
<polygon fill="white" stroke="transparent" points="-4,4 -4,-472 700,-472 700,4 -4,4"/>
<!-- GAME_STATE_STARTED -->
<g id="node1" class="node">
<title>GAME_STATE_STARTED</title>
<path fill="#f0f0f0" stroke="black" d="M684,-468C684,-468 519,-468 519,-468 513,-468 507,-462 507,-456 507,-456 507,-444 507,-444 507,-438 513,-432 519,-432 519,-432 684,-432 684,-432 690,-432 696,-438 696,-444 696,-444 696,-456 696,-456 696,-462 690,-468 684,-468"/>
<text text-anchor="middle" x="601.5" y="-446.3" font-family="Times,serif" font-size="14.00">GAME_STATE_STARTED</text>
</g>
<!-- GAME_STATE_SPLASH_SCREEN -->
<g id="node2" class="node">
<title>GAME_STATE_SPLASH_SCREEN</title>
<path fill="#f0f0f0" stroke="black" d="M638,-360C638,-360 411,-360 411,-360 405,-360 399,-354 399,-348 399,-348 399,-336 399,-336 399,-330 405,-324 411,-324 411,-324 638,-324 638,-324 644,-324 650,-330 650,-336 650,-336 650,-348 650,-348 650,-354 644,-360 638,-360"/>
<text text-anchor="middle" x="524.5" y="-338.3" font-family="Times,serif" font-size="14.00">GAME_STATE_SPLASH_SCREEN</text>
</g>
<!-- GAME_STATE_STARTED&#45;&gt;GAME_STATE_SPLASH_SCREEN -->
<g id="edge1" class="edge">
<title>GAME_STATE_STARTED&#45;&gt;GAME_STATE_SPLASH_SCREEN</title>
<path fill="none" stroke="black" d="M589.13,-431.97C576.69,-414.84 557.35,-388.22 543.07,-368.56"/>
<polygon fill="black" stroke="black" points="545.81,-366.37 537.1,-360.34 540.14,-370.49 545.81,-366.37"/>
</g>
<!-- GAME_STATE_QUIT -->
<g id="node6" class="node">
<title>GAME_STATE_QUIT</title>
<path fill="#f0f0f0" stroke="black" d="M669.5,-36C669.5,-36 535.5,-36 535.5,-36 529.5,-36 523.5,-30 523.5,-24 523.5,-24 523.5,-12 523.5,-12 523.5,-6 529.5,0 535.5,0 535.5,0 669.5,0 669.5,0 675.5,0 681.5,-6 681.5,-12 681.5,-12 681.5,-24 681.5,-24 681.5,-30 675.5,-36 669.5,-36"/>
<text text-anchor="middle" x="602.5" y="-14.3" font-family="Times,serif" font-size="14.00">GAME_STATE_QUIT</text>
</g>
<!-- GAME_STATE_STARTED&#45;&gt;GAME_STATE_QUIT -->
<g id="edge2" class="edge">
<title>GAME_STATE_STARTED&#45;&gt;GAME_STATE_QUIT</title>
<path fill="none" stroke="black" d="M616.85,-431.77C630.8,-414.86 650.41,-387.65 658.5,-360 692.04,-245.43 639.61,-102.94 614.59,-45.16"/>
<polygon fill="black" stroke="black" points="617.78,-43.73 610.54,-36 611.38,-46.56 617.78,-43.73"/>
</g>
<!-- GAME_STATE_PLAYING -->
<g id="node3" class="node">
<title>GAME_STATE_PLAYING</title>
<path fill="#f0f0f0" stroke="black" d="M542.5,-252C542.5,-252 380.5,-252 380.5,-252 374.5,-252 368.5,-246 368.5,-240 368.5,-240 368.5,-228 368.5,-228 368.5,-222 374.5,-216 380.5,-216 380.5,-216 542.5,-216 542.5,-216 548.5,-216 554.5,-222 554.5,-228 554.5,-228 554.5,-240 554.5,-240 554.5,-246 548.5,-252 542.5,-252"/>
<text text-anchor="middle" x="461.5" y="-230.3" font-family="Times,serif" font-size="14.00">GAME_STATE_PLAYING</text>
</g>
<!-- GAME_STATE_SPLASH_SCREEN&#45;&gt;GAME_STATE_PLAYING -->
<g id="edge3" class="edge">
<title>GAME_STATE_SPLASH_SCREEN&#45;&gt;GAME_STATE_PLAYING</title>
<path fill="none" stroke="black" d="M514.38,-323.97C504.29,-306.99 488.66,-280.7 477.01,-261.09"/>
<polygon fill="black" stroke="black" points="479.92,-259.15 471.81,-252.34 473.91,-262.73 479.92,-259.15"/>
</g>
<!-- GAME_STATE_SPLASH_SCREEN&#45;&gt;GAME_STATE_QUIT -->
<g id="edge4" class="edge">
<title>GAME_STATE_SPLASH_SCREEN&#45;&gt;GAME_STATE_QUIT</title>
<path fill="none" stroke="black" d="M532.38,-323.71C540.45,-305.86 553.23,-277.14 563.5,-252 582.92,-204.47 595.24,-194.5 604.5,-144 607.39,-128.26 604.68,-124 604.5,-108 604.27,-87.27 603.73,-63.82 603.27,-46.2"/>
<polygon fill="black" stroke="black" points="606.76,-45.96 603,-36.06 599.77,-46.15 606.76,-45.96"/>
</g>
<!-- GAME_STATE_LEVEL_COMPLETE_SCREEN -->
<g id="node4" class="node">
<title>GAME_STATE_LEVEL_COMPLETE_SCREEN</title>
<path fill="#f0f0f0" stroke="black" d="M319,-144C319,-144 12,-144 12,-144 6,-144 0,-138 0,-132 0,-132 0,-120 0,-120 0,-114 6,-108 12,-108 12,-108 319,-108 319,-108 325,-108 331,-114 331,-120 331,-120 331,-132 331,-132 331,-138 325,-144 319,-144"/>
<text text-anchor="middle" x="165.5" y="-122.3" font-family="Times,serif" font-size="14.00">GAME_STATE_LEVEL_COMPLETE_SCREEN</text>
</g>
<!-- GAME_STATE_PLAYING&#45;&gt;GAME_STATE_LEVEL_COMPLETE_SCREEN -->
<g id="edge5" class="edge">
<title>GAME_STATE_PLAYING&#45;&gt;GAME_STATE_LEVEL_COMPLETE_SCREEN</title>
<path fill="none" stroke="black" d="M408.83,-215.97C354.93,-197.4 271.83,-167.69 218,-147.76"/>
<polygon fill="black" stroke="black" points="218.89,-144.36 208.3,-144.16 216.46,-150.93 218.89,-144.36"/>
</g>
<!-- GAME_STATE_END_SCREEN -->
<g id="node5" class="node">
<title>GAME_STATE_END_SCREEN</title>
<path fill="#f0f0f0" stroke="black" d="M562,-144C562,-144 361,-144 361,-144 355,-144 349,-138 349,-132 349,-132 349,-120 349,-120 349,-114 355,-108 361,-108 361,-108 562,-108 562,-108 568,-108 574,-114 574,-120 574,-120 574,-132 574,-132 574,-138 568,-144 562,-144"/>
<text text-anchor="middle" x="461.5" y="-122.3" font-family="Times,serif" font-size="14.00">GAME_STATE_END_SCREEN</text>
</g>
<!-- GAME_STATE_PLAYING&#45;&gt;GAME_STATE_END_SCREEN -->
<g id="edge6" class="edge">
<title>GAME_STATE_PLAYING&#45;&gt;GAME_STATE_END_SCREEN</title>
<path fill="none" stroke="black" d="M461.5,-215.97C461.5,-199.38 461.5,-173.88 461.5,-154.43"/>
<polygon fill="black" stroke="black" points="465,-154.34 461.5,-144.34 458,-154.34 465,-154.34"/>
</g>
<!-- GAME_STATE_PLAYING&#45;&gt;GAME_STATE_QUIT -->
<g id="edge7" class="edge">
<title>GAME_STATE_PLAYING&#45;&gt;GAME_STATE_QUIT</title>
<path fill="none" stroke="black" d="M498.71,-215.95C526.75,-201.07 563.63,-176.72 583.5,-144 601.62,-114.15 604.56,-73.13 604.19,-46.35"/>
<polygon fill="black" stroke="black" points="607.68,-46.04 603.87,-36.16 600.68,-46.26 607.68,-46.04"/>
</g>
<!-- GAME_STATE_LEVEL_COMPLETE_SCREEN&#45;&gt;GAME_STATE_PLAYING -->
<g id="edge8" class="edge">
<title>GAME_STATE_LEVEL_COMPLETE_SCREEN&#45;&gt;GAME_STATE_PLAYING</title>
<path fill="none" stroke="black" d="M218.3,-144.08C272.33,-162.69 355.6,-192.47 409.37,-212.37"/>
<polygon fill="black" stroke="black" points="408.46,-215.77 419.06,-215.97 410.9,-209.21 408.46,-215.77"/>
</g>
<!-- GAME_STATE_LEVEL_COMPLETE_SCREEN&#45;&gt;GAME_STATE_QUIT -->
<g id="edge9" class="edge">
<title>GAME_STATE_LEVEL_COMPLETE_SCREEN&#45;&gt;GAME_STATE_QUIT</title>
<path fill="none" stroke="black" d="M235.71,-107.97C313.96,-88.99 440.25,-58.36 522.32,-38.45"/>
<polygon fill="black" stroke="black" points="523.21,-41.83 532.1,-36.08 521.56,-35.03 523.21,-41.83"/>
</g>
<!-- GAME_STATE_END_SCREEN&#45;&gt;GAME_STATE_QUIT -->
<g id="edge10" class="edge">
<title>GAME_STATE_END_SCREEN&#45;&gt;GAME_STATE_QUIT</title>
<path fill="none" stroke="black" d="M484.15,-107.97C507.76,-90.23 544.9,-62.3 571.28,-42.47"/>
<polygon fill="black" stroke="black" points="573.54,-45.15 579.43,-36.34 569.34,-39.55 573.54,-45.15"/>
</g>
</g>
</svg>
