<svg xmlns="http://www.w3.org/2000/svg" xml:space="preserve" width="227.891" height="95.557" viewBox="0 0 60.296 25.283"><defs><clipPath id="a" clipPathUnits="userSpaceOnUse"><path d="M0 0h1v1H0z"/></clipPath><clipPath id="b" clipPathUnits="userSpaceOnUse"><path d="M0 0h1v1H0z"/></clipPath><clipPath id="c" clipPathUnits="userSpaceOnUse"><path d="M822 513c0-1.105.39-2.047 1.172-2.828A3.854 3.854 0 0 1 826 509h248c1.105 0 2.047.39 2.828 1.172A3.855 3.855 0 0 1 1078 513c0 1.105-.39 2.047-1.172 2.828A3.854 3.854 0 0 1 1074 517H826a3.854 3.854 0 0 1-2.828-1.172A3.854 3.854 0 0 1 822 513z"/></clipPath><clipPath id="d" clipPathUnits="userSpaceOnUse"><path d="M822 513c0-1.105.39-2.047 1.172-2.828A3.854 3.854 0 0 1 826 509h248c1.105 0 2.047.39 2.828 1.172A3.855 3.855 0 0 1 1078 513c0 1.105-.39 2.047-1.172 2.828A3.854 3.854 0 0 1 1074 517H826a3.854 3.854 0 0 1-2.828-1.172A3.854 3.854 0 0 1 822 513z"/></clipPath><clipPath id="e" clipPathUnits="userSpaceOnUse"><path d="M822 513c0-1.105.39-2.047 1.172-2.828A3.854 3.854 0 0 1 826 509h248c1.105 0 2.047.39 2.828 1.172A3.855 3.855 0 0 1 1078 513c0 1.105-.39 2.047-1.172 2.828A3.854 3.854 0 0 1 1074 517H826a3.854 3.854 0 0 1-2.828-1.172A3.854 3.854 0 0 1 822 513z"/></clipPath><clipPath id="f" clipPathUnits="userSpaceOnUse"><path d="M822 513c0-1.105.39-2.047 1.172-2.828A3.854 3.854 0 0 1 826 509h248c1.105 0 2.047.39 2.828 1.172A3.855 3.855 0 0 1 1078 513c0 1.105-.39 2.047-1.172 2.828A3.854 3.854 0 0 1 1074 517H826a3.854 3.854 0 0 1-2.828-1.172A3.854 3.854 0 0 1 822 513z"/></clipPath><clipPath id="g" clipPathUnits="userSpaceOnUse"><path d="M822 513c0-1.105.39-2.047 1.172-2.828A3.854 3.854 0 0 1 826 509h248c1.105 0 2.047.39 2.828 1.172A3.855 3.855 0 0 1 1078 513c0 1.105-.39 2.047-1.172 2.828A3.854 3.854 0 0 1 1074 517H826a3.854 3.854 0 0 1-2.828-1.172A3.854 3.854 0 0 1 822 513z"/></clipPath></defs><g><path d="M7.586 0H1.383v-11.203h1.86v9.633h4.343zm7.555 0h-1.758v-1.25h-.031Q12.523.188 10.922.188q-1.18 0-1.852-.641-.664-.64-.664-1.695 0-2.266 2.61-2.641l2.375-.336q0-1.71-1.625-1.71-1.43 0-2.579.983v-1.585q1.266-.75 2.922-.75 3.032 0 3.032 2.984zm-1.75-3.93-1.68.235q-.781.101-1.18.382-.39.274-.39.97 0 .507.359.835.367.32.977.32.828 0 1.367-.578.547-.586.547-1.468zM24.477 0h-1.813v-4.508q0-2.242-1.586-2.242-.828 0-1.367.625-.54.617-.54 1.563V0h-1.82v-8h1.82v1.328h.032q.899-1.516 2.594-1.516 1.305 0 1.992.852.688.844.688 2.445zm9.492-.64q0 4.406-4.43 4.406-1.562 0-2.727-.524V1.586q1.313.75 2.493.75 2.851 0 2.851-2.805v-.875h-.031Q31.227.188 29.422.188q-1.461 0-2.36-1.063-.89-1.07-.89-2.867 0-2.04.96-3.242.962-1.204 2.641-1.204 1.586 0 2.352 1.297h.031V-8h1.813zm-1.797-3.024v-1.04q0-.843-.563-1.437-.554-.601-1.39-.601-1.032 0-1.617.765-.579.758-.579 2.125 0 1.18.555 1.891.563.703 1.485.703.937 0 1.523-.672.586-.68.586-1.734zM43.305 0h-1.813v-1.266h-.031Q40.67.188 39.008.188q-2.836 0-2.836-3.407V-8h1.812v4.594q0 2.156 1.664 2.156.805 0 1.32-.594.524-.593.524-1.554V-8h1.813zm8.5 0h-1.758v-1.25h-.031Q49.188.188 47.586.188q-1.18 0-1.852-.641-.664-.64-.664-1.695 0-2.266 2.61-2.641l2.375-.336q0-1.71-1.625-1.71-1.43 0-2.578.983v-1.585q1.265-.75 2.921-.75 3.032 0 3.032 2.984zm-1.75-3.93-1.68.235q-.781.101-1.18.382-.39.274-.39.97 0 .507.36.835.366.32.976.32.828 0 1.367-.578.547-.586.547-1.468zM61.297-.64q0 4.406-4.43 4.406-1.562 0-2.726-.524V1.586q1.312.75 2.492.75 2.851 0 2.851-2.805v-.875h-.03Q58.553.188 56.75.188q-1.46 0-2.36-1.063-.89-1.07-.89-2.867 0-2.04.96-3.242.962-1.204 2.642-1.204 1.586 0 2.351 1.297h.031V-8h1.813zM59.5-3.665v-1.04q0-.843-.563-1.437-.554-.601-1.39-.601-1.031 0-1.617.765-.578.758-.578 2.125 0 1.18.554 1.891.563.703 1.485.703.937 0 1.523-.672.586-.68.586-1.734Zm10.93.156h-5.453q.03 1.11.68 1.711.656.602 1.796.602 1.281 0 2.352-.766V-.5q-1.094.688-2.89.688-1.767 0-2.774-1.086-1-1.094-1-3.07 0-1.868 1.101-3.04 1.11-1.18 2.75-1.18t2.54 1.055q.898 1.055.898 2.93zm-1.75-1.281q-.008-.977-.461-1.516-.453-.547-1.25-.547-.781 0-1.328.57-.54.571-.664 1.493zM71.656-.25v-1.68q1.016.774 2.242.774 1.641 0 1.641-.969 0-.273-.14-.46-.141-.196-.383-.345-.235-.148-.563-.265l-.719-.266q-.492-.195-.89-.414-.39-.219-.656-.492-.258-.281-.391-.633t-.133-.82q0-.578.273-1.016.274-.445.735-.742.46-.305 1.047-.453.586-.156 1.21-.156 1.11 0 1.985.335v1.586q-.844-.578-1.937-.578-.344 0-.625.07-.274.07-.47.196-.195.125-.304.305-.11.171-.11.382 0 .258.11.438t.32.32q.22.133.516.25.305.11.695.242.516.211.922.43.414.219.703.5.29.273.446.64.156.36.156.86 0 .61-.281 1.063-.282.453-.75.75-.47.296-1.086.437-.61.149-1.29.149-1.312 0-2.273-.438z" aria-label="Languages" style="font-weight:600;font-size:16px;font-family:&quot;Segoe UI&quot;;fill:#1f2328" transform="translate(0 2.639) scale(.23553)"/><path d="M822 509h150v8H822Z" clip-path="url(#c)" style="fill:#555;fill-opacity:1;fill-rule:nonzero;stroke:none" transform="translate(-193.607 -112.065) scale(.23553)"/><path d="M974 509h77v8h-77z" clip-path="url(#d)" style="fill:#e34c26;fill-opacity:1;fill-rule:nonzero;stroke:none" transform="translate(-193.607 -112.065) scale(.23553)"/><path d="M1053 509h12v8h-12z" clip-path="url(#e)" style="fill:#639;fill-opacity:1;fill-rule:nonzero;stroke:none" transform="translate(-193.607 -112.065) scale(.23553)"/><path d="M1067 509h6v8h-6z" clip-path="url(#f)" style="fill:#007800;fill-opacity:1;fill-rule:nonzero;stroke:none" transform="translate(-193.607 -112.065) scale(.23553)"/><path d="M1075 509h3v8h-3z" clip-path="url(#g)" style="fill:#427819;fill-opacity:1;fill-rule:nonzero;stroke:none" transform="translate(-193.607 -112.065) scale(.23553)"/></g><path d="M8 4c.53 0 1.04.101 1.53.304.49.203.923.492 1.298.868.375.375.665.807.868 1.297.203.49.304 1 .304 1.531 0 .53-.101 1.04-.304 1.53-.203.49-.493.923-.868 1.298a3.962 3.962 0 0 1-1.297.868C9.04 11.899 8.53 12 8 12c-.53 0-1.04-.101-1.53-.304a3.962 3.962 0 0 1-1.298-.868 3.962 3.962 0 0 1-.868-1.297C4.101 9.04 4 8.53 4 8c0-.53.101-1.04.304-1.53.203-.49.492-.923.868-1.298a3.962 3.962 0 0 1 1.297-.868C6.96 4.101 7.47 4 8 4Z" style="fill:#555;fill-opacity:1;fill-rule:nonzero;stroke:none" transform="translate(0 11.824) scale(.23553)"/><g><path d="M6.896-.352q-.949.493-2.36.493-1.829 0-2.93-1.155Q.503-2.168.503-4.043q0-2.016 1.236-3.258 1.242-1.242 3.135-1.242 1.219 0 2.021.346v1.383q-.85-.504-1.875-.504-1.365 0-2.214.873-.844.873-.844 2.332 0 1.388.79 2.215.792.82 2.081.82 1.19 0 2.062-.563z" aria-label="C" style="font-weight:600;font-size:12px;font-family:&quot;Segoe UI&quot;;fill:#1f2328" transform="translate(5.653 14.886) scale(.23553)"/></g><g><path d="M5.988-2.666q0 .615-.199 1.13-.2.516-.55.891-.352.375-.839.586-.486.205-1.054.205-.633 0-1.137-.263-.498-.264-.85-.756-.345-.498-.527-1.213Q.65-2.8.65-3.697q0-1.096.24-1.987.247-.896.692-1.529.451-.639 1.084-.984.633-.346 1.412-.346.867 0 1.395.24v.908q-.65-.334-1.371-.334-.563 0-1.014.252-.451.252-.774.715-.322.457-.498 1.108-.17.65-.17 1.447h.024q.58-1.049 1.916-1.049.55 0 .99.188.445.187.756.533.316.34.486.814.17.475.17 1.055zm-.984.123q0-.44-.111-.791-.112-.352-.323-.598-.205-.246-.51-.375-.304-.134-.69-.134-.358 0-.663.134-.305.135-.527.37-.223.228-.352.539-.123.304-.123.65 0 .434.123.814.123.375.346.657.222.28.527.445.31.158.686.158.363 0 .662-.135.299-.14.51-.386.21-.246.328-.586.117-.346.117-.762zm7.441-1.693q0 1.054-.193 1.869-.188.814-.55 1.377-.358.556-.886.85-.521.286-1.189.286-.633 0-1.13-.275-.493-.281-.833-.814-.34-.534-.516-1.307-.175-.78-.175-1.781 0-1.102.181-1.946.188-.843.545-1.412.358-.574.885-.861.533-.293 1.219-.293 2.642 0 2.642 4.307zm-.984.093q0-3.586-1.705-3.586-1.799 0-1.799 3.65 0 3.405 1.764 3.405 1.74 0 1.74-3.469zM14.244.13q-.27 0-.463-.193-.187-.194-.187-.463 0-.27.187-.463.194-.2.463-.2.276 0 .469.2.193.193.193.463t-.193.463q-.193.193-.469.193zm7.283-2.795q0 .615-.199 1.13-.2.516-.55.891-.352.375-.839.586-.486.205-1.054.205-.633 0-1.137-.263-.498-.264-.85-.756-.345-.498-.527-1.213-.182-.715-.182-1.611 0-1.096.24-1.987.247-.896.692-1.529.451-.639 1.084-.984.633-.346 1.412-.346.867 0 1.395.24v.908q-.65-.334-1.371-.334-.563 0-1.014.252-.451.252-.773.715-.323.457-.499 1.108-.17.65-.17 1.447h.024q.58-1.049 1.916-1.049.55 0 .99.188.446.187.756.533.317.34.486.814.17.475.17 1.055zm-.984.123q0-.44-.111-.791-.112-.352-.323-.598-.205-.246-.51-.375-.304-.134-.69-.134-.358 0-.663.134-.305.135-.527.37-.223.228-.352.539-.123.304-.123.65 0 .434.123.814.123.375.346.657.223.28.527.445.31.158.686.158.363 0 .662-.135.299-.14.51-.386.21-.246.328-.586.117-.346.117-.762zm3.832-1.646q-.867 0-1.383-.569-.515-.574-.515-1.53 0-1.042.544-1.64.545-.603 1.471-.603.897 0 1.389.556.498.557.498 1.565t-.557 1.617q-.55.604-1.447.604zm.082-3.698q-.557 0-.879.416-.322.41-.322 1.131 0 .71.316 1.108.317.392.862.392.55 0 .86-.41.311-.41.311-1.137 0-.709-.31-1.101-.305-.399-.838-.399zM30-8.402 24.61.058h-.839l5.385-8.46Zm-.621 8.53q-.867 0-1.383-.573-.516-.575-.516-1.524 0-1.043.551-1.646.551-.61 1.465-.61.89 0 1.389.563.498.562.498 1.576 0 1.002-.557 1.611-.55.604-1.447.604zm.082-3.69q-.563 0-.885.41-.316.41-.316 1.136 0 .698.316 1.096.317.393.861.393.551 0 .862-.41.31-.417.31-1.137 0-.715-.31-1.102-.305-.386-.838-.386Z" aria-label="60.6%" style="font-size:12px;font-family:&quot;Segoe UI&quot;;fill:#59636e" transform="translate(8.35 14.886) scale(.23553)"/></g><path d="M8 4c.53 0 1.04.101 1.53.304.49.203.923.492 1.298.868.375.375.665.807.868 1.297.203.49.304 1 .304 1.531 0 .53-.101 1.04-.304 1.53-.203.49-.493.923-.868 1.298a3.962 3.962 0 0 1-1.297.868C9.04 11.899 8.53 12 8 12c-.53 0-1.04-.101-1.53-.304a3.962 3.962 0 0 1-1.298-.868 3.962 3.962 0 0 1-.868-1.297C4.101 9.04 4 8.53 4 8c0-.53.101-1.04.304-1.53.203-.49.492-.923.868-1.298a3.962 3.962 0 0 1 1.297-.868C6.96 4.101 7.47 4 8 4Z" style="fill:#e34c26;fill-opacity:1;fill-rule:nonzero;stroke:none" transform="translate(20.491 11.824) scale(.23553)"/><g><path d="M7.787 0h-1.4v-3.645H2.432V0H1.037v-8.402h1.395v3.533h3.955v-3.533h1.4Zm7.465-7.219h-2.414V0h-1.395v-7.219H9.035v-1.183h6.217ZM25.506 0h-1.383v-5.438q0-.667.082-1.634h-.023q-.13.55-.229.79L21.445 0h-.96L17.97-6.234q-.106-.276-.223-.838h-.023q.046.504.046 1.646V0h-1.289v-8.402h1.963l2.21 5.595q.251.645.327.961h.03q.217-.662.351-.984l2.25-5.572h1.893zm6.72 0h-4.652v-8.402h1.395v7.224h3.258z" aria-label="HTML" style="font-weight:600;font-size:12px;font-family:&quot;Segoe UI&quot;;fill:#1f2328" transform="translate(26.173 14.886) scale(.23553)"/></g><g><path d="M5.584-2.379q0 .568-.217 1.037-.21.463-.603.797-.387.328-.932.51-.545.181-1.201.181Q1.43.146.72-.31v-1.03q.85.667 1.945.667.44 0 .791-.111.357-.111.61-.322.257-.211.392-.51.14-.299.14-.674 0-1.647-2.343-1.647h-.697v-.814h.662q2.074 0 2.074-1.547 0-1.43-1.582-1.43-.89 0-1.67.598v-.931q.803-.481 1.91-.481.527 0 .955.147.428.146.733.41.304.263.468.632.17.37.17.815 0 1.658-1.675 2.133v.023q.427.047.79.211.364.158.627.416.264.258.41.61.153.345.153.767zm6.861-1.857q0 1.054-.193 1.869-.188.814-.55 1.377-.358.556-.886.85-.521.286-1.189.286-.633 0-1.13-.275-.493-.281-.833-.814-.34-.534-.516-1.307-.175-.78-.175-1.781 0-1.102.181-1.946.188-.843.545-1.412.358-.574.885-.861.533-.293 1.219-.293 2.642 0 2.642 4.307zm-.984.093q0-3.586-1.705-3.586-1.799 0-1.799 3.65 0 3.405 1.764 3.405 1.74 0 1.74-3.469zM14.244.13q-.27 0-.463-.193-.187-.194-.187-.463 0-.27.187-.463.194-.2.463-.2.276 0 .469.2.193.193.193.463t-.193.463q-.193.193-.469.193zm7.178-4.834q0 1.154-.229 2.057-.228.896-.668 1.523-.44.621-1.072.95-.633.321-1.441.321-.832 0-1.465-.292v-.92q.697.392 1.488.392.569 0 1.014-.234.451-.235.762-.68.31-.451.474-1.107.164-.657.164-1.506h-.023q-.54 1.084-1.875 1.084-.54 0-.99-.188-.452-.193-.78-.539-.328-.351-.51-.832-.181-.48-.181-1.06 0-.621.2-1.137.204-.516.562-.885.363-.375.855-.58.498-.205 1.084-.205.633 0 1.12.258.491.252.825.744.334.486.51 1.201.176.715.176 1.635zm-1.037-.861q0-.487-.13-.885-.122-.399-.345-.68-.223-.287-.533-.44-.305-.158-.668-.158-.346 0-.645.141-.298.135-.521.387-.217.246-.346.592-.123.34-.123.744 0 .445.117.797.123.351.346.597.223.24.533.37.317.128.698.128.334 0 .627-.123.298-.129.515-.34.223-.216.346-.503.129-.293.129-.627zm3.99 1.377q-.867 0-1.383-.569-.515-.574-.515-1.53 0-1.042.544-1.64.545-.603 1.471-.603.897 0 1.389.556.498.557.498 1.565t-.557 1.617q-.55.604-1.447.604zm.082-3.698q-.557 0-.879.416-.322.41-.322 1.131 0 .71.316 1.108.317.392.862.392.55 0 .86-.41.311-.41.311-1.137 0-.709-.31-1.101-.305-.399-.838-.399zM30-8.402 24.61.058h-.839l5.385-8.46Zm-.621 8.53q-.867 0-1.383-.573-.516-.575-.516-1.524 0-1.043.551-1.646.551-.61 1.465-.61.89 0 1.389.563.498.562.498 1.576 0 1.002-.557 1.611-.55.604-1.447.604zm.082-3.69q-.563 0-.885.41-.316.41-.316 1.136 0 .698.316 1.096.317.393.861.393.551 0 .862-.41.31-.417.31-1.137 0-.715-.31-1.102-.305-.386-.838-.386Z" aria-label="30.9%" style="font-size:12px;font-family:&quot;Segoe UI&quot;;fill:#59636e" transform="translate(34.748 14.886) scale(.23553)"/></g><path d="M8 4c.53 0 1.04.101 1.53.304.49.203.923.492 1.298.868.375.375.665.807.868 1.297.203.49.304 1 .304 1.531 0 .53-.101 1.04-.304 1.53-.203.49-.493.923-.868 1.298a3.962 3.962 0 0 1-1.297.868C9.04 11.899 8.53 12 8 12c-.53 0-1.04-.101-1.53-.304a3.962 3.962 0 0 1-1.298-.868 3.962 3.962 0 0 1-.868-1.297C4.101 9.04 4 8.53 4 8c0-.53.101-1.04.304-1.53.203-.49.492-.923.868-1.298a3.962 3.962 0 0 1 1.297-.868C6.96 4.101 7.47 4 8 4Z" style="fill:#639;fill-opacity:1;fill-rule:nonzero;stroke:none" transform="translate(0 17.006) scale(.23553)"/><g><path d="M6.896-.352q-.949.493-2.36.493-1.829 0-2.93-1.155Q.503-2.168.503-4.043q0-2.016 1.236-3.258 1.242-1.242 3.135-1.242 1.219 0 2.021.346v1.383q-.85-.504-1.875-.504-1.365 0-2.214.873-.844.873-.844 2.332 0 1.388.79 2.215.792.82 2.081.82 1.19 0 2.062-.563zm1.208.018V-1.77q.193.176.457.317.27.14.568.24.299.094.598.147.298.052.55.052.88 0 1.307-.293.434-.293.434-.85 0-.298-.147-.515-.14-.223-.398-.404-.258-.182-.61-.346-.345-.17-.744-.351-.428-.229-.797-.463-.369-.235-.644-.516-.27-.287-.428-.644-.152-.358-.152-.838 0-.592.263-1.026.27-.44.703-.72.44-.288.997-.422.556-.141 1.136-.141 1.319 0 1.922.299v1.377q-.715-.516-1.84-.516-.31 0-.62.059-.305.058-.552.193-.24.135-.392.346-.152.21-.152.51 0 .28.117.486.117.205.34.375.228.17.55.334.328.158.756.346.44.228.826.48.393.252.686.557.299.304.469.68.175.369.175.843 0 .639-.257 1.078-.258.44-.698.715-.433.276-1.002.399-.568.123-1.2.123-.212 0-.522-.036-.305-.029-.627-.093-.322-.059-.61-.147-.287-.088-.462-.199Zm6.533 0V-1.77q.193.176.457.317.27.14.568.24.299.094.598.147.299.052.55.052.88 0 1.307-.293.434-.293.434-.85 0-.298-.147-.515-.14-.223-.398-.404-.258-.182-.61-.346-.345-.17-.744-.351-.427-.229-.797-.463-.369-.235-.644-.516-.27-.287-.428-.644-.152-.358-.152-.838 0-.592.264-1.026.27-.44.703-.72.44-.288.996-.422.556-.141 1.136-.141 1.319 0 1.922.299v1.377q-.715-.516-1.84-.516-.31 0-.62.059-.305.058-.551.193-.24.135-.393.346-.152.21-.152.51 0 .28.117.486.117.205.34.375.228.17.55.334.329.158.756.346.44.228.827.48.392.252.685.557.299.304.469.68.176.369.176.843 0 .639-.258 1.078-.258.44-.697.715-.434.276-1.002.399-.569.123-1.202.123-.21 0-.521-.036-.305-.029-.627-.093-.322-.059-.61-.147-.286-.088-.462-.199z" aria-label="CSS" style="font-weight:600;font-size:12px;font-family:&quot;Segoe UI&quot;;fill:#1f2328" transform="translate(5.653 20.068) scale(.23553)"/></g><g><path d="M4.98-8.402v5.548H6.06v.88H4.98V0h-.949v-1.975H.082v-.832q.55-.62 1.113-1.324.563-.709 1.073-1.435.515-.727.949-1.448.44-.726.738-1.388ZM1.166-2.854h2.865v-4.113q-.44.768-.832 1.371-.392.604-.75 1.096-.351.492-.674.89l-.609.756ZM7.776.13q-.27 0-.464-.193-.187-.194-.187-.463 0-.27.188-.463.193-.2.462-.2.276 0 .47.2.193.193.193.463t-.194.463q-.193.193-.469.193zm7.177-4.834q0 1.154-.228 2.057-.229.896-.668 1.523-.44.621-1.073.95-.632.321-1.441.321-.832 0-1.465-.292v-.92q.697.392 1.488.392.569 0 1.014-.234.451-.235.762-.68.31-.451.474-1.107.164-.657.164-1.506h-.023q-.539 1.084-1.875 1.084-.539 0-.99-.188-.451-.193-.78-.539-.328-.351-.51-.832-.18-.48-.18-1.06 0-.621.198-1.137.205-.516.563-.885.363-.375.855-.58.498-.205 1.084-.205.633 0 1.12.258.492.252.826.744.334.486.51 1.201.175.715.175 1.635zm-1.037-.861q0-.487-.129-.885-.123-.399-.346-.68-.222-.287-.533-.44-.304-.158-.668-.158-.345 0-.644.141-.3.135-.522.387-.217.246-.345.592-.124.34-.124.744 0 .445.118.797.123.351.345.597.223.24.534.37.316.128.697.128.334 0 .627-.123.299-.129.515-.34.223-.216.346-.503.129-.293.129-.627zm3.99 1.377q-.867 0-1.383-.569-.515-.574-.515-1.53 0-1.042.545-1.64.545-.603 1.47-.603.897 0 1.39.556.497.557.497 1.565t-.556 1.617q-.551.604-1.448.604zm.082-3.698q-.556 0-.879.416-.322.41-.322 1.131 0 .71.317 1.108.316.392.86.392.552 0 .862-.41.31-.41.31-1.137 0-.709-.31-1.101-.305-.399-.838-.399zm5.543-.515-5.39 8.46h-.838l5.384-8.46zm-.62 8.53q-.868 0-1.384-.573-.515-.575-.515-1.524 0-1.043.55-1.646.551-.61 1.465-.61.891 0 1.389.563.498.562.498 1.576 0 1.002-.557 1.611-.55.604-1.447.604zm.081-3.69q-.562 0-.885.41-.316.41-.316 1.136 0 .698.316 1.096.317.393.862.393.55 0 .861-.41.31-.417.31-1.137 0-.715-.31-1.102-.305-.386-.838-.386Z" aria-label="4.9%" style="font-size:12px;font-family:&quot;Segoe UI&quot;;fill:#59636e" transform="translate(11.43 20.068) scale(.23553)"/></g><path d="M8 4c.53 0 1.04.101 1.53.304.49.203.923.492 1.298.868.375.375.665.807.868 1.297.203.49.304 1 .304 1.531 0 .53-.101 1.04-.304 1.53-.203.49-.493.923-.868 1.298a3.962 3.962 0 0 1-1.297.868C9.04 11.899 8.53 12 8 12c-.53 0-1.04-.101-1.53-.304a3.962 3.962 0 0 1-1.298-.868 3.962 3.962 0 0 1-.868-1.297C4.101 9.04 4 8.53 4 8c0-.53.101-1.04.304-1.53.203-.49.492-.923.868-1.298a3.962 3.962 0 0 1 1.297-.868C6.96 4.101 7.47 4 8 4Z" style="fill:#007800;fill-opacity:1;fill-rule:nonzero;stroke:none" transform="translate(22.14 17.006) scale(.23553)"/><g><path d="M10.06 0H8.679v-5.438q0-.667.082-1.634h-.024q-.129.55-.228.79L6 0h-.96L2.524-6.234q-.105-.276-.222-.838h-.024q.047.504.047 1.646V0H1.037v-8.402H3l2.209 5.595q.252.645.328.961h.03q.216-.662.351-.984l2.25-5.572h1.893zm6.997-2.63h-4.09q.023.831.51 1.282.492.452 1.347.452.961 0 1.764-.575v1.096q-.82.516-2.168.516-1.324 0-2.08-.815-.75-.82-.75-2.303 0-1.4.826-2.279.832-.885 2.063-.885 1.23 0 1.904.791.674.791.674 2.198zm-1.313-.962q-.006-.732-.346-1.137-.34-.41-.937-.41-.586 0-.996.428-.404.428-.498 1.12zm2.233 3.405v-1.26q.761.58 1.681.58 1.23 0 1.23-.727 0-.205-.105-.345-.105-.147-.287-.258-.176-.112-.422-.2-.24-.087-.539-.199-.369-.146-.668-.31-.293-.164-.492-.37-.193-.21-.293-.474-.1-.264-.1-.615 0-.434.205-.762.206-.334.551-.557.346-.228.785-.34.44-.117.909-.117.832 0 1.488.252v1.19q-.633-.434-1.453-.434-.258 0-.469.053-.205.053-.352.146-.146.094-.228.229-.082.129-.082.287 0 .193.082.328t.24.24q.164.1.387.188.228.082.521.182.387.158.692.322.31.164.527.375.217.205.334.48.117.27.117.645 0 .457-.21.797-.212.34-.563.562-.352.223-.815.328-.457.112-.966.112-.985 0-1.705-.329zm8.209.328q-1.39 0-2.221-.838-.826-.844-.826-2.233 0-1.511.861-2.361.867-.85 2.332-.85 1.406 0 2.191.827.786.826.786 2.29 0 1.436-.85 2.303-.844.862-2.273.862Zm.064-5.198q-.797 0-1.26.557-.463.557-.463 1.535 0 .944.47 1.488.468.54 1.253.54.803 0 1.23-.534.434-.533.434-1.517 0-.99-.434-1.53-.427-.539-1.23-.539ZM36.035 0h-1.36v-3.38q0-1.682-1.189-1.682-.62 0-1.025.468-.404.463-.404 1.172V0H30.69v-6h1.366v.996h.023q.674-1.137 1.945-1.137.979 0 1.495.639.515.633.515 1.834z" aria-label="Meson" style="font-weight:600;font-size:12px;font-family:&quot;Segoe UI&quot;;fill:#1f2328" transform="translate(27.73 20.068) scale(.23553)"/></g><g><path d="M4.523-6.2q0-.386-.123-.673-.117-.287-.328-.475-.205-.193-.486-.287-.281-.094-.61-.094-.28 0-.55.077-.27.076-.528.21-.252.135-.492.323-.234.187-.44.416v-1.031q.405-.393.903-.598.504-.211 1.225-.211.515 0 .955.152.44.147.762.434.322.287.503.709.188.422.188.967 0 .498-.117.902-.112.404-.346.762-.228.357-.58.685-.352.328-.826.668-.592.422-.979.721-.38.299-.61.563-.222.257-.315.521-.088.258-.088.598h4.183V0H.64v-.416q0-.54.117-.95.117-.41.387-.779.27-.369.703-.738.44-.369 1.072-.832.457-.328.762-.627.31-.299.498-.597.187-.3.263-.604.082-.31.082-.656zM7.775.13q-.27 0-.463-.193-.187-.194-.187-.463 0-.27.188-.463.193-.2.462-.2.276 0 .47.2.193.193.193.463t-.194.463q-.193.193-.469.193zm6.276-8.531v5.548h1.078v.88H14.05V0h-.95v-1.975H9.153v-.832q.551-.62 1.114-1.324.562-.709 1.072-1.435.516-.727.95-1.448.439-.726.737-1.388zm-3.815 5.548h2.866v-4.113q-.44.768-.832 1.371-.393.604-.75 1.096-.352.492-.674.89l-.61.756zm7.67-1.335q-.867 0-1.383-.569-.515-.574-.515-1.53 0-1.042.545-1.64.545-.603 1.47-.603.897 0 1.39.556.497.557.497 1.565t-.556 1.617q-.551.604-1.448.604zm.082-3.698q-.556 0-.879.416-.322.41-.322 1.131 0 .71.317 1.108.316.392.86.392.552 0 .862-.41.31-.41.31-1.137 0-.709-.31-1.101-.305-.399-.838-.399zm5.543-.515-5.39 8.46h-.838l5.384-8.46zm-.62 8.53q-.868 0-1.384-.573-.515-.575-.515-1.524 0-1.043.55-1.646.551-.61 1.465-.61.891 0 1.389.563.498.562.498 1.576 0 1.002-.557 1.611-.55.604-1.447.604zm.081-3.69q-.562 0-.885.41-.316.41-.316 1.136 0 .698.316 1.096.317.393.862.393.55 0 .861-.41.31-.417.31-1.137 0-.715-.31-1.102-.305-.386-.838-.386Z" aria-label="2.4%" style="font-size:12px;font-family:&quot;Segoe UI&quot;;fill:#59636e" transform="translate(37.343 20.068) scale(.23553)"/></g><path d="M8 4c.53 0 1.04.101 1.53.304.49.203.923.492 1.298.868.375.375.665.807.868 1.297.203.49.304 1 .304 1.531 0 .53-.101 1.04-.304 1.53-.203.49-.493.923-.868 1.298a3.962 3.962 0 0 1-1.297.868C9.04 11.899 8.53 12 8 12c-.53 0-1.04-.101-1.53-.304a3.962 3.962 0 0 1-1.298-.868 3.962 3.962 0 0 1-.868-1.297C4.101 9.04 4 8.53 4 8c0-.53.101-1.04.304-1.53.203-.49.492-.923.868-1.298a3.962 3.962 0 0 1 1.297-.868C6.96 4.101 7.47 4 8 4Z" style="fill:#427819;fill-opacity:1;fill-rule:nonzero;stroke:none" transform="translate(0 22.188) scale(.23553)"/><g><path d="M10.06 0H8.679v-5.438q0-.667.082-1.634h-.024q-.129.55-.228.79L6 0h-.96L2.524-6.234q-.105-.276-.222-.838h-.024q.047.504.047 1.646V0H1.037v-8.402H3l2.209 5.595q.252.645.328.961h.03q.216-.662.351-.984l2.25-5.572h1.893zm6.522 0h-1.318v-.938h-.024Q14.62.141 13.418.141q-.885 0-1.389-.48-.498-.481-.498-1.272 0-1.7 1.957-1.98l1.782-.253q0-1.283-1.22-1.283-1.071 0-1.933.738v-1.19q.95-.562 2.192-.562 2.273 0 2.273 2.239zM15.27-2.947l-1.26.176q-.586.076-.885.287-.293.205-.293.726 0 .381.27.627.275.24.732.24.621 0 1.025-.433.41-.44.41-1.102zM23.684 0H21.96l-2.332-2.883h-.024V0H18.24v-8.883h1.365v5.631h.024L21.832-6h1.635l-2.479 2.895zm5.724-2.63h-4.09q.024.831.51 1.282.492.452 1.348.452.96 0 1.763-.575v1.096q-.82.516-2.168.516-1.324 0-2.08-.815-.75-.82-.75-2.303 0-1.4.827-2.279.832-.885 2.062-.885t1.904.791q.674.791.674 2.198zm-1.312-.962q-.006-.732-.346-1.137-.34-.41-.938-.41-.585 0-.996.428-.404.428-.498 1.12zm6-4.183q-.276-.159-.627-.159-.99 0-.99 1.12V-6h1.394v1.066h-1.389V0h-1.359v-4.934H30.1V-6h1.025v-.973q0-.949.621-1.494.621-.55 1.553-.55.504 0 .797.11zm1.43.515q-.335 0-.575-.217-.234-.216-.234-.55 0-.334.234-.557.24-.223.574-.223.346 0 .586.223t.24.557q0 .316-.24.545-.24.222-.586.222zM36.198 0h-1.36v-6h1.36zm3.14 0h-1.364v-8.883h1.365zm6.85-2.63H42.1q.024.831.51 1.282.493.452 1.348.452.961 0 1.764-.575v1.096q-.82.516-2.168.516-1.324 0-2.08-.815-.75-.82-.75-2.303 0-1.4.826-2.279.832-.885 2.062-.885t1.905.791q.673.791.673 2.198zm-1.312-.962q-.006-.732-.346-1.137-.34-.41-.937-.41-.586 0-.996.428-.405.428-.498 1.12z" aria-label="Makefile" style="font-weight:600;font-size:12px;font-family:&quot;Segoe UI&quot;;fill:#1f2328" transform="translate(5.653 25.25) scale(.23553)"/></g><g><path d="M4.242 0h-.96v-7.26q-.112.112-.329.258-.21.14-.48.281-.264.14-.563.264-.293.123-.574.193v-.972q.316-.088.668-.235.357-.152.697-.334.346-.187.65-.386.305-.205.528-.399h.363zm3.533.129q-.27 0-.463-.193-.187-.194-.187-.463 0-.27.188-.463.193-.2.462-.2.276 0 .47.2.193.193.193.463t-.194.463q-.193.193-.469.193zM13.594-6.2q0-.387-.123-.674-.117-.287-.328-.475-.206-.193-.487-.287-.281-.094-.61-.094-.28 0-.55.077-.27.076-.527.21-.252.135-.492.323-.235.187-.44.416v-1.031q.404-.393.902-.598.504-.211 1.225-.211.516 0 .955.152.44.147.762.434.322.287.504.709.187.422.187.967 0 .498-.117.902-.111.404-.346.762-.228.357-.58.685-.351.328-.826.668-.592.422-.978.721-.381.299-.61.563-.222.257-.316.521-.088.258-.088.598h4.184V0H9.709v-.416q0-.54.117-.95.117-.41.387-.779.27-.369.703-.738.44-.369 1.072-.832.457-.328.762-.627.31-.299.498-.597.188-.3.264-.604.082-.31.082-.656zm4.312 2.01q-.867 0-1.383-.569-.515-.574-.515-1.53 0-1.042.545-1.64.545-.603 1.47-.603.897 0 1.39.556.497.557.497 1.565t-.556 1.617q-.551.604-1.448.604zm.082-3.698q-.556 0-.879.416-.322.41-.322 1.131 0 .71.317 1.108.316.392.86.392.552 0 .862-.41.31-.41.31-1.137 0-.709-.31-1.101-.305-.399-.838-.399zm5.543-.515-5.39 8.46h-.838l5.384-8.46zm-.62 8.53q-.868 0-1.384-.573-.515-.575-.515-1.524 0-1.043.55-1.646.551-.61 1.465-.61.891 0 1.389.563.498.562.498 1.576 0 1.002-.557 1.611-.55.604-1.447.604zm.081-3.69q-.562 0-.885.41-.316.41-.316 1.136 0 .698.316 1.096.317.393.862.393.55 0 .861-.41.31-.417.31-1.137 0-.715-.31-1.102-.305-.386-.838-.386Z" aria-label="1.2%" style="font-size:12px;font-family:&quot;Segoe UI&quot;;fill:#59636e" transform="translate(17.573 25.25) scale(.23553)"/></g></svg>