<?xml version="1.0" encoding="UTF-8" standalone="no"?>
<!DOCTYPE svg PUBLIC "-//W3C//DTD SVG 1.1//EN"
 "http://www.w3.org/Graphics/SVG/1.1/DTD/svg11.dtd">
<!-- Generated by graphviz version 2.42.4 (0)
 -->
<!-- Title: main Pages: 1 -->
<svg width="809pt" height="900pt"
 viewBox="0.00 0.00 809.00 899.95" xmlns="http://www.w3.org/2000/svg" xmlns:xlink="http://www.w3.org/1999/xlink">
<g id="graph0" class="graph" transform="scale(1 1) rotate(0) translate(4 895.95)">
<title>main</title>
<!-- Node1 -->
<g id="Node000001" class="node">
<title>Node1</title>
<g id="a_Node000001"><a xlink:title="programme principal qui implémente la boucle du jeu">
<polygon fill="#999999" stroke="#666666" points="41,-422.95 0,-422.95 0,-403.95 41,-403.95 41,-422.95"/>
<text text-anchor="middle" x="20.5" y="-410.95" font-family="Helvetica,sans-Serif" font-size="10.00">main</text>
</a>
</g>
</g>
<!-- Node2 -->
<g id="Node000002" class="node">
<title>Node2</title>
<g id="a_Node000002"><a target="_top" xlink:title="fonction qui nettoie le jeu: nettoyage de la partie graphique (SDL), nettoyage des textures,...">
<polygon fill="white" stroke="#666666" points="157.5,-515.95 114.5,-515.95 114.5,-496.95 157.5,-496.95 157.5,-515.95"/>
<text text-anchor="middle" x="136" y="-503.95" font-family="Helvetica,sans-Serif" font-size="10.00">clean</text>
</a>
</g>
</g>
<!-- Node1&#45;&gt;Node2 -->
<g id="edge1_Node000001_Node000002" class="edge">
<title>Node1&#45;&gt;Node2</title>
<g id="a_edge1_Node000001_Node000002"><a xlink:title=" ">
<path fill="none" stroke="#63b8ff" d="M33.22,-423.05C52.59,-438.92 91.5,-470.8 115.2,-490.22"/>
<polygon fill="#63b8ff" stroke="#63b8ff" points="113.22,-493.13 123.17,-496.76 117.66,-487.72 113.22,-493.13"/>
</a>
</g>
</g>
<!-- Node13 -->
<g id="Node000013" class="node">
<title>Node13</title>
<g id="a_Node000013"><a target="_top" xlink:title="La fonction rafraichit l&#39;écran en fonction de l&#39;état des données du monde.">
<polygon fill="white" stroke="#666666" points="179.5,-330.95 92.5,-330.95 92.5,-311.95 179.5,-311.95 179.5,-330.95"/>
<text text-anchor="middle" x="136" y="-318.95" font-family="Helvetica,sans-Serif" font-size="10.00">draw_graphics</text>
</a>
</g>
</g>
<!-- Node1&#45;&gt;Node13 -->
<g id="edge12_Node000001_Node000013" class="edge">
<title>Node1&#45;&gt;Node13</title>
<g id="a_edge12_Node000001_Node000013"><a xlink:title=" ">
<path fill="none" stroke="#63b8ff" d="M33.65,-403.6C53.1,-387.83 91.45,-356.75 115,-337.66"/>
<polygon fill="#63b8ff" stroke="#63b8ff" points="117.38,-340.24 122.94,-331.22 112.97,-334.8 117.38,-340.24"/>
</a>
</g>
</g>
<!-- Node25 -->
<g id="Node000025" class="node">
<title>Node25</title>
<g id="a_Node000025"><a target="_top" xlink:title="La fonction gère les évènements ayant eu lieu et qui n&#39;ont pas encore été traités.">
<polygon fill="white" stroke="#666666" points="180,-608.95 92,-608.95 92,-589.95 180,-589.95 180,-608.95"/>
<text text-anchor="middle" x="136" y="-596.95" font-family="Helvetica,sans-Serif" font-size="10.00">handle_events</text>
</a>
</g>
</g>
<!-- Node1&#45;&gt;Node25 -->
<g id="edge26_Node000001_Node000025" class="edge">
<title>Node1&#45;&gt;Node25</title>
<g id="a_edge26_Node000001_Node000025"><a xlink:title=" ">
<path fill="none" stroke="#63b8ff" d="M25.51,-422.99C33.94,-442.62 54.53,-488.69 77,-524.45 90.03,-545.19 107.51,-567.16 119.86,-581.92"/>
<polygon fill="#63b8ff" stroke="#63b8ff" points="117.33,-584.35 126.47,-589.71 122.67,-579.82 117.33,-584.35"/>
</a>
</g>
</g>
<!-- Node33 -->
<g id="Node000033" class="node">
<title>Node33</title>
<g id="a_Node000033"><a target="_top" xlink:title="fonction qui initialise le jeu: initialisation de la partie graphique (SDL), chargement des ressource...">
<polygon fill="white" stroke="#666666" points="152,-127.95 120,-127.95 120,-108.95 152,-108.95 152,-127.95"/>
<text text-anchor="middle" x="136" y="-115.95" font-family="Helvetica,sans-Serif" font-size="10.00">init</text>
</a>
</g>
</g>
<!-- Node1&#45;&gt;Node33 -->
<g id="edge36_Node000001_Node000033" class="edge">
<title>Node1&#45;&gt;Node33</title>
<g id="a_edge36_Node000001_Node000033"><a xlink:title=" ">
<path fill="none" stroke="#63b8ff" d="M25.28,-403.63C41.54,-361.37 105.75,-194.47 127.64,-137.57"/>
<polygon fill="#63b8ff" stroke="#63b8ff" points="131,-138.59 131.32,-128 124.47,-136.08 131,-138.59"/>
</a>
</g>
</g>
<!-- Node41 -->
<g id="Node000041" class="node">
<title>Node41</title>
<g id="a_Node000041"><a target="_top" xlink:title="La fonction met à jour les données en tenant compte de la physique du monde.">
<polygon fill="white" stroke="#666666" points="174.5,-746.95 97.5,-746.95 97.5,-727.95 174.5,-727.95 174.5,-746.95"/>
<text text-anchor="middle" x="136" y="-734.95" font-family="Helvetica,sans-Serif" font-size="10.00">update_data</text>
</a>
</g>
</g>
<!-- Node1&#45;&gt;Node41 -->
<g id="edge47_Node000001_Node000041" class="edge">
<title>Node1&#45;&gt;Node41</title>
<g id="a_edge47_Node000001_Node000041"><a xlink:title=" ">
<path fill="none" stroke="#63b8ff" d="M23.44,-423C29.57,-452.5 49.74,-544.57 77,-617.45 90.84,-654.45 112.02,-695.47 124.59,-718.7"/>
<polygon fill="#63b8ff" stroke="#63b8ff" points="121.68,-720.67 129.55,-727.76 127.82,-717.31 121.68,-720.67"/>
</a>
</g>
</g>
<!-- Node49 -->
<g id="Node000049" class="node">
<title>Node49</title>
<g id="a_Node000049"><a target="_top" xlink:title=" ">
<polygon fill="white" stroke="#666666" points="195,-90.95 77,-90.95 77,-71.95 195,-71.95 195,-90.95"/>
<text text-anchor="middle" x="136" y="-78.95" font-family="Helvetica,sans-Serif" font-size="10.00">wait_for_next_frame</text>
</a>
</g>
</g>
<!-- Node1&#45;&gt;Node49 -->
<g id="edge62_Node000001_Node000049" class="edge">
<title>Node1&#45;&gt;Node49</title>
<g id="a_edge62_Node000001_Node000049"><a xlink:title=" ">
<path fill="none" stroke="#63b8ff" d="M21.89,-403.78C24,-356.09 35.55,-146.48 77,-99.45 77.75,-98.6 78.54,-97.79 79.36,-97.02"/>
<polygon fill="#63b8ff" stroke="#63b8ff" points="81.56,-99.75 87.58,-91.03 77.44,-94.09 81.56,-99.75"/>
</a>
</g>
</g>
<!-- Node3 -->
<g id="Node000003" class="node">
<title>Node3</title>
<g id="a_Node000003"><a target="_top" xlink:title="La fonction nettoie les données du monde.">
<polygon fill="white" stroke="#666666" points="348,-645.95 278,-645.95 278,-626.95 348,-626.95 348,-645.95"/>
<text text-anchor="middle" x="313" y="-633.95" font-family="Helvetica,sans-Serif" font-size="10.00">clean_data</text>
</a>
</g>
</g>
<!-- Node2&#45;&gt;Node3 -->
<g id="edge2_Node000002_Node000003" class="edge">
<title>Node2&#45;&gt;Node3</title>
<g id="a_edge2_Node000002_Node000003"><a xlink:title=" ">
<path fill="none" stroke="#63b8ff" d="M144.49,-515.97C164.75,-541.6 219.8,-610.59 231,-617.45 242.08,-624.23 255.38,-628.6 267.96,-631.4"/>
<polygon fill="#63b8ff" stroke="#63b8ff" points="267.36,-634.85 277.85,-633.33 268.7,-627.98 267.36,-634.85"/>
</a>
</g>
</g>
<!-- Node5 -->
<g id="Node000005" class="node">
<title>Node5</title>
<g id="a_Node000005"><a target="_top" xlink:title=" ">
<polygon fill="white" stroke="#666666" points="346.5,-534.95 279.5,-534.95 279.5,-515.95 346.5,-515.95 346.5,-534.95"/>
<text text-anchor="middle" x="313" y="-522.95" font-family="Helvetica,sans-Serif" font-size="10.00">clean_mix</text>
</a>
</g>
</g>
<!-- Node2&#45;&gt;Node5 -->
<g id="edge4_Node000002_Node000005" class="edge">
<title>Node2&#45;&gt;Node5</title>
<g id="a_edge4_Node000002_Node000005"><a xlink:title=" ">
<path fill="none" stroke="#63b8ff" d="M157.76,-508.7C185.12,-511.67 233.91,-516.97 269.3,-520.81"/>
<polygon fill="#63b8ff" stroke="#63b8ff" points="269.04,-524.31 279.36,-521.91 269.8,-517.35 269.04,-524.31"/>
</a>
</g>
</g>
<!-- Node6 -->
<g id="Node000006" class="node">
<title>Node6</title>
<g id="a_Node000006"><a target="_top" xlink:title="La fonction nettoie les ressources.">
<polygon fill="white" stroke="#666666" points="360.5,-497.95 265.5,-497.95 265.5,-478.95 360.5,-478.95 360.5,-497.95"/>
<text text-anchor="middle" x="313" y="-485.95" font-family="Helvetica,sans-Serif" font-size="10.00">clean_resources</text>
</a>
</g>
</g>
<!-- Node2&#45;&gt;Node6 -->
<g id="edge5_Node000002_Node000006" class="edge">
<title>Node2&#45;&gt;Node6</title>
<g id="a_edge5_Node000002_Node000006"><a xlink:title=" ">
<path fill="none" stroke="#63b8ff" d="M157.76,-504.31C181.64,-501.86 221.84,-497.72 255.21,-494.29"/>
<polygon fill="#63b8ff" stroke="#63b8ff" points="255.73,-497.76 265.32,-493.25 255.02,-490.79 255.73,-497.76"/>
</a>
</g>
</g>
<!-- Node11 -->
<g id="Node000011" class="node">
<title>Node11</title>
<g id="a_Node000011"><a target="_top" xlink:title="La fonction nettoie le renderer et la fenêtre du jeu en mémoire.">
<polygon fill="white" stroke="#666666" points="344,-460.95 282,-460.95 282,-441.95 344,-441.95 344,-460.95"/>
<text text-anchor="middle" x="313" y="-448.95" font-family="Helvetica,sans-Serif" font-size="10.00">clean_sdl</text>
</a>
</g>
</g>
<!-- Node2&#45;&gt;Node11 -->
<g id="edge10_Node000002_Node000011" class="edge">
<title>Node2&#45;&gt;Node11</title>
<g id="a_edge10_Node000002_Node000011"><a xlink:title=" ">
<path fill="none" stroke="#63b8ff" d="M157.58,-497.27C176.4,-489.13 205.17,-477.35 231,-469.45 244.04,-465.46 258.52,-461.96 271.58,-459.13"/>
<polygon fill="#63b8ff" stroke="#63b8ff" points="272.63,-462.49 281.7,-457.01 271.2,-455.64 272.63,-462.49"/>
</a>
</g>
</g>
<!-- Node12 -->
<g id="Node000012" class="node">
<title>Node12</title>
<g id="a_Node000012"><a target="_top" xlink:title="La fonction nettoie l&#39;environnement TTF.">
<polygon fill="white" stroke="#666666" points="342.5,-571.95 283.5,-571.95 283.5,-552.95 342.5,-552.95 342.5,-571.95"/>
<text text-anchor="middle" x="313" y="-559.95" font-family="Helvetica,sans-Serif" font-size="10.00">clean_ttf</text>
</a>
</g>
</g>
<!-- Node2&#45;&gt;Node12 -->
<g id="edge11_Node000002_Node000012" class="edge">
<title>Node2&#45;&gt;Node12</title>
<g id="a_edge11_Node000002_Node000012"><a xlink:title=" ">
<path fill="none" stroke="#63b8ff" d="M157.6,-515.56C176.44,-523.64 205.22,-535.4 231,-543.45 244.62,-547.7 259.8,-551.51 273.3,-554.57"/>
<polygon fill="#63b8ff" stroke="#63b8ff" points="272.72,-558.03 283.24,-556.76 274.23,-551.19 272.72,-558.03"/>
</a>
</g>
</g>
<!-- Node4 -->
<g id="Node000004" class="node">
<title>Node4</title>
<g id="a_Node000004"><a target="_top" xlink:title=" ">
<polygon fill="white" stroke="#666666" points="542,-725.95 431,-725.95 431,-706.95 542,-706.95 542,-725.95"/>
<text text-anchor="middle" x="486.5" y="-713.95" font-family="Helvetica,sans-Serif" font-size="10.00">clean_playing_data</text>
</a>
</g>
</g>
<!-- Node3&#45;&gt;Node4 -->
<g id="edge3_Node000003_Node000004" class="edge">
<title>Node3&#45;&gt;Node4</title>
<g id="a_edge3_Node000003_Node000004"><a xlink:title=" ">
<path fill="none" stroke="#63b8ff" d="M348.01,-641.03C362.85,-643.78 380.2,-648.02 395,-654.45 422.02,-666.18 449.43,-686.37 466.89,-700.52"/>
<polygon fill="#63b8ff" stroke="#63b8ff" points="464.69,-703.23 474.62,-706.91 469.15,-697.84 464.69,-703.23"/>
</a>
</g>
</g>
<!-- Node7 -->
<g id="Node000007" class="node">
<title>Node7</title>
<g id="a_Node000007"><a target="_top" xlink:title="La fonction nettoie une police.">
<polygon fill="white" stroke="#666666" points="520.5,-423.95 452.5,-423.95 452.5,-404.95 520.5,-404.95 520.5,-423.95"/>
<text text-anchor="middle" x="486.5" y="-411.95" font-family="Helvetica,sans-Serif" font-size="10.00">clean_font</text>
</a>
</g>
</g>
<!-- Node6&#45;&gt;Node7 -->
<g id="edge6_Node000006_Node000007" class="edge">
<title>Node6&#45;&gt;Node7</title>
<g id="a_edge6_Node000006_Node000007"><a xlink:title=" ">
<path fill="none" stroke="#63b8ff" d="M360.68,-482.23C372.38,-479.42 384.56,-475.35 395,-469.45 414.97,-458.15 411.55,-444.62 431,-432.45 434.66,-430.16 438.64,-428.13 442.73,-426.34"/>
<polygon fill="#63b8ff" stroke="#63b8ff" points="444.32,-429.47 452.37,-422.58 441.78,-422.95 444.32,-429.47"/>
</a>
</g>
</g>
<!-- Node8 -->
<g id="Node000008" class="node">
<title>Node8</title>
<g id="a_Node000008"><a target="_top" xlink:title="La fonction nettoie un son.">
<polygon fill="white" stroke="#666666" points="525,-460.95 448,-460.95 448,-441.95 525,-441.95 525,-460.95"/>
<text text-anchor="middle" x="486.5" y="-448.95" font-family="Helvetica,sans-Serif" font-size="10.00">clean_sound</text>
</a>
</g>
</g>
<!-- Node6&#45;&gt;Node8 -->
<g id="edge7_Node000006_Node000008" class="edge">
<title>Node6&#45;&gt;Node8</title>
<g id="a_edge7_Node000006_Node000008"><a xlink:title=" ">
<path fill="none" stroke="#63b8ff" d="M358.17,-478.92C382.59,-473.65 412.95,-467.1 437.9,-461.72"/>
<polygon fill="#63b8ff" stroke="#63b8ff" points="438.84,-465.1 447.88,-459.57 437.36,-458.25 438.84,-465.1"/>
</a>
</g>
</g>
<!-- Node9 -->
<g id="Node000009" class="node">
<title>Node9</title>
<g id="a_Node000009"><a target="_top" xlink:title="La fonction nettoie une surface en mémoire.">
<polygon fill="white" stroke="#666666" points="528.5,-534.95 444.5,-534.95 444.5,-515.95 528.5,-515.95 528.5,-534.95"/>
<text text-anchor="middle" x="486.5" y="-522.95" font-family="Helvetica,sans-Serif" font-size="10.00">clean_surface</text>
</a>
</g>
</g>
<!-- Node6&#45;&gt;Node9 -->
<g id="edge8_Node000006_Node000009" class="edge">
<title>Node6&#45;&gt;Node9</title>
<g id="a_edge8_Node000006_Node000009"><a xlink:title=" ">
<path fill="none" stroke="#63b8ff" d="M358.17,-497.98C381.44,-503 410.1,-509.18 434.34,-514.41"/>
<polygon fill="#63b8ff" stroke="#63b8ff" points="433.92,-517.9 444.43,-516.59 435.39,-511.06 433.92,-517.9"/>
</a>
</g>
</g>
<!-- Node10 -->
<g id="Node000010" class="node">
<title>Node10</title>
<g id="a_Node000010"><a target="_top" xlink:title="La fonction nettoie une texture en mémoire.">
<polygon fill="white" stroke="#666666" points="528,-497.95 445,-497.95 445,-478.95 528,-478.95 528,-497.95"/>
<text text-anchor="middle" x="486.5" y="-485.95" font-family="Helvetica,sans-Serif" font-size="10.00">clean_texture</text>
</a>
</g>
</g>
<!-- Node6&#45;&gt;Node10 -->
<g id="edge9_Node000006_Node000010" class="edge">
<title>Node6&#45;&gt;Node10</title>
<g id="a_edge9_Node000006_Node000010"><a xlink:title=" ">
<path fill="none" stroke="#63b8ff" d="M360.86,-488.45C383.76,-488.45 411.34,-488.45 434.74,-488.45"/>
<polygon fill="#63b8ff" stroke="#63b8ff" points="434.82,-491.95 444.82,-488.45 434.82,-484.95 434.82,-491.95"/>
</a>
</g>
</g>
<!-- Node14 -->
<g id="Node000014" class="node">
<title>Node14</title>
<g id="a_Node000014"><a target="_top" xlink:title=" ">
<polygon fill="white" stroke="#666666" points="366.5,-386.95 259.5,-386.95 259.5,-367.95 366.5,-367.95 366.5,-386.95"/>
<text text-anchor="middle" x="313" y="-374.95" font-family="Helvetica,sans-Serif" font-size="10.00">camera_transform</text>
</a>
</g>
</g>
<!-- Node13&#45;&gt;Node14 -->
<g id="edge13_Node000013_Node000014" class="edge">
<title>Node13&#45;&gt;Node14</title>
<g id="a_edge13_Node000013_Node000014"><a xlink:title=" ">
<path fill="none" stroke="#63b8ff" d="M158.71,-331.03C177.56,-339.1 205.72,-350.56 231,-358.45 239.13,-360.99 247.8,-363.36 256.35,-365.52"/>
<polygon fill="#63b8ff" stroke="#63b8ff" points="255.73,-368.97 266.28,-367.94 257.39,-362.17 255.73,-368.97"/>
</a>
</g>
</g>
<!-- Node16 -->
<g id="Node000016" class="node">
<title>Node16</title>
<g id="a_Node000016"><a target="_top" xlink:title="La fonction vide le contenu graphique du renderer lié à l&#39;écran de jeu.">
<polygon fill="white" stroke="#666666" points="356.5,-349.95 269.5,-349.95 269.5,-330.95 356.5,-330.95 356.5,-349.95"/>
<text text-anchor="middle" x="313" y="-337.95" font-family="Helvetica,sans-Serif" font-size="10.00">clear_renderer</text>
</a>
</g>
</g>
<!-- Node13&#45;&gt;Node16 -->
<g id="edge15_Node000013_Node000016" class="edge">
<title>Node13&#45;&gt;Node16</title>
<g id="a_edge15_Node000013_Node000016"><a xlink:title=" ">
<path fill="none" stroke="#63b8ff" d="M179.81,-326.1C203.73,-328.7 233.75,-331.95 259.13,-334.71"/>
<polygon fill="#63b8ff" stroke="#63b8ff" points="259.01,-338.22 269.33,-335.82 259.77,-331.26 259.01,-338.22"/>
</a>
</g>
</g>
<!-- Node17 -->
<g id="Node000017" class="node">
<title>Node17</title>
<g id="a_Node000017"><a target="_top" xlink:title="La fonction applique la texture du fond sur le renderer lié à l&#39;écran de jeu.">
<polygon fill="white" stroke="#666666" points="364.5,-201.95 261.5,-201.95 261.5,-182.95 364.5,-182.95 364.5,-201.95"/>
<text text-anchor="middle" x="313" y="-189.95" font-family="Helvetica,sans-Serif" font-size="10.00">draw_background</text>
</a>
</g>
</g>
<!-- Node13&#45;&gt;Node17 -->
<g id="edge16_Node000013_Node000017" class="edge">
<title>Node13&#45;&gt;Node17</title>
<g id="a_edge16_Node000013_Node000017"><a xlink:title=" ">
<path fill="none" stroke="#63b8ff" d="M142.14,-311.92C154.38,-290.15 187.55,-236.69 231,-210.45 237.27,-206.66 244.25,-203.67 251.41,-201.3"/>
<polygon fill="#63b8ff" stroke="#63b8ff" points="252.6,-204.6 261.23,-198.45 250.65,-197.88 252.6,-204.6"/>
</a>
</g>
</g>
<!-- Node19 -->
<g id="Node000019" class="node">
<title>Node19</title>
<g id="a_Node000019"><a target="_top" xlink:title="La fonction applique un texte dans une certaine police sur le renderer à une certaine position et ave...">
<polygon fill="white" stroke="#666666" points="345.5,-312.95 280.5,-312.95 280.5,-293.95 345.5,-293.95 345.5,-312.95"/>
<text text-anchor="middle" x="313" y="-300.95" font-family="Helvetica,sans-Serif" font-size="10.00">draw_text</text>
</a>
</g>
</g>
<!-- Node13&#45;&gt;Node19 -->
<g id="edge19_Node000013_Node000019" class="edge">
<title>Node13&#45;&gt;Node19</title>
<g id="a_edge19_Node000013_Node000019"><a xlink:title=" ">
<path fill="none" stroke="#63b8ff" d="M179.81,-317.05C207.36,-314.21 242.98,-310.55 270.3,-307.74"/>
<polygon fill="#63b8ff" stroke="#63b8ff" points="270.75,-311.21 280.33,-306.71 270.03,-304.25 270.75,-311.21"/>
</a>
</g>
</g>
<!-- Node20 -->
<g id="Node000020" class="node">
<title>Node20</title>
<g id="a_Node000020"><a target="_top" xlink:title=" ">
<polygon fill="white" stroke="#666666" points="353.5,-275.95 272.5,-275.95 272.5,-256.95 353.5,-256.95 353.5,-275.95"/>
<text text-anchor="middle" x="313" y="-263.95" font-family="Helvetica,sans-Serif" font-size="10.00">draw_texture</text>
</a>
</g>
</g>
<!-- Node13&#45;&gt;Node20 -->
<g id="edge20_Node000013_Node000020" class="edge">
<title>Node13&#45;&gt;Node20</title>
<g id="a_edge20_Node000013_Node000020"><a xlink:title=" ">
<path fill="none" stroke="#63b8ff" d="M158.69,-311.79C177.52,-303.68 205.68,-292.2 231,-284.45 241.02,-281.38 251.89,-278.61 262.31,-276.2"/>
<polygon fill="#63b8ff" stroke="#63b8ff" points="263.13,-279.61 272.13,-274.01 261.6,-272.78 263.13,-279.61"/>
</a>
</g>
</g>
<!-- Node21 -->
<g id="Node000021" class="node">
<title>Node21</title>
<g id="a_Node000021"><a target="_top" xlink:title="La fonction rafraichit la police. Peut être appelée plusieurs fois et utilisée pour changer la taille...">
<polygon fill="white" stroke="#666666" points="351,-423.95 275,-423.95 275,-404.95 351,-404.95 351,-423.95"/>
<text text-anchor="middle" x="313" y="-411.95" font-family="Helvetica,sans-Serif" font-size="10.00">refresh_font</text>
</a>
</g>
</g>
<!-- Node13&#45;&gt;Node21 -->
<g id="edge21_Node000013_Node000021" class="edge">
<title>Node13&#45;&gt;Node21</title>
<g id="a_edge21_Node000013_Node000021"><a xlink:title=" ">
<path fill="none" stroke="#63b8ff" d="M146.18,-331.01C161.98,-346.88 196,-378.6 231,-395.45 241.57,-400.54 253.58,-404.31 265.06,-407.09"/>
<polygon fill="#63b8ff" stroke="#63b8ff" points="264.44,-410.54 274.96,-409.28 265.96,-403.7 264.44,-410.54"/>
</a>
</g>
</g>
<!-- Node24 -->
<g id="Node000024" class="node">
<title>Node24</title>
<g id="a_Node000024"><a target="_top" xlink:title="La fonction met à jour l&#39;écran avec le contenu du renderer.">
<polygon fill="white" stroke="#666666" points="357,-238.95 269,-238.95 269,-219.95 357,-219.95 357,-238.95"/>
<text text-anchor="middle" x="313" y="-226.95" font-family="Helvetica,sans-Serif" font-size="10.00">update_screen</text>
</a>
</g>
</g>
<!-- Node13&#45;&gt;Node24 -->
<g id="edge25_Node000013_Node000024" class="edge">
<title>Node13&#45;&gt;Node24</title>
<g id="a_edge25_Node000013_Node000024"><a xlink:title=" ">
<path fill="none" stroke="#63b8ff" d="M146.16,-311.85C161.93,-295.91 195.91,-264.09 231,-247.45 239.69,-243.33 249.37,-240.13 258.91,-237.66"/>
<polygon fill="#63b8ff" stroke="#63b8ff" points="259.84,-241.03 268.77,-235.33 258.24,-234.22 259.84,-241.03"/>
</a>
</g>
</g>
<!-- Node15 -->
<g id="Node000015" class="node">
<title>Node15</title>
<g id="a_Node000015"><a target="_top" xlink:title=" ">
<polygon fill="white" stroke="#666666" points="528.5,-266.95 444.5,-266.95 444.5,-247.95 528.5,-247.95 528.5,-266.95"/>
<text text-anchor="middle" x="486.5" y="-254.95" font-family="Helvetica,sans-Serif" font-size="10.00">camera_scale</text>
</a>
</g>
</g>
<!-- Node14&#45;&gt;Node15 -->
<g id="edge14_Node000014_Node000015" class="edge">
<title>Node14&#45;&gt;Node15</title>
<g id="a_edge14_Node000014_Node000015"><a xlink:title=" ">
<path fill="none" stroke="#63b8ff" d="M366.8,-369.98C376.59,-367.26 386.43,-363.53 395,-358.45 430.24,-337.55 459.39,-298.39 474.44,-275.46"/>
<polygon fill="#63b8ff" stroke="#63b8ff" points="477.42,-277.31 479.84,-266.99 471.52,-273.54 477.42,-277.31"/>
</a>
</g>
</g>
<!-- Node17&#45;&gt;Node15 -->
<g id="edge17_Node000017_Node000015" class="edge">
<title>Node17&#45;&gt;Node15</title>
<g id="a_edge17_Node000017_Node000015"><a xlink:title=" ">
<path fill="none" stroke="#63b8ff" d="M364.71,-201.59C374.88,-204.01 385.39,-206.95 395,-210.45 418.3,-218.93 443.2,-232.2 460.97,-242.48"/>
<polygon fill="#63b8ff" stroke="#63b8ff" points="459.66,-245.77 470.05,-247.83 463.21,-239.74 459.66,-245.77"/>
</a>
</g>
</g>
<!-- Node18 -->
<g id="Node000018" class="node">
<title>Node18</title>
<g id="a_Node000018"><a target="_top" xlink:title="La fonction calcule le reste positif de la division de a par b.">
<polygon fill="white" stroke="#666666" points="529.5,-201.95 443.5,-201.95 443.5,-182.95 529.5,-182.95 529.5,-201.95"/>
<text text-anchor="middle" x="486.5" y="-189.95" font-family="Helvetica,sans-Serif" font-size="10.00">positive_fmod</text>
</a>
</g>
</g>
<!-- Node17&#45;&gt;Node18 -->
<g id="edge18_Node000017_Node000018" class="edge">
<title>Node17&#45;&gt;Node18</title>
<g id="a_edge18_Node000017_Node000018"><a xlink:title=" ">
<path fill="none" stroke="#63b8ff" d="M364.53,-192.45C386.19,-192.45 411.49,-192.45 433.33,-192.45"/>
<polygon fill="#63b8ff" stroke="#63b8ff" points="433.42,-195.95 443.42,-192.45 433.42,-188.95 433.42,-195.95"/>
</a>
</g>
</g>
<!-- Node21&#45;&gt;Node7 -->
<g id="edge22_Node000021_Node000007" class="edge">
<title>Node21&#45;&gt;Node7</title>
<g id="a_edge22_Node000021_Node000007"><a xlink:title=" ">
<path fill="none" stroke="#63b8ff" d="M351.21,-414.45C377.94,-414.45 414.06,-414.45 442.1,-414.45"/>
<polygon fill="#63b8ff" stroke="#63b8ff" points="442.42,-417.95 452.42,-414.45 442.42,-410.95 442.42,-417.95"/>
</a>
</g>
</g>
<!-- Node22 -->
<g id="Node000022" class="node">
<title>Node22</title>
<g id="a_Node000022"><a target="_top" xlink:title="La fonction charge une police.">
<polygon fill="white" stroke="#666666" points="662,-266.95 600,-266.95 600,-247.95 662,-247.95 662,-266.95"/>
<text text-anchor="middle" x="631" y="-254.95" font-family="Helvetica,sans-Serif" font-size="10.00">load_font</text>
</a>
</g>
</g>
<!-- Node21&#45;&gt;Node22 -->
<g id="edge23_Node000021_Node000022" class="edge">
<title>Node21&#45;&gt;Node22</title>
<g id="a_edge23_Node000021_Node000022"><a xlink:title=" ">
<path fill="none" stroke="#63b8ff" d="M351.01,-408.21C365.07,-405.21 381.05,-401.03 395,-395.45 479.12,-361.78 568.9,-301.25 608.79,-272.9"/>
<polygon fill="#63b8ff" stroke="#63b8ff" points="610.87,-275.71 616.96,-267.04 606.8,-270.02 610.87,-275.71"/>
</a>
</g>
</g>
<!-- Node23 -->
<g id="Node000023" class="node">
<title>Node23</title>
<g id="a_Node000023"><a target="_top" xlink:title=" ">
<polygon fill="white" stroke="#666666" points="801,-164.95 720,-164.95 720,-145.95 801,-145.95 801,-164.95"/>
<text text-anchor="middle" x="760.5" y="-152.95" font-family="Helvetica,sans-Serif" font-size="10.00">concat_paths</text>
</a>
</g>
</g>
<!-- Node22&#45;&gt;Node23 -->
<g id="edge24_Node000022_Node000023" class="edge">
<title>Node22&#45;&gt;Node23</title>
<g id="a_edge24_Node000022_Node000023"><a xlink:title=" ">
<path fill="none" stroke="#63b8ff" d="M644.23,-247.67C666.27,-230.03 712.88,-192.75 739.58,-171.38"/>
<polygon fill="#63b8ff" stroke="#63b8ff" points="741.88,-174.03 747.5,-165.05 737.5,-168.57 741.88,-174.03"/>
</a>
</g>
</g>
<!-- Node26 -->
<g id="Node000026" class="node">
<title>Node26</title>
<g id="a_Node000026"><a target="_top" xlink:title=" ">
<polygon fill="white" stroke="#666666" points="372.5,-608.95 253.5,-608.95 253.5,-589.95 372.5,-589.95 372.5,-608.95"/>
<text text-anchor="middle" x="313" y="-596.95" font-family="Helvetica,sans-Serif" font-size="10.00">transition_to_playing</text>
</a>
</g>
</g>
<!-- Node25&#45;&gt;Node26 -->
<g id="edge27_Node000025_Node000026" class="edge">
<title>Node25&#45;&gt;Node26</title>
<g id="a_edge27_Node000025_Node000026"><a xlink:title=" ">
<path fill="none" stroke="#63b8ff" d="M180.26,-599.45C199.22,-599.45 221.94,-599.45 243.14,-599.45"/>
<polygon fill="#63b8ff" stroke="#63b8ff" points="243.4,-602.95 253.4,-599.45 243.4,-595.95 243.4,-602.95"/>
</a>
</g>
</g>
<!-- Node32 -->
<g id="Node000032" class="node">
<title>Node32</title>
<g id="a_Node000032"><a target="_top" xlink:title=" ">
<polygon fill="white" stroke="#666666" points="364,-682.95 262,-682.95 262,-663.95 364,-663.95 364,-682.95"/>
<text text-anchor="middle" x="313" y="-670.95" font-family="Helvetica,sans-Serif" font-size="10.00">transition_to_quit</text>
</a>
</g>
</g>
<!-- Node25&#45;&gt;Node32 -->
<g id="edge35_Node000025_Node000032" class="edge">
<title>Node25&#45;&gt;Node32</title>
<g id="a_edge35_Node000025_Node000032"><a xlink:title=" ">
<path fill="none" stroke="#63b8ff" d="M150.35,-609.01C168,-621.23 200.45,-642.25 231,-654.45 237.64,-657.1 244.74,-659.44 251.88,-661.48"/>
<polygon fill="#63b8ff" stroke="#63b8ff" points="251.02,-664.88 261.59,-664.09 252.84,-658.12 251.02,-664.88"/>
</a>
</g>
</g>
<!-- Node27 -->
<g id="Node000027" class="node">
<title>Node27</title>
<g id="a_Node000027"><a target="_top" xlink:title="Initialise les éléments du niveau selon le niveau courant.">
<polygon fill="white" stroke="#666666" points="517.5,-647.95 455.5,-647.95 455.5,-628.95 517.5,-628.95 517.5,-647.95"/>
<text text-anchor="middle" x="486.5" y="-635.95" font-family="Helvetica,sans-Serif" font-size="10.00">init_level</text>
</a>
</g>
</g>
<!-- Node26&#45;&gt;Node27 -->
<g id="edge28_Node000026_Node000027" class="edge">
<title>Node26&#45;&gt;Node27</title>
<g id="a_edge28_Node000026_Node000027"><a xlink:title=" ">
<path fill="none" stroke="#63b8ff" d="M357.31,-609C369.51,-611.71 382.78,-614.67 395,-617.45 411.52,-621.2 429.71,-625.41 445.42,-629.07"/>
<polygon fill="#63b8ff" stroke="#63b8ff" points="444.82,-632.52 455.35,-631.38 446.41,-625.7 444.82,-632.52"/>
</a>
</g>
</g>
<!-- Node30 -->
<g id="Node000030" class="node">
<title>Node30</title>
<g id="a_Node000030"><a target="_top" xlink:title=" ">
<polygon fill="white" stroke="#666666" points="662.5,-609.95 599.5,-609.95 599.5,-590.95 662.5,-590.95 662.5,-609.95"/>
<text text-anchor="middle" x="631" y="-597.95" font-family="Helvetica,sans-Serif" font-size="10.00">print_rect</text>
</a>
</g>
</g>
<!-- Node26&#45;&gt;Node30 -->
<g id="edge33_Node000026_Node000030" class="edge">
<title>Node26&#45;&gt;Node30</title>
<g id="a_edge33_Node000026_Node000030"><a xlink:title=" ">
<path fill="none" stroke="#63b8ff" d="M368,-589.94C387.75,-586.91 410.32,-583.94 431,-582.45 480.21,-578.89 492.92,-577.48 542,-582.45 557.63,-584.03 574.59,-587.16 589.41,-590.37"/>
<polygon fill="#63b8ff" stroke="#63b8ff" points="588.76,-593.81 599.28,-592.58 590.29,-586.98 588.76,-593.81"/>
</a>
</g>
</g>
<!-- Node31 -->
<g id="Node000031" class="node">
<title>Node31</title>
<g id="a_Node000031"><a target="_top" xlink:title="Arrêter le son.">
<polygon fill="white" stroke="#666666" points="522.5,-610.95 450.5,-610.95 450.5,-591.95 522.5,-591.95 522.5,-610.95"/>
<text text-anchor="middle" x="486.5" y="-598.95" font-family="Helvetica,sans-Serif" font-size="10.00">stop_sound</text>
</a>
</g>
</g>
<!-- Node26&#45;&gt;Node31 -->
<g id="edge34_Node000026_Node000031" class="edge">
<title>Node26&#45;&gt;Node31</title>
<g id="a_edge34_Node000026_Node000031"><a xlink:title=" ">
<path fill="none" stroke="#63b8ff" d="M372.54,-600.13C394.7,-600.39 419.57,-600.68 440.32,-600.92"/>
<polygon fill="#63b8ff" stroke="#63b8ff" points="440.42,-604.42 450.46,-601.04 440.5,-597.42 440.42,-604.42"/>
</a>
</g>
</g>
<!-- Node28 -->
<g id="Node000028" class="node">
<title>Node28</title>
<g id="a_Node000028"><a target="_top" xlink:title=" ">
<polygon fill="white" stroke="#666666" points="684,-769.95 578,-769.95 578,-750.95 684,-750.95 684,-769.95"/>
<text text-anchor="middle" x="631" y="-757.95" font-family="Helvetica,sans-Serif" font-size="10.00">get_pixel_RGBA32</text>
</a>
</g>
</g>
<!-- Node27&#45;&gt;Node28 -->
<g id="edge29_Node000027_Node000028" class="edge">
<title>Node27&#45;&gt;Node28</title>
<g id="a_edge29_Node000027_Node000028"><a xlink:title=" ">
<path fill="none" stroke="#63b8ff" d="M498.68,-648.02C523.03,-668.87 581.07,-718.56 611.17,-744.33"/>
<polygon fill="#63b8ff" stroke="#63b8ff" points="609,-747.08 618.87,-750.92 613.55,-741.76 609,-747.08"/>
</a>
</g>
</g>
<!-- Node29 -->
<g id="Node000029" class="node">
<title>Node29</title>
<g id="a_Node000029"><a target="_top" xlink:title="La fonction charge une image.">
<polygon fill="white" stroke="#666666" points="668,-164.95 594,-164.95 594,-145.95 668,-145.95 668,-164.95"/>
<text text-anchor="middle" x="631" y="-152.95" font-family="Helvetica,sans-Serif" font-size="10.00">load_image</text>
</a>
</g>
</g>
<!-- Node27&#45;&gt;Node29 -->
<g id="edge30_Node000027_Node000029" class="edge">
<title>Node27&#45;&gt;Node29</title>
<g id="a_edge30_Node000027_Node000029"><a xlink:title=" ">
<path fill="none" stroke="#63b8ff" d="M517.52,-634.42C526.73,-631.68 536,-627.1 542,-619.45 594.46,-552.52 550.69,-318.99 578,-238.45 586.29,-213.99 603.05,-189.34 615.31,-173.34"/>
<polygon fill="#63b8ff" stroke="#63b8ff" points="618.13,-175.41 621.57,-165.39 612.63,-171.07 618.13,-175.41"/>
</a>
</g>
</g>
<!-- Node27&#45;&gt;Node30 -->
<g id="edge32_Node000027_Node000030" class="edge">
<title>Node27&#45;&gt;Node30</title>
<g id="a_edge32_Node000027_Node000030"><a xlink:title=" ">
<path fill="none" stroke="#63b8ff" d="M517.72,-630.39C538.64,-624.81 566.73,-617.32 589.57,-611.23"/>
<polygon fill="#63b8ff" stroke="#63b8ff" points="590.57,-614.59 599.33,-608.63 588.77,-607.82 590.57,-614.59"/>
</a>
</g>
</g>
<!-- Node29&#45;&gt;Node23 -->
<g id="edge31_Node000029_Node000023" class="edge">
<title>Node29&#45;&gt;Node23</title>
<g id="a_edge31_Node000029_Node000023"><a xlink:title=" ">
<path fill="none" stroke="#63b8ff" d="M668.2,-155.45C680.98,-155.45 695.61,-155.45 709.34,-155.45"/>
<polygon fill="#63b8ff" stroke="#63b8ff" points="709.63,-158.95 719.63,-155.45 709.63,-151.95 709.63,-158.95"/>
</a>
</g>
</g>
<!-- Node34 -->
<g id="Node000034" class="node">
<title>Node34</title>
<g id="a_Node000034"><a target="_top" xlink:title="La fonction initialise les données du monde du jeu.">
<polygon fill="white" stroke="#666666" points="342.5,-164.95 283.5,-164.95 283.5,-145.95 342.5,-145.95 342.5,-164.95"/>
<text text-anchor="middle" x="313" y="-152.95" font-family="Helvetica,sans-Serif" font-size="10.00">init_data</text>
</a>
</g>
</g>
<!-- Node33&#45;&gt;Node34 -->
<g id="edge37_Node000033_Node000034" class="edge">
<title>Node33&#45;&gt;Node34</title>
<g id="a_edge37_Node000033_Node000034"><a xlink:title=" ">
<path fill="none" stroke="#63b8ff" d="M152.22,-121.67C178.9,-127.31 234.89,-139.15 272.97,-147.2"/>
<polygon fill="#63b8ff" stroke="#63b8ff" points="272.69,-150.72 283.2,-149.36 274.14,-143.87 272.69,-150.72"/>
</a>
</g>
</g>
<!-- Node36 -->
<g id="Node000036" class="node">
<title>Node36</title>
<g id="a_Node000036"><a target="_top" xlink:title=" ">
<polygon fill="white" stroke="#666666" points="341,-90.95 285,-90.95 285,-71.95 341,-71.95 341,-90.95"/>
<text text-anchor="middle" x="313" y="-78.95" font-family="Helvetica,sans-Serif" font-size="10.00">init_mix</text>
</a>
</g>
</g>
<!-- Node33&#45;&gt;Node36 -->
<g id="edge40_Node000033_Node000036" class="edge">
<title>Node33&#45;&gt;Node36</title>
<g id="a_edge40_Node000033_Node000036"><a xlink:title=" ">
<path fill="none" stroke="#63b8ff" d="M152.22,-115.23C179.28,-109.51 236.49,-97.42 274.59,-89.36"/>
<polygon fill="#63b8ff" stroke="#63b8ff" points="275.73,-92.7 284.79,-87.2 274.28,-85.85 275.73,-92.7"/>
</a>
</g>
</g>
<!-- Node37 -->
<g id="Node000037" class="node">
<title>Node37</title>
<g id="a_Node000037"><a target="_top" xlink:title="La fonction initialise les ressources nécessaires à l&#39;affichage graphique du jeu.">
<polygon fill="white" stroke="#666666" points="529,-127.95 444,-127.95 444,-108.95 529,-108.95 529,-127.95"/>
<text text-anchor="middle" x="486.5" y="-115.95" font-family="Helvetica,sans-Serif" font-size="10.00">init_resources</text>
</a>
</g>
</g>
<!-- Node33&#45;&gt;Node37 -->
<g id="edge41_Node000033_Node000037" class="edge">
<title>Node33&#45;&gt;Node37</title>
<g id="a_edge41_Node000033_Node000037"><a xlink:title=" ">
<path fill="none" stroke="#63b8ff" d="M152.18,-116.79C164.93,-114.69 182.94,-109.97 195,-99.45 222.56,-75.41 199.99,-44.85 231,-25.45 292.79,13.21 327.85,2.9 395,-25.45 430.78,-40.56 459.4,-77.48 474.29,-100"/>
<polygon fill="#63b8ff" stroke="#63b8ff" points="471.48,-102.11 479.81,-108.66 477.39,-98.34 471.48,-102.11"/>
</a>
</g>
</g>
<!-- Node39 -->
<g id="Node000039" class="node">
<title>Node39</title>
<g id="a_Node000039"><a target="_top" xlink:title="La fonction initialise la SDL. Elle crée la fenêtre du jeu ainsi que le renderer.">
<polygon fill="white" stroke="#666666" points="339,-53.95 287,-53.95 287,-34.95 339,-34.95 339,-53.95"/>
<text text-anchor="middle" x="313" y="-41.95" font-family="Helvetica,sans-Serif" font-size="10.00">init_sdl</text>
</a>
</g>
</g>
<!-- Node33&#45;&gt;Node39 -->
<g id="edge45_Node000033_Node000039" class="edge">
<title>Node33&#45;&gt;Node39</title>
<g id="a_edge45_Node000033_Node000039"><a xlink:title=" ">
<path fill="none" stroke="#63b8ff" d="M152.15,-115.59C164.39,-112.8 181.7,-107.75 195,-99.45 214.47,-87.3 210.96,-73.63 231,-62.45 244.87,-54.71 261.81,-50.3 276.61,-47.79"/>
<polygon fill="#63b8ff" stroke="#63b8ff" points="277.55,-51.19 286.94,-46.27 276.53,-44.26 277.55,-51.19"/>
</a>
</g>
</g>
<!-- Node40 -->
<g id="Node000040" class="node">
<title>Node40</title>
<g id="a_Node000040"><a target="_top" xlink:title="La fonction initialise l&#39;environnement TTF.">
<polygon fill="white" stroke="#666666" points="337.5,-127.95 288.5,-127.95 288.5,-108.95 337.5,-108.95 337.5,-127.95"/>
<text text-anchor="middle" x="313" y="-115.95" font-family="Helvetica,sans-Serif" font-size="10.00">init_ttf</text>
</a>
</g>
</g>
<!-- Node33&#45;&gt;Node40 -->
<g id="edge46_Node000033_Node000040" class="edge">
<title>Node33&#45;&gt;Node40</title>
<g id="a_edge46_Node000033_Node000040"><a xlink:title=" ">
<path fill="none" stroke="#63b8ff" d="M152.22,-118.45C180.2,-118.45 240.38,-118.45 278.37,-118.45"/>
<polygon fill="#63b8ff" stroke="#63b8ff" points="278.46,-121.95 288.46,-118.45 278.46,-114.95 278.46,-121.95"/>
</a>
</g>
</g>
<!-- Node35 -->
<g id="Node000035" class="node">
<title>Node35</title>
<g id="a_Node000035"><a target="_top" xlink:title="Initialise l&#39;information sur les niveaux du jeu.">
<polygon fill="white" stroke="#666666" points="520,-164.95 453,-164.95 453,-145.95 520,-145.95 520,-164.95"/>
<text text-anchor="middle" x="486.5" y="-152.95" font-family="Helvetica,sans-Serif" font-size="10.00">init_levels</text>
</a>
</g>
</g>
<!-- Node34&#45;&gt;Node35 -->
<g id="edge38_Node000034_Node000035" class="edge">
<title>Node34&#45;&gt;Node35</title>
<g id="a_edge38_Node000034_Node000035"><a xlink:title=" ">
<path fill="none" stroke="#63b8ff" d="M342.71,-155.45C370.03,-155.45 411.51,-155.45 442.73,-155.45"/>
<polygon fill="#63b8ff" stroke="#63b8ff" points="442.89,-158.95 452.89,-155.45 442.89,-151.95 442.89,-158.95"/>
</a>
</g>
</g>
<!-- Node35&#45;&gt;Node29 -->
<g id="edge39_Node000035_Node000029" class="edge">
<title>Node35&#45;&gt;Node29</title>
<g id="a_edge39_Node000035_Node000029"><a xlink:title=" ">
<path fill="none" stroke="#63b8ff" d="M520.19,-155.45C539.03,-155.45 563.02,-155.45 583.76,-155.45"/>
<polygon fill="#63b8ff" stroke="#63b8ff" points="583.96,-158.95 593.96,-155.45 583.96,-151.95 583.96,-158.95"/>
</a>
</g>
</g>
<!-- Node37&#45;&gt;Node29 -->
<g id="edge42_Node000037_Node000029" class="edge">
<title>Node37&#45;&gt;Node29</title>
<g id="a_edge42_Node000037_Node000029"><a xlink:title=" ">
<path fill="none" stroke="#63b8ff" d="M524.2,-127.98C542.46,-132.72 564.71,-138.5 584.09,-143.53"/>
<polygon fill="#63b8ff" stroke="#63b8ff" points="583.36,-146.96 593.92,-146.08 585.12,-140.18 583.36,-146.96"/>
</a>
</g>
</g>
<!-- Node38 -->
<g id="Node000038" class="node">
<title>Node38</title>
<g id="a_Node000038"><a target="_top" xlink:title="La fonction charge un son.">
<polygon fill="white" stroke="#666666" points="667,-127.95 595,-127.95 595,-108.95 667,-108.95 667,-127.95"/>
<text text-anchor="middle" x="631" y="-115.95" font-family="Helvetica,sans-Serif" font-size="10.00">load_sound</text>
</a>
</g>
</g>
<!-- Node37&#45;&gt;Node38 -->
<g id="edge43_Node000037_Node000038" class="edge">
<title>Node37&#45;&gt;Node38</title>
<g id="a_edge43_Node000037_Node000038"><a xlink:title=" ">
<path fill="none" stroke="#63b8ff" d="M529.1,-118.45C546.54,-118.45 566.87,-118.45 584.69,-118.45"/>
<polygon fill="#63b8ff" stroke="#63b8ff" points="584.85,-121.95 594.85,-118.45 584.85,-114.95 584.85,-121.95"/>
</a>
</g>
</g>
<!-- Node38&#45;&gt;Node23 -->
<g id="edge44_Node000038_Node000023" class="edge">
<title>Node38&#45;&gt;Node23</title>
<g id="a_edge44_Node000038_Node000023"><a xlink:title=" ">
<path fill="none" stroke="#63b8ff" d="M664.83,-127.98C680.62,-132.56 699.75,-138.11 716.67,-143.02"/>
<polygon fill="#63b8ff" stroke="#63b8ff" points="715.75,-146.4 726.33,-145.83 717.71,-139.68 715.75,-146.4"/>
</a>
</g>
</g>
<!-- Node41&#45;&gt;Node26 -->
<g id="edge58_Node000041_Node000026" class="edge">
<title>Node41&#45;&gt;Node26</title>
<g id="a_edge58_Node000041_Node000026"><a xlink:title=" ">
<path fill="none" stroke="#63b8ff" d="M141.58,-727.83C153.08,-704.77 185.55,-646.1 231,-617.45 235.05,-614.9 239.42,-612.7 243.95,-610.82"/>
<polygon fill="#63b8ff" stroke="#63b8ff" points="245.23,-614.07 253.43,-607.37 242.83,-607.5 245.23,-614.07"/>
</a>
</g>
</g>
<!-- Node41&#45;&gt;Node32 -->
<g id="edge59_Node000041_Node000032" class="edge">
<title>Node41&#45;&gt;Node32</title>
<g id="a_edge59_Node000041_Node000032"><a xlink:title=" ">
<path fill="none" stroke="#63b8ff" d="M154.19,-727.83C172.68,-717.81 203.18,-702.24 231,-692.45 238.28,-689.89 246.05,-687.57 253.79,-685.5"/>
<polygon fill="#63b8ff" stroke="#63b8ff" points="254.71,-688.88 263.54,-683.01 252.98,-682.09 254.71,-688.88"/>
</a>
</g>
</g>
<!-- Node42 -->
<g id="Node000042" class="node">
<title>Node42</title>
<g id="a_Node000042"><a target="_top" xlink:title="Indique si deux objets sont en collision.">
<polygon fill="white" stroke="#666666" points="357.5,-891.95 268.5,-891.95 268.5,-872.95 357.5,-872.95 357.5,-891.95"/>
<text text-anchor="middle" x="313" y="-879.95" font-family="Helvetica,sans-Serif" font-size="10.00">objects_collide</text>
</a>
</g>
</g>
<!-- Node41&#45;&gt;Node42 -->
<g id="edge48_Node000041_Node000042" class="edge">
<title>Node41&#45;&gt;Node42</title>
<g id="a_edge48_Node000041_Node000042"><a xlink:title=" ">
<path fill="none" stroke="#63b8ff" d="M141.3,-747.16C152.39,-771.04 184.43,-832.93 231,-863.45 239.16,-868.8 248.65,-872.65 258.2,-875.41"/>
<polygon fill="#63b8ff" stroke="#63b8ff" points="257.58,-878.86 268.13,-877.92 259.29,-872.08 257.58,-878.86"/>
</a>
</g>
</g>
<!-- Node44 -->
<g id="Node000044" class="node">
<title>Node44</title>
<g id="a_Node000044"><a target="_top" xlink:title=" ">
<polygon fill="white" stroke="#666666" points="395,-768.95 231,-768.95 231,-749.95 395,-749.95 395,-768.95"/>
<text text-anchor="middle" x="313" y="-756.95" font-family="Helvetica,sans-Serif" font-size="10.00">transition_to_end_screen_loss</text>
</a>
</g>
</g>
<!-- Node41&#45;&gt;Node44 -->
<g id="edge51_Node000041_Node000044" class="edge">
<title>Node41&#45;&gt;Node44</title>
<g id="a_edge51_Node000041_Node000044"><a xlink:title=" ">
<path fill="none" stroke="#63b8ff" d="M174.54,-742.17C189.79,-744.09 208.09,-746.39 226.29,-748.67"/>
<polygon fill="#63b8ff" stroke="#63b8ff" points="226.01,-752.17 236.37,-749.94 226.88,-745.22 226.01,-752.17"/>
</a>
</g>
</g>
<!-- Node46 -->
<g id="Node000046" class="node">
<title>Node46</title>
<g id="a_Node000046"><a target="_top" xlink:title=" ">
<polygon fill="white" stroke="#666666" points="393.5,-805.95 232.5,-805.95 232.5,-786.95 393.5,-786.95 393.5,-805.95"/>
<text text-anchor="middle" x="313" y="-793.95" font-family="Helvetica,sans-Serif" font-size="10.00">transition_to_end_screen_win</text>
</a>
</g>
</g>
<!-- Node41&#45;&gt;Node46 -->
<g id="edge54_Node000041_Node000046" class="edge">
<title>Node41&#45;&gt;Node46</title>
<g id="a_edge54_Node000041_Node000046"><a xlink:title=" ">
<path fill="none" stroke="#63b8ff" d="M156.02,-747.04C174.72,-756.16 204.25,-769.74 231,-778.45 237.78,-780.66 244.97,-782.69 252.15,-784.52"/>
<polygon fill="#63b8ff" stroke="#63b8ff" points="251.36,-787.93 261.9,-786.9 253.02,-781.13 251.36,-787.93"/>
</a>
</g>
</g>
<!-- Node47 -->
<g id="Node000047" class="node">
<title>Node47</title>
<g id="a_Node000047"><a target="_top" xlink:title=" ">
<polygon fill="white" stroke="#666666" points="366.5,-731.45 259.5,-731.45 259.5,-701.45 366.5,-701.45 366.5,-731.45"/>
<text text-anchor="start" x="267.5" y="-719.45" font-family="Helvetica,sans-Serif" font-size="10.00">transition_to_level</text>
<text text-anchor="middle" x="313" y="-708.45" font-family="Helvetica,sans-Serif" font-size="10.00">_complete_screen</text>
</a>
</g>
</g>
<!-- Node41&#45;&gt;Node47 -->
<g id="edge56_Node000041_Node000047" class="edge">
<title>Node41&#45;&gt;Node47</title>
<g id="a_edge56_Node000041_Node000047"><a xlink:title=" ">
<path fill="none" stroke="#63b8ff" d="M174.54,-732.94C196.26,-730.34 224.14,-726.99 249.12,-724"/>
<polygon fill="#63b8ff" stroke="#63b8ff" points="249.74,-727.45 259.25,-722.78 248.91,-720.5 249.74,-727.45"/>
</a>
</g>
</g>
<!-- Node48 -->
<g id="Node000048" class="node">
<title>Node48</title>
<g id="a_Node000048"><a target="_top" xlink:title=" ">
<polygon fill="white" stroke="#666666" points="370.5,-854.45 255.5,-854.45 255.5,-824.45 370.5,-824.45 370.5,-854.45"/>
<text text-anchor="start" x="263.5" y="-842.45" font-family="Helvetica,sans-Serif" font-size="10.00">transition_to_splash</text>
<text text-anchor="middle" x="313" y="-831.45" font-family="Helvetica,sans-Serif" font-size="10.00">_screen</text>
</a>
</g>
</g>
<!-- Node41&#45;&gt;Node48 -->
<g id="edge60_Node000041_Node000048" class="edge">
<title>Node41&#45;&gt;Node48</title>
<g id="a_edge60_Node000041_Node000048"><a xlink:title=" ">
<path fill="none" stroke="#63b8ff" d="M145.93,-747.06C161.62,-763.41 195.83,-796.67 231,-815.45 235.77,-818 240.85,-820.31 246.04,-822.4"/>
<polygon fill="#63b8ff" stroke="#63b8ff" points="244.89,-825.7 255.49,-825.93 247.34,-819.15 244.89,-825.7"/>
</a>
</g>
</g>
<!-- Node42&#45;&gt;Node28 -->
<g id="edge49_Node000042_Node000028" class="edge">
<title>Node42&#45;&gt;Node28</title>
<g id="a_edge49_Node000042_Node000028"><a xlink:title=" ">
<path fill="none" stroke="#63b8ff" d="M357.84,-888.28C405.82,-892.59 483.67,-893.33 542,-863.45 578.8,-844.6 606.55,-803.07 620.33,-778.9"/>
<polygon fill="#63b8ff" stroke="#63b8ff" points="623.47,-780.45 625.22,-770 617.34,-777.08 623.47,-780.45"/>
</a>
</g>
</g>
<!-- Node43 -->
<g id="Node000043" class="node">
<title>Node43</title>
<g id="a_Node000043"><a target="_top" xlink:title="Indique si deux rects sont en collision.">
<polygon fill="white" stroke="#666666" points="525.5,-853.95 447.5,-853.95 447.5,-834.95 525.5,-834.95 525.5,-853.95"/>
<text text-anchor="middle" x="486.5" y="-841.95" font-family="Helvetica,sans-Serif" font-size="10.00">rects_collide</text>
</a>
</g>
</g>
<!-- Node42&#45;&gt;Node43 -->
<g id="edge50_Node000042_Node000043" class="edge">
<title>Node42&#45;&gt;Node43</title>
<g id="a_edge50_Node000042_Node000043"><a xlink:title=" ">
<path fill="none" stroke="#63b8ff" d="M357.28,-872.86C381.7,-867.45 412.26,-860.68 437.43,-855.1"/>
<polygon fill="#63b8ff" stroke="#63b8ff" points="438.49,-858.45 447.49,-852.87 436.97,-851.62 438.49,-858.45"/>
</a>
</g>
</g>
<!-- Node44&#45;&gt;Node4 -->
<g id="edge52_Node000044_Node000004" class="edge">
<title>Node44&#45;&gt;Node4</title>
<g id="a_edge52_Node000044_Node000004"><a xlink:title=" ">
<path fill="none" stroke="#63b8ff" d="M355.68,-749.92C368.33,-746.96 382.25,-743.64 395,-740.45 409.86,-736.74 426.05,-732.5 440.57,-728.64"/>
<polygon fill="#63b8ff" stroke="#63b8ff" points="441.56,-732 450.32,-726.03 439.75,-725.23 441.56,-732"/>
</a>
</g>
</g>
<!-- Node45 -->
<g id="Node000045" class="node">
<title>Node45</title>
<g id="a_Node000045"><a target="_top" xlink:title="Jouer un son.">
<polygon fill="white" stroke="#666666" points="522.5,-805.95 450.5,-805.95 450.5,-786.95 522.5,-786.95 522.5,-805.95"/>
<text text-anchor="middle" x="486.5" y="-793.95" font-family="Helvetica,sans-Serif" font-size="10.00">play_sound</text>
</a>
</g>
</g>
<!-- Node44&#45;&gt;Node45 -->
<g id="edge53_Node000044_Node000045" class="edge">
<title>Node44&#45;&gt;Node45</title>
<g id="a_edge53_Node000044_Node000045"><a xlink:title=" ">
<path fill="none" stroke="#63b8ff" d="M358.17,-768.98C383.37,-774.42 414.91,-781.22 440.29,-786.7"/>
<polygon fill="#63b8ff" stroke="#63b8ff" points="439.89,-790.19 450.4,-788.88 441.36,-783.35 439.89,-790.19"/>
</a>
</g>
</g>
<!-- Node46&#45;&gt;Node45 -->
<g id="edge55_Node000046_Node000045" class="edge">
<title>Node46&#45;&gt;Node45</title>
<g id="a_edge55_Node000046_Node000045"><a xlink:title=" ">
<path fill="none" stroke="#63b8ff" d="M393.73,-796.45C409.63,-796.45 425.82,-796.45 440.08,-796.45"/>
<polygon fill="#63b8ff" stroke="#63b8ff" points="440.09,-799.95 450.09,-796.45 440.09,-792.95 440.09,-799.95"/>
</a>
</g>
</g>
<!-- Node47&#45;&gt;Node4 -->
<g id="edge57_Node000047_Node000004" class="edge">
<title>Node47&#45;&gt;Node4</title>
<g id="a_edge57_Node000047_Node000004"><a xlink:title=" ">
<path fill="none" stroke="#63b8ff" d="M366.86,-716.45C383.8,-716.45 402.77,-716.45 420.49,-716.45"/>
<polygon fill="#63b8ff" stroke="#63b8ff" points="420.74,-719.95 430.74,-716.45 420.74,-712.95 420.74,-719.95"/>
</a>
</g>
</g>
<!-- Node48&#45;&gt;Node45 -->
<g id="edge61_Node000048_Node000045" class="edge">
<title>Node48&#45;&gt;Node45</title>
<g id="a_edge61_Node000048_Node000045"><a xlink:title=" ">
<path fill="none" stroke="#63b8ff" d="M370.63,-825.25C393.37,-819.55 419.21,-813.07 440.62,-807.7"/>
<polygon fill="#63b8ff" stroke="#63b8ff" points="441.58,-811.07 450.43,-805.24 439.88,-804.28 441.58,-811.07"/>
</a>
</g>
</g>
</g>
</svg>
